<?xml version="1.0" encoding="UTF-8"?>
<svg xmlns="http://www.w3.org/2000/svg" width="271.8" height="192.4" version="1.1" xmlns:xlink="http://www.w3.org/1999/xlink" viewBox="0 0 271.8 192.4">
  <!-- Generator: Adobe Illustrator 29.6.1, SVG Export Plug-In . SVG Version: 2.1.1 Build 9)  -->
  <defs>
    <style>
      .st0 {
        fill: #fe3928;
      }

      .st1 {
        stroke-miterlimit: 10;
      }

      .st1, .st2, .st3, .st4 {
        fill: none;
      }

      .st1, .st2, .st4 {
        stroke: #000;
      }

      .st5 {
        fill: #dccd4e;
      }

      .st2 {
        stroke-width: .75px;
      }

      .st2, .st4 {
        stroke-linecap: round;
        stroke-linejoin: round;
      }

      .st6 {
        fill: #fcedde;
      }

      .st7 {
        fill: #daace5;
      }

      .st8 {
        fill: #f3edd7;
      }

      .st9 {
        fill: #fdfcde;
      }

      .st10 {
        fill: #333;
      }

      .st4 {
        stroke-width: .5px;
      }

      .st11 {
        fill: #d2d296;
      }

      .st12 {
        clip-path: url(#clippath);
      }
    </style>
    <clipPath id="clippath">
      <rect class="st3" x=".2" width="271.32" height="157.8"/>
    </clipPath>
  </defs>
  <g id="_レイヤー_2">
    <polyline class="st3" points="271.42 191.9 .2 191.9 .2 0 271.42 0"/>
    <path class="st8" d="M.2,157.8h3.6v5H.2v-5ZM270.1,185.3v6.6h-30.4l15.4-8.6c1,1.6,3.1,2.7,5.5,2.7s4.6-1.2,5.6-2.9l3.9,2.2Z"/>
    <path class="st8" d="M271.52,174.8v10.6l-4.02-2.2c.4-.6.6-1.4.6-2.1,0-1.3-.6-2.5-1.61-3.4l5.03-2.9h0ZM271.52,162.8v12l-5.03,2.8c-1.11-1-2.81-1.6-4.62-1.6s-3.32.6-4.42,1.5l-26.24-14.7h40.31ZM271.52,83.9v5.8H.2v-5.8h271.32ZM267.5,157.8h4.02v5h-4.02v-5Z"/>
    <path class="st8" d="M266.7,181c0,.8-.2,1.5-.6,2.1l-5.4-3.1,4.4-2.5c1,1,1.6,2.2,1.6,3.5ZM260.7,180.1l5.4,3.1c-1,1.7-3.1,2.9-5.6,2.9s-4.5-1.1-5.5-2.7l5.7-3.3Z"/>
    <path class="st10" d="M254.8,157.8h11.3v5h-11.3v-5Z"/>
    <path class="st8" d="M265.1,177.6l-4.4,2.5-4.6-2.6c1.1-.9,2.7-1.5,4.4-1.5,1.8-.1,3.5.6,4.6,1.6Z"/>
    <path class="st8" d="M260.7,180.1l-5.7,3.2c-.4-.7-.7-1.5-.7-2.3,0-1.4.7-2.6,1.8-3.5l4.6,2.6Z"/>
    <path class="st8" d="M230,162.8l26.1,14.7c-1.1.9-1.8,2.1-1.8,3.5s.2,1.6.7,2.3l-15.4,8.6h-41.5l-15.6-8.8c.4-.6.6-1.4.6-2.1,0-1.3-.6-2.5-1.6-3.4l26.3-14.8h22.2ZM224,181c0-2.8-2.2-5-5-5s-5,2.2-5,5,2.2,5,5,5,5-2.3,5-5Z"/>
    <path class="st8" d="M254.8,162.8h-30.5v-5h30.5v5Z"/>
    <path class="st10" d="M213,157.8h11.3v5h-11.3v-5ZM219,175.9c2.8,0,5,2.2,5,5s-2.2,5-5,5-5-2.2-5-5,2.2-5,5-5Z"/>
    <path class="st8" d="M207.8,162.8l-26.3,14.8c-1.1-1-2.8-1.6-4.6-1.6s-3.3.6-4.4,1.5l-26.1-14.7h61.4ZM182.4,162.8v-5h30.6v5h-30.6ZM198.2,191.9h-42.2l15.4-8.6c1,1.6,3.1,2.7,5.5,2.7s4.6-1.2,5.6-2.9l15.7,8.8h0Z"/>
    <path class="st8" d="M183.1,181c0,.8-.2,1.5-.6,2.1l-5.4-3.1,4.4-2.5c1,1,1.6,2.2,1.6,3.5ZM177.1,180.1l5.4,3.1c-1,1.7-3.1,2.9-5.6,2.9s-4.5-1.1-5.5-2.7l5.7-3.3h0Z"/>
    <path class="st10" d="M171.1,157.8h11.3v5h-11.3v-5Z"/>
    <path class="st8" d="M176.9,175.9c1.8,0,3.5.6,4.6,1.6l-4.4,2.5-4.6-2.6c1.1-.9,2.7-1.5,4.4-1.5ZM177.1,180.1l-5.7,3.2c-.4-.7-.7-1.5-.7-2.3,0-1.4.7-2.6,1.8-3.5l4.6,2.6h0Z"/>
    <path class="st8" d="M146.4,162.8l26.1,14.7c-1.1.9-1.8,2.1-1.8,3.5s.2,1.6.7,2.3l-15.4,8.6h-41.5l-15.6-8.8c.4-.6.6-1.4.6-2.1,0-1.3-.6-2.5-1.6-3.4l26.3-14.8h22.2ZM139.4,181c0-2.8-2.2-5-5-5s-5,2.2-5,5,2.2,5,5,5,5-2.3,5-5Z"/>
    <path class="st8" d="M171.1,162.8h-30.5v-5h30.5v5Z"/>
    <path class="st10" d="M129.3,157.8h11.3v5h-11.3v-5ZM134.3,175.9c2.8,0,5,2.2,5,5s-2.2,5-5,5-5-2.2-5-5,2.3-5,5-5Z"/>
    <path class="st8" d="M124.2,162.8l-26.3,14.8c-1.1-1-2.8-1.6-4.6-1.6s-3.3.6-4.4,1.5l-26.1-14.7h61.4ZM129.3,162.8h-30.5v-5h30.5v5ZM114.6,191.9h-42.2l15.3-8.6c1,1.6,3.1,2.7,5.5,2.7s4.6-1.2,5.6-2.9l15.8,8.8Z"/>
    <path class="st8" d="M99.5,181c0,.8-.2,1.5-.6,2.1l-5.4-3.1,4.4-2.5c1,1,1.6,2.2,1.6,3.5ZM93.5,180.1l5.4,3.1c-1,1.7-3.1,2.9-5.6,2.9s-4.5-1.1-5.5-2.7c0-.1,5.7-3.3,5.7-3.3Z"/>
    <path class="st10" d="M87.5,157.8h11.3v5h-11.3v-5Z"/>
    <path class="st8" d="M93.3,175.9c1.8,0,3.5.6,4.6,1.6l-4.4,2.5-4.6-2.6c1.1-.9,2.7-1.5,4.4-1.5ZM93.5,180.1l-5.7,3.2c-.4-.7-.7-1.5-.7-2.3,0-1.4.7-2.6,1.8-3.5,0,0,4.6,2.6,4.6,2.6Z"/>
    <path class="st8" d="M62.8,162.8l26.1,14.7c-1.1.9-1.8,2.1-1.8,3.5s.2,1.6.7,2.3l-15.3,8.6H30.8l-15.6-8.8c.4-.6.6-1.4.6-2.1,0-1.3-.6-2.5-1.6-3.4l26.3-14.8h22.3ZM54.2,181c0-2.8-2.2-5-5-5s-5,2.2-5,5,2.2,5,5,5,5-2.3,5-5Z"/>
    <path class="st8" d="M87.5,162.8h-30.5v-5h30.5v5Z"/>
    <path class="st10" d="M45.7,157.8h11.3v5h-11.3v-5ZM49.2,175.9c2.8,0,5,2.2,5,5s-2.2,5-5,5-5-2.2-5-5,2.3-5,5-5Z"/>
    <path class="st8" d="M45.7,162.8H15.2v-5h30.5v5ZM30.8,191.9H.2v-6.5l3.8-2.1c1,1.6,3.1,2.7,5.5,2.7s4.6-1.2,5.6-2.9l15.7,8.8ZM15.7,181c0,.8-.2,1.5-.6,2.1l-5.4-3.1,4.4-2.5c1,1,1.6,2.2,1.6,3.5Z"/>
    <path class="st10" d="M3.9,157.8h11.3v5H3.9v-5Z"/>
    <path class="st8" d="M9.7,180.1l5.4,3.1c-1,1.7-3.1,2.9-5.6,2.9s-4.5-1.2-5.5-2.8l5.7-3.2ZM9.5,175.9c1.8,0,3.5.6,4.6,1.6l-4.4,2.5-4.6-2.6c1.1-.9,2.7-1.5,4.4-1.5h0Z"/>
    <path class="st8" d="M9.7,180.1l-5.7,3.2c-.4-.7-.7-1.5-.7-2.3,0-1.4.7-2.6,1.8-3.5l4.6,2.6ZM.2,174.7l4.8,2.7c-1.1.9-1.8,2.1-1.8,3.5s.2,1.6.7,2.3l-3.8,2.1v-10.6h.1Z"/>
    <path class="st11" d="M214.12,157.8H.2v-68.1h271.32v68.1h-57.4Z"/>
    <path class="st8" d="M.2,162.8h40.2l-26.3,14.8c-1.1-1-2.8-1.6-4.6-1.6s-3.3.6-4.4,1.5l-4.8-2.7s0-12-.1-12Z"/>
    <path class="st1" d="M271.52,191.9H.2M.2,83.9h271.32M.2,89.7h271.32M267.5,157.8h4.02M225.48,157.8h30.66M183.36,157.8h30.76M141.34,157.8h30.66M99.32,157.8h30.66M57.3,157.8h30.66M15.28,157.8h30.66M.2,157.8h3.72M267.5,162.8h4.02M225.48,162.8h30.66M183.36,162.8h30.76M141.34,162.8h30.66M99.32,162.8h30.66M57.3,162.8h30.66M15.28,162.8h30.66M.2,162.8h3.72M72.78,191.9l15.48-8.6,5.73-3.2,4.42-2.5,26.44-14.8"/>
    <path class="st1" d="M114.6,191.9l-15.7-8.8-5.4-3-4.6-2.7-26.1-14.6M139.4,181c0,2.8-2.2,5-5,5s-5-2.2-5-5,2.2-5,5-5,5,2.2,5,5ZM224,181c0,2.8-2.2,5-5,5s-5-2.2-5-5,2.2-5,5-5,5,2.2,5,5Z"/>
    <path class="st1" d="M97.9,177.6c1,.9,1.6,2.1,1.6,3.4s-.2,1.5-.6,2.1c-1,1.7-3.1,2.9-5.6,2.9s-4.5-1.1-5.5-2.7c-.4-.7-.7-1.5-.7-2.3,0-1.4.7-2.6,1.8-3.5,1.1-.9,2.7-1.5,4.4-1.5,1.8-.1,3.5.6,4.6,1.6ZM.2,185.4l3.8-2.1,5.7-3.2,4.4-2.5,26.3-14.8"/>
    <path class="st1" d="M30.8,191.9l-15.7-8.8-5.4-3-4.6-2.7-4.9-2.7"/>
    <path class="st1" d="M14.1,177.6c1,.9,1.6,2.1,1.6,3.4s-.2,1.5-.6,2.1c-1,1.7-3.1,2.9-5.6,2.9s-4.5-1.1-5.5-2.7c-.4-.7-.7-1.5-.7-2.3,0-1.4.7-2.6,1.8-3.5s2.7-1.5,4.4-1.5c1.8-.1,3.5.6,4.6,1.6ZM156,191.9l15.4-8.6,5.7-3.2,4.4-2.5,26.3-14.8"/>
    <path class="st1" d="M198.2,191.9l-15.7-8.8-5.4-3-4.6-2.7-26.1-14.6"/>
    <path class="st1" d="M181.5,177.6c1,.9,1.6,2.1,1.6,3.4s-.2,1.5-.6,2.1c-1,1.7-3.1,2.9-5.6,2.9s-4.5-1.1-5.5-2.7c-.4-.7-.7-1.5-.7-2.3,0-1.4.7-2.6,1.8-3.5s2.7-1.5,4.4-1.5c1.8-.1,3.5.6,4.6,1.6ZM239.6,191.9l15.4-8.6,5.7-3.2,4.4-2.5,5-2.8"/>
    <path class="st1" d="M270.1,185.3l-4-2.2-5.4-3-4.6-2.7-26.1-14.6"/>
    <path class="st1" d="M265.1,177.6c1,.9,1.6,2.1,1.6,3.4s-.2,1.5-.6,2.1c-1,1.7-3.1,2.9-5.6,2.9s-4.5-1.1-5.5-2.7c-.4-.7-.7-1.5-.7-2.3,0-1.4.7-2.6,1.8-3.5s2.7-1.5,4.4-1.5c1.8-.1,3.5.6,4.6,1.6ZM54.2,181c0,2.8-2.2,5-5,5s-5-2.2-5-5,2.2-5,5-5,5,2.2,5,5ZM3.9,157.8h11.3v5H3.9v-5ZM45.7,157.8h11.3v5h-11.3v-5ZM87.5,157.8h11.3v5h-11.3v-5ZM129.3,157.8h11.3v5h-11.3v-5ZM171.1,157.8h11.3v5h-11.3v-5ZM213,157.8h11.3v5h-11.3v-5ZM254.8,157.8h11.3v5h-11.3v-5Z"/>
    <polyline class="st3" points="272.3 153.67 .2 153.67 .2 0 272.3 0"/>
  </g>
  <g id="_レイヤー_21" data-name="レイヤー_2">
    <g class="st12">
      <g>
        <g>
          <path class="st5" d="M289.47,103.91h0s-9.89,12.44-9.89,12.44c0,0-2.17-.76-4.93-1.72-2.97-1.04-6.62-2.31-8.99-3.13-.51-.18-.95-.33-1.32-.46-1.12-.39-3.85-1.21-7.1-2.19-7.47-2.23-17.7-5.18-17.7-5.18,3.29-3.23,6.33-6.24,6.33-6.24h0c9.07.02,28.17.07,30.61-.02,1.19-.04,4.3.14,7.74.39,2.06.15,4.24.33,6.2.49,3.58.3,6.42.55,6.42.55l-5.47,5.23-1.9-.18Z"/>
          <path class="st7" d="M290.43,80.98v17.31c-1.95-.16-4.14-.34-6.2-.49-6.67-2.73-33.94-5.15-44.41-5.79-10.48-.63-44.94-1.83-44.94-1.83.1-.26.2-.47.28-.63.84-1.66,1.08-3.21.72-3.69-.35-.47-8.41-4.77-8.41-4.77,0,0-12.67,10.13-15.76,12.39-.41.3-.88.64-1.37,1.01h-.02s-10.86,5.3-10.86,5.3h0c-3.64-1.21-7.15-2.61-10.4-4.12l.17-.36,34.77-17.55h47.42l56.85,3.11,2.18.12Z"/>
          <path class="st7" d="M281.43,62.43c1.25.21,2.31.48,3.17.81,1.66,4.65,3.69,17.03,3.69,17.03l-.03.59-56.85-3.11h-47.42l-34.77,17.55-.17.36c-2.51-1.17-4.85-2.4-6.96-3.65h0c-.86-1.11-1.7-2.2-2.52-3.28l35.61-20.65s15.87-.19,26.74-1.32l14.49,5.72,53.09-21.6s11.16,8.48,11.94,11.53h0Z"/>
          <path class="st7" d="M212.67,100.09c-4.73-1-12.41-2.28-12.41-2.28l-9.27,2.82c.43-1.19,2.81-7.93,3.88-10.44,0,0,34.46,1.2,44.94,1.83,10.47.63,37.74,3.05,44.41,5.79-3.44-.25-6.55-.43-7.74-.39-2.44.09-21.53.04-30.61,0-2.89,0-4.76,0-4.76,0-1.09,0-4.12,2.91-6.75,5.69,0,0-15.57-1.5-19.32-2.48-.62-.16-1.45-.35-2.39-.54Z"/>
          <path class="st0" d="M273.25,128.44c4.77-1.31,3.57.96,2.74,3.93-.84,2.97-14.76,14.41-17.15,16.07-1.01.71-1.72.73-2.19.39-.64-.44-.85-1.52-.78-2.4.12-1.54,1.07-2.76,3.09-5.49,2.03-2.74.12-2.5-1.43-1.67-1,.54-2.74,1.92-4.49,3.61-5.9,1.43-11.66,1.31-11.66,1.31,0-1.13-1-1.19-2.51-.58-2.13.27-7.31-.44-7.31-.44.73-.71,1.38-1.21,1.79-1.28h0c2.56.96,4.96.54,6.2-2.96.29-.84.59-1.7.87-2.6,0,0,1.16-.15,3.9-1.34,1.27-.55,2.12-.56,2.48-.1.43.53.17,1.71-.91,3.44-2,3.21-.62,5.47,2.6,4.15,3.21-1.32,5.01-2.72,10.25-7.24,1.33-1.15,2.6-2.07,3.86-2.82,3.69-2.21,7.1-2.99,10.67-3.97Z"/>
          <path class="st9" d="M216.5,68.09l8.23-3.72,39.47-17.84,2.03-.92,9.11,2.9-5.85,2.38-53.09,21.6-14.49-5.72-14.26-5.63c2.23-1,4.21-1.91,5.98-2.76h0l17.51,7.43,5.36,2.27Z"/>
          <path class="st7" d="M260.93,129.84c-2.23-.84-5.39-3.99-7.73-6.93,3.93-.58,12.47-6.48,12.48-11.42,2.36.82,6.02,2.1,8.99,3.13-1.79,1.04-3.34,12.94-12.27,15.38-.41.11-.91.04-1.46-.16Z"/>
          <path class="st0" d="M264.36,111.04c.37.13.81.28,1.32.46-.02,4.94-8.55,10.84-12.48,11.42-1.42-1.79-2.54-3.5-2.95-4.58-.27-.7-.57-1.23-.91-1.61,2.01-.4,7.69-4.74,7.92-7.88,3.26.97,5.99,1.8,7.1,2.19Z"/>
          <path class="st7" d="M262.25,44.22l1.95,2.31-39.47,17.84-13.59,1.45-17.51-7.43c4.82-2.3,8.06-4.07,10.22-5.6h0c1.37-.28,22.43-4.67,32.91-5.94,7.68-.93,17.26-1.86,22.21-2.31,0,0,.02,0,.02,0,2.02-.18,3.25-.3,3.25-.3Z"/>
          <path class="st0" d="M246.8,134.88s10.12-3.02,15.79-2.48c-1.25.76-2.53,1.67-3.86,2.82-5.24,4.52-7.03,5.92-10.25,7.24-3.21,1.33-4.6-.93-2.6-4.15,1.08-1.73,1.33-2.91.91-3.44Z"/>
          <path class="st9" d="M260.23,44.22l-1.23.3s-.02,0-.02,0c-4.94.46-14.53,1.38-22.21,2.31-10.48,1.27-31.55,5.66-32.91,5.94,2.21-1.57,3.28-2.85,3.74-4.16,1.01-.97,1.32-3.02,1.32-5.47,0,0,3.38-1.33,8.26-3.17h0c.76-.29,1.55-.59,2.38-.89h0c.79-.3,1.6-.6,2.44-.91.66-.24,1.33-.49,2.01-.74h0c4.15-1.52,8.64-3.12,12.8-4.5,5.91-1.96,11.12-3.5,13.65-3.72,3.93,5.84,9.77,15,9.77,15Z"/>
          <path class="st0" d="M257.53,139.27c1.55-.83,3.46-1.07,1.43,1.67-2.03,2.73-2.97,3.95-3.09,5.49-.07.88.14,1.96.78,2.4-4.98,1.09-10.72,1.27-10.99,1.28,1.68-1.17,3.42-2.85,4.62-4.29.84-1,1.81-2.02,2.76-2.94,1.75-1.69,3.5-3.07,4.49-3.61Z"/>
          <path class="st7" d="M257.25,108.85c-.23,3.13-5.91,7.47-7.92,7.88-.51-.6-1.08-.84-1.62-.8l-8.16-.09h0c.29-.8-.32-1.63-.68-1.6-.24.07-.48.22-.72.43l-.86-.43c-.3-.05-.59.06-.85.27l-.72-.27c-.29-.04-.57.04-.84.2h0s-.74-.2-.74-.2c-.35-.04-.68.04-.97.22h0l-.59-.22c-1.02-.1-1.78.5-2.34,1.43l-4.39-.1h0s3.6-2.19,6.1-4.53c1.21-1.13,4.51-4.35,7.6-7.37,0,0,10.23,2.96,17.7,5.18Z"/>
          <path class="st0" d="M253.19,122.91c2.34,2.94,5.51,6.08,7.73,6.93-4.01,2.46-19.68,3.77-19.68,3.77,2.11-7.15,3.87-14.88,4.64-16.29.43-.8,1.1-1.34,1.82-1.39.55-.04,1.11.19,1.62.8.34.38.64.91.91,1.61.41,1.08,1.53,2.79,2.95,4.58Z"/>
          <path class="st0" d="M245.65,150.11c-1.67,1.17-3.29,1.83-4.28,1.29-.55-.31-.88-.72-1.03-1.21-.41-1.25.27-3.04.88-5.1.1-.36.15-.67.15-.92,0,0,5.76.12,11.66-1.31-.96.92-1.92,1.94-2.76,2.94-1.2,1.44-2.94,3.12-4.62,4.29Z"/>
          <path class="st7" d="M232.58,141.57c-1.36-.63-2.72-1.6-3.97-2.65.23-.11,4.49-2.08,5.77-6.09,1.31-4.12,4.49-16.99,4.49-16.99h.68s8.16.1,8.16.1c-.72.05-1.39.59-1.82,1.39-.76,1.41-2.52,9.15-4.64,16.29-.27.92-.55,1.83-.83,2.72-.28.9-.58,1.77-.87,2.6-1.24,3.5-3.63,3.91-6.2,2.96h0c-.26-.09-.51-.2-.77-.32Z"/>
          <path class="st9" d="M245.89,97.42h0s-3.05,3.01-6.33,6.24c-3.09,3.02-6.38,6.24-7.6,7.37-2.5,2.34-6.1,4.52-6.1,4.52h0s-3.04-.06-3.04-.06c.04-1.02.09-2.03.12-3.04,0,0,5.8-3.04,7.11-4.57.56-.66,2.34-2.68,4.32-4.78,2.64-2.78,5.66-5.69,6.75-5.69,0,0,1.87,0,4.76,0Z"/>
          <path class="st0" d="M241.38,144.19c0,.25-.05.55-.15.92-.6,2.06-1.29,3.85-.88,5.1-3.29.84-13.98-.45-13.98-.45,4.31-1.39,7.57-3.22,9.77-4.65,1-.64,1.95-1.17,2.74-1.49,1.5-.61,2.51-.55,2.51.58Z"/>
          <path class="st0" d="M238.16,114.67c.23-.21.47-.35.72-.43.36-.03.97.8.68,1.59h0s-.68,0-.68,0c0,0-3.18,12.87-4.49,16.99-1.28,4.01-5.54,5.98-5.77,6.09h0c-.39-.32-.76-.65-1.11-.98,1.67-1.25,3.07-2.86,4.07-4.69,1.95-3.56,2.35-7.67,3.27-11.56.4-1.7.85-3.28,1.67-4.83.27-.49.92-1.58,1.65-2.19Z"/>
          <path class="st0" d="M233.17,114.46h0c.3-.18.63-.26.97-.22l.74.19h0c.27-.15.55-.23.84-.19l.72.27c.27-.2.55-.31.85-.27l.86.43c-.73.61-1.38,1.7-1.65,2.19-.82,1.55-1.27,3.13-1.67,4.83-.92,3.89-1.32,8-3.27,11.56-1,1.83-2.4,3.44-4.07,4.69-1.13-1.04-2.09-2.1-2.76-2.93-.23-.27-.42-.59-.59-.95,2.3-3.43,3.69-7.44,4.36-11.5.23-1.33.55-4.87,1.75-6.88.56-.93,1.32-1.54,2.34-1.43l.59.22Z"/>
          <path class="st0" d="M231.56,143.17s5.18.71,7.31.44c-.8.33-1.74.85-2.74,1.49-2.19,1.42-5.46,3.26-9.77,4.65-2.2.71-4.67,1.29-7.41,1.66-8.09,1.05-31.31,1.44-39.88,1.44s-11.77-3.45-11.77-3.45c-1.89.23-3.46.45-4.42.6-4.12.68-17.67.92-17.67.92,1.55-1.43,6.2-5.26,7.98-6.74,1.48-1.23,4.36-2.6,5.67-2.72.27-.02.47,0,.59.1.64.55-3.09,3.17-3.07,4.83.02,1.67,1.62,2.03,3.15,1.08,1.52-.96,7.02-5.14,8.85-5.91,1.84-.76,4.79-1.23,4.79-1.23.39,1.18,2.33,2.13,3.16,2.13s5.76-.42,11.14-.91h0c6.52,2.01,20.27,2.91,27.77,2.55,7.5-.35,13.26-.62,17.34-2.54.26.12.51.23.77.32-.41.07-1.06.57-1.79,1.28Z"/>
          <path class="st0" d="M236.77,32.79l.05.15c-4.16,1.38-8.65,2.98-12.8,4.5h0c-3.97-3.37-13.22-3.37-15.58-1.53-.28-3.33-.47-6.36.23-7.77.19-.38.43-.73.72-1.05,2.46-2.72,8.4-3.42,14.99-1.09,7.39,2.62,12.39,6.78,12.39,6.78Z"/>
          <path class="st7" d="M225.86,115.57l4.39.1c-1.21,2.01-1.53,5.55-1.75,6.88-.67,4.06-2.06,8.07-4.36,11.5-1.82-3.59-1.61-11.12-1.32-18.56l3.04.07Z"/>
          <path class="st7" d="M234.38,103.1c-1.99,2.1-3.76,4.12-4.32,4.78-1.31,1.54-7.11,4.57-7.11,4.57.03-.83.06-1.65.09-2.45l-3.05,1.59v-3.71l-2.23,1.39-.2-2.61c-.07.17-.76.71-1.83,1.47l-.59-2.7c-.15.36-.91,1.07-2,1.96l-.43-3.19c-.99,2.42-11.82,10.09-12.16,10.33-.71-1.2-1.76-2.4-3.33-3.5-1.17-.82-2.48-1.27-3.85-1.44v-.08s-1.19-.67-3.27-1.58l.02-.06s.13-1.83.32-3.68h0s6.91-2.64,9.17-2.82c2.21-.16,12.58-1.25,13.08-1.29.94.19,1.77.38,2.39.54,3.75.97,19.32,2.48,19.32,2.48Z"/>
          <path class="st0" d="M219.98,111.6l3.05-1.59c-.02.8-.06,1.62-.09,2.45-.03,1-.08,2.02-.12,3.04-.29,7.44-.51,14.97,1.32,18.56.18.35.37.68.59.95.67.84,1.63,1.89,2.76,2.93.35.33.72.66,1.11.98h0c1.25,1.05,2.61,2.02,3.97,2.65-4.08,1.92-9.85,2.19-17.34,2.54-7.5.36-21.25-.54-27.77-2.54h0c2.88-.27,5.89-.55,8.5-.8,6.32-.6,7.69.38,7.54-1.86h.02c1.06-4.11-.07-5.45-1.62-9.73.61-.75,0-2.44,0-2.44l-.12-.24c.31-.88-.63-3.08-.63-3.08-.07-.11-.14-.23-.23-.34.35-.76,0-1.63,0-1.63-.27-.91-1.83-2.54-1.83-2.54-.35-2.74-8.11-9.36-8.11-9.36h0c.8-.07,1.59-.06,2.35.03,1.37.17,2.68.62,3.85,1.44,1.57,1.09,2.62,2.3,3.33,3.5h0c.27.47.48.94.66,1.4.2.53.34,1.05.43,1.55,0,0,9.91-6.36,14.1-9.35,1.07-.76,1.76-1.3,1.83-1.47l.2,2.61,2.23-1.39v3.71Z"/>
          <polygon class="st7" points="224.73 64.37 216.5 68.09 211.14 65.82 224.73 64.37"/>
          <path class="st0" d="M224.02,37.45c-.68.25-1.35.5-2.01.74-7.7-3.95-13.17-1.21-13.45-1.07-.04-.4-.08-.8-.11-1.2,2.35-1.84,11.61-1.84,15.58,1.53Z"/>
          <path class="st0" d="M222.01,38.19c-.84.31-1.65.61-2.44.91h0c-6.64-2.91-10.83.15-10.83.15-.05-.6-.1-1.2-.15-1.8,0-.11-.02-.22-.02-.33.28-.14,5.75-2.88,13.45,1.07Z"/>
          <path class="st0" d="M219.57,39.09c-.83.31-1.62.6-2.38.89h0c-3.39-1.91-8.13.47-8.35.59l-.1-1.33s4.2-3.06,10.83-.15Z"/>
          <path class="st0" d="M215.12,105.43l.59,2.7c-4.19,2.99-14.1,9.35-14.1,9.35-.1-.5-.23-1.02-.43-1.55,0,0,8.06-5.38,11.94-8.54,1.09-.89,1.85-1.6,2-1.96Z"/>
          <path class="st0" d="M208.83,40.57c.23-.12,4.96-2.5,8.35-.59-4.88,1.84-8.26,3.17-8.26,3.17,0-.82-.04-1.69-.09-2.58Z"/>
          <path class="st0" d="M212.69,104.2l.43,3.19c-3.87,3.15-11.94,8.54-11.94,8.54-.18-.46-.39-.92-.66-1.39h0c.34-.24,11.17-7.92,12.16-10.34Z"/>
          <path class="st0" d="M208.83,40.57c.05.89.09,1.76.09,2.58,0,2.45-.31,4.5-1.32,5.47-2.35,2.27-4.84,1.45-7.42-.03-2.27-1.29-4.97-2.91-6.47-5.08-.64-.92-1.22-1.88-1.74-2.87,5.07,2.9,12.01,4.86,13.98,3.88,1.96-.99,2.64-7.08,2.64-7.08.05.6.1,1.2.15,1.8l.1,1.33Z"/>
          <path class="st9" d="M208.55,37.12c0,.11.02.22.02.33,0,0-.68,6.09-2.64,7.08-1.97.98-8.91-.98-13.98-3.88-.51-.96-.96-1.95-1.37-2.97-.03-.08-.06-.15-.09-.23h0c.51-.31,16.5-10.18,18.89-10.35-.29.32-.53.68-.72,1.05-.71,1.41-.51,4.44-.23,7.77.03.39.07.8.11,1.2Z"/>
          <path class="st9" d="M212.67,100.09c-.5.05-10.87,1.13-13.08,1.29-2.26.18-9.17,2.82-9.17,2.82h0c.16-1.49.36-2.99.58-3.58l9.27-2.82s7.68,1.29,12.41,2.28Z"/>
          <path class="st9" d="M156.06,68.12c-4.01,2.17-7.78,3.87-10.48,4.37-.86.16-1.68.26-2.44.3-2.5.13-4.48-.33-6.01-1.01-3.04-1.35-4.34-3.55-4.44-3.71,4.83,1.8,10.13,1.74,16.52-1.29,8.14-3.88,28.45-34.54,31.07-37.08.1-.1.19-.18.29-.28h0c2.59-2.6,6-7.06,7.52-6.19-.35,1.41-.77,2.93-.5,4.2.71,3.4,1.62,6.78,2.91,10.01h0c.02.09.06.16.09.24.41,1.02.86,2.01,1.37,2.97.52.99,1.1,1.95,1.74,2.87,1.5,2.17,4.2,3.79,6.47,5.08,2.58,1.48,5.07,2.3,7.42.03-.46,1.3-1.53,2.59-3.74,4.16h0c-2.15,1.53-5.39,3.3-10.22,5.6h0c-1.77.84-3.75,1.76-5.98,2.76-2.21.99-4.65,2.07-7.36,3.23-20.49,8.84-24.22,3.75-24.22,3.75Z"/>
          <path class="st7" d="M201.91,129.19c1.54,4.28,2.68,5.62,1.62,9.73h-.02c-.02-.42-.1-.95-.22-1.62-.72-4.28-7.23-6.61-18.21-8.21-10.99-1.61-26.52,2.41-29.83,3.13-3.31.72-4.47-.63-3.75-3.3.51-1.92,3.52-3.24,4.67-4.93,7.92.31,17.69-2.59,24.48-2.51,6.78.08,18.94,1.68,21.26,7.72Z"/>
          <path class="st0" d="M137.22,140.18c-1.37.23-2.57.35-3.5.33-5.45-.15-5.9-.35-5.9-.35,0,0,12.06-6.79,15.37-10.45,2.87-3.18,9.48-9.15,12.22-8.67.42.07.75.29.96.69.41.85.25,1.58-.21,2.25-1.15,1.69-4.16,3.01-4.67,4.93-.72,2.68.44,4.02,3.75,3.3,3.3-.72,18.84-4.73,29.83-3.13,10.98,1.61,17.5,3.93,18.21,8.21.11.68.19,1.21.22,1.62.15,2.23-1.22,1.25-7.54,1.86-2.61.25-5.63.53-8.5.79-5.38.49-10.27.91-11.14.91s-2.76-.95-3.16-2.13c-.25-.74.11-1.58,1.73-2.33,4.2-1.97,8.58-4.38,3.21-5.71-3.98-1-9.56-.59-14.47.47-1.7.37-3.34.81-4.78,1.31-1.92.65-4.75,1.59-7.86,2.56-4.64,1.43-9.91,2.91-13.78,3.54Z"/>
          <path class="st0" d="M201.79,126.51l.12.24s.61,1.69,0,2.44c-2.32-6.04-14.48-7.64-21.26-7.72-6.79-.08-16.56,2.81-24.48,2.51.46-.68.62-1.4.21-2.25,12-1.56,15.49-2.56,19.42-2.8,3.93-.24,11.46-.57,15.2,0,3.58.54,8.15,1.73,9.94,4.17.08.11.15.23.23.34,0,0,.93,2.19.63,3.08Z"/>
          <path class="st7" d="M187.65,61.14l14.26,5.63c-10.87,1.13-26.74,1.32-26.74,1.32l-35.61,20.65c-.48-.63-.96-1.25-1.43-1.86-1.27-1.66-2.43-3.32-3.46-4.93l8.47-9.15c.76-.04,1.58-.14,2.44-.3,2.7-.51,6.47-2.2,10.48-4.37,0,0,3.74,5.09,24.22-3.75,2.71-1.17,5.15-2.24,7.36-3.23Z"/>
          <path class="st0" d="M200.93,121.47s.35.87,0,1.63c-1.79-2.44-6.37-3.63-9.94-4.17-3.74-.57-11.27-.24-15.2,0-3.93.23-7.42,1.24-19.42,2.8-.21-.4-.54-.62-.96-.69-.27-.55-.75-1-1.31-1.35,4.94-.51,11.02-.3,18.22-3.05,0,0,24.21-1.91,26.77,2.29,0,0,1.56,1.63,1.83,2.54Z"/>
          <path class="st9" d="M195.87,85.86c.36.47.12,2.03-.72,3.69-.08.16-.18.38-.28.63-1.07,2.51-3.46,9.25-3.88,10.44-.22.59-.42,2.09-.58,3.58-.19,1.85-.32,3.68-.32,3.68l-.02.06c-1.13-.5-2.52-1.07-4.13-1.64,0,0,.48-2.11,1.09-4.92,1.08-5.02,2.54-12.27,2.31-13.68,2.54-1.14,5.03-1.95,6.53-1.84Z"/>
          <path class="st9" d="M195.87,85.86c-1.49-.11-3.99.7-6.53,1.84-2.93,1.31-5.93,3.05-7.52,4.32-2.97,2.35-13.45,10.22-13.45,10.22-2.09-.46-4.18-1-6.24-1.62.17-.13,4.93-3.71,8.18-6.12h.02c.5-.38.96-.72,1.37-1.02,3.09-2.26,15.76-12.39,15.76-12.39,0,0,8.05,4.29,8.41,4.77Z"/>
          <path class="st0" d="M190.99,109.56s7.76,6.62,8.11,9.36c-2.56-4.2-26.77-2.29-26.77-2.29.23-.09.47-.18.7-.27,5.4-2.19,12.16-6.35,17.96-6.81h0Z"/>
          <path class="st7" d="M110.67,95.31s4.65-17.02,6.07-18.74c3.07-2.18,6.64-4.91,10.68-8.99,0,0,1.55,4.52,4.89,10.46.7,1.25,1.49,2.56,2.35,3.91,1.03,1.61,2.19,3.27,3.46,4.93.47.61.95,1.24,1.43,1.86.82,1.08,1.66,2.17,2.52,3.29h0c2.11,1.25,4.45,2.48,6.96,3.64,3.25,1.51,6.76,2.92,10.4,4.12h0c.88.29,1.78.57,2.67.84h0c2.07.62,4.16,1.16,6.24,1.62,1.75.38,3.5.7,5.24.95,2.79.4,5.41.99,7.77,1.65,1.66.47,3.18.96,4.56,1.46,1.61.57,3,1.14,4.13,1.64,2.08.91,3.28,1.58,3.28,1.58v.08c-.77-.1-1.56-.1-2.36-.04-5.8.46-12.56,4.62-17.96,6.81-.23.1-.47.18-.7.27-7.2,2.75-13.28,2.54-18.22,3.05-.98-.61-2.22-.96-3.11-1.16.09-1.11-.69-1.99-1.78-2.16-.15-.26-.53-.46-.95-.6v-.02c-.14-.36-.66-.69-1.36-.9-.11-.1-.31-.25-.59-.39.19-.57-.74-1.18-2.02-1.5l.02-.05s-1.4-1.51-3.18-1.84c-1.78-.32-8.66,2.11-13.72,4.61-5.06,2.5-9.32,6.42-13.21,8.04-.03-.44-.15-.83-.35-1.16l.03-.02c-.02-.11-.17-.69-.7-1.58,0,0,0,0-.02-.03-.36-.61-.89-1.35-1.67-2.19-.51-.55-.98-1.33-1.4-2.2-.27-.56-.51-1.16-.73-1.75-.21-.59-.4-1.17-.56-1.7-.19-.61-.34-1.17-.45-1.59h0c-.15-.59-.23-.96-.23-.96-.22-.96-.89-1.7-1.81-2.23h0c.43-3.1-5.47-11.87-5.47-11.87-.61-.72-2.5-1.48-4.19-2.02-.27-4.37.81-7.6.81-7.6.89.12,2.32,0,2.32,0,.04-.27.1-.55.2-.83,0,0,1.34,1.61,2.48,6.07,1.13,4.47,1.54,8.1,1.54,8.1l2.33,2.2c1.7-6.24-4.7-18.84-5.77-17.8.43-.93.91-1.77,1-2.2,3.41,2.03,4.42,3.04,5.79,5.84.44.9.98,1.91,1.5,2.94.74,1.46,1.45,2.96,1.8,4.16Z"/>
          <path class="st7" d="M189.35,87.7c.23,1.41-1.23,8.66-2.31,13.68h-.02l-5.63,3.44v.02c-2.37-.66-4.99-1.25-7.78-1.65-1.74-.25-3.49-.57-5.24-.95,0,0,10.47-7.87,13.45-10.22,1.59-1.26,4.59-3.01,7.52-4.32Z"/>
          <path class="st0" d="M128.22,63.24c-.51-.72-1.24-1.41-2.07-1.95,0,.35-.08.72-.23,1.12l-1.25-5.88s-1.31-3.01-3.46-6.55c-2.85,1.94-9.16,10.81-11.11,15.34-1.94,4.52-3.01,13.04-3.01,13.04-.45.35-.91.68-1.37,1.01,2.85-13.29,2.64-17.6,15.2-31.25.36.4.8.76,1.34,1.05,1.29.72,3.09,1.07,5.67.81,0,.51.02,1.02.06,1.53.33,5.34,2.44,10.67,6.14,10.91,4.04.27,7.97-3.78,10.83-8.54.72-1.21,2.1-3.8,3.76-7.05h0c1.82-3.57,4-7.89,6.06-12,.43-.85.85-1.7,1.26-2.52,1.02-2.04,1.98-3.97,2.81-5.65,1.6-3.21,2.75-5.51,3.01-6,.08-.14.15-.29.23-.43.8-1.49,1.46-2.49,2.47-.72.05.1.1.19.16.31,1.19,2.39,2.56,7.02,2.56,7.02,2.6-4.61,5.35-8.36,7.91-10.41,1.94-1.54,3.77-2.12,5.36-1.36.93.72.2,3.21-.27,5.44h0c-.39,1.78-.61,3.41.28,3.83,1.83.87,4.26-5.3,6.38-5.41.22-.02.43.03.65.17,1.25.79.93,2.39.5,4.13-1.53-.87-4.93,3.59-7.52,6.18.23-1.64-1.1-4.68-1.1-4.68,0,0-17.14,25.76-23.41,32.05s-11.71,10.62-17.16,10.79c-5.28.16-9.85-1.32-10.11-1.4,0,0,0,0-.02,0,.5-.77.19-1.88-.55-2.93Z"/>
          <path class="st9" d="M187.02,101.38h.02c-.61,2.81-1.09,4.92-1.09,4.92-1.37-.5-2.9-1-4.56-1.46v-.02s5.63-3.44,5.63-3.44Z"/>
          <path class="st9" d="M186.95,18.92h0c-2.12.11-4.55,6.29-6.38,5.42-.89-.42-.67-2.04-.28-3.82h0c.22-.1,3.71-1.66,6.65-1.6Z"/>
          <path class="st9" d="M179.48,24.73s1.33,3.04,1.1,4.68h0c-.1.1-.19.19-.29.29-2.62,2.53-22.93,33.19-31.07,37.08-6.39,3.04-11.69,3.09-16.52,1.29h0c-1.33-.5-2.63-1.14-3.9-1.9.27.08,4.83,1.56,10.11,1.4,5.45-.17,10.89-4.49,17.16-10.79s23.41-32.05,23.41-32.05Z"/>
          <path class="st0" d="M178.11,132.29c5.36,1.33.98,3.75-3.21,5.71-1.62.76-1.98,1.59-1.73,2.33-3.34-1.13-9.51-7.51-9.51-7.51l-.02-.06c4.91-1.06,10.49-1.47,14.47-.47Z"/>
          <path class="st0" d="M151,136.63c3.11-.96,5.94-1.9,7.86-2.56,1.45-.5,3.08-.94,4.78-1.31l.02.06s6.17,6.39,9.51,7.51c0,0-2.95.47-4.79,1.23-1.83.76-7.33,4.95-8.85,5.91-1.53.95-3.13.59-3.15-1.08-.02-1.66,3.71-4.28,3.07-4.83-.11-.1-.31-.12-.59-.1-9.15-.26-9.64-1.86-9.64-1.86,0,0,0,0-.02.02-.11.08-.91.6-3.18.85,0,0,0,0,0,0-1.83.19-4.62.22-8.78-.31,3.87-.63,9.14-2.11,13.78-3.54Z"/>
          <path class="st7" d="M159.45,99.79l10.86-5.29c-3.25,2.41-8.01,6-8.18,6.12h0c-.89-.27-1.78-.55-2.67-.84Z"/>
          <path class="st9" d="M164.57,19.51s6.82-2.74,10.63-3.08c-2.56,2.05-5.3,5.8-7.91,10.41,0,0-1.37-4.64-2.56-7.02-.06-.11-.11-.21-.16-.31Z"/>
          <path class="st9" d="M158.34,21.43l3.77-1.21c-.07.14-.14.28-.23.43-.26.48-1.41,2.79-3.01,6,.46-2.38.07-4.1-.54-5.22Z"/>
          <path class="st0" d="M158.34,21.43c.61,1.12,1,2.84.54,5.22-.84,1.68-1.79,3.61-2.81,5.65-3.68,2.14-8.23,3.58-9.3,2.52,3.81-4.4,4.88-8.11,5.34-9.48s1.33-3.51,4.53-5.52c.45.1,1.17.63,1.7,1.62Z"/>
          <path class="st7" d="M151,118.53c.89.19,2.13.55,3.11,1.16.56.35,1.04.8,1.31,1.35-2.74-.47-9.36,5.49-12.22,8.67-3.31,3.66-15.37,10.45-15.37,10.45,0,0-3.75-5.63-4.91-6.08,0,0-.3-2.35,2.09-3.66,2.38-1.31,10-5.53,11.78-7.85s11.32-6.37,12.43-6.2c1.09.18,1.87,1.05,1.78,2.16Z"/>
          <path class="st0" d="M156.06,32.29c-.41.83-.84,1.67-1.26,2.52-4.58,4.41-7.2,7.25-10.54,8.44-.05.02-.21.06-.47.13-.72-.95-.84-4.18,2.97-8.57,1.07,1.05,5.62-.39,9.3-2.52Z"/>
          <path class="st0" d="M154.8,34.82c-2.06,4.11-4.24,8.43-6.06,11.99h0c-.41.14-13.51,4.54-20.74,4.69-.04-.51-.06-1.02-.06-1.53-2.59.26-4.39-.1-5.67-.81,2.93-1.7,18.55-5.06,21.52-5.77.27-.06.43-.11.47-.13,3.34-1.19,5.96-4.03,10.54-8.44Z"/>
          <path class="st0" d="M156.64,19.81c-3.21,2.01-4.07,4.15-4.53,5.52s-1.54,5.09-5.34,9.48c-3.81,4.39-3.69,7.62-2.97,8.57-2.97.72-18.6,4.07-21.52,5.77-.54-.29-.98-.65-1.34-1.05-.23-.24-.43-.51-.6-.78-.18-.29-.35-.59-.49-.91-.14-.31-.27-.64-.38-.97-.11-.33-.2-.66-.28-1-.29-1.13-.45-2.26-.69-3.21,2.03-1.25,3.94-2.72,5.47-4.1,1.57-1.41,3.07-2.67,4.27-4.04.62-.71,1.15-1.44,1.58-2.25.73-.32,24.15-10.67,26.85-11.03Z"/>
          <path class="st0" d="M158.86,141.47c-1.31.12-4.2,1.49-5.67,2.72-1.78,1.47-6.43,5.3-7.98,6.74-.75.69-1.47.57-1.95,0h0c-.52-.6-.78-1.72-.54-2.92.47-2.25,6.14-8.01,6.49-8.37l.02-.02s.49,1.6,9.64,1.86Z"/>
          <path class="st0" d="M146.32,114.46c.27.14.47.28.59.39.7.21,1.21.54,1.36.9v.02c.42.14.8.35.95.6-1.1-.18-10.64,3.87-12.43,6.2s-9.4,6.54-11.78,7.85c-2.39,1.31-2.09,3.66-2.09,3.66-.67-.26-3.47-3.67-5.72-6.51,2.09-2.57,2.87-3.34,4.6-3.94,1.72-.59,5.8-2.5,9.03-4.65,3.22-2.14,8.03-5.53,10.01-6.08,1.09-.31,2.4-.23,3.46.05,1.28.32,2.21.93,2.02,1.5Z"/>
          <path class="st0" d="M134.69,149.98c-3.05-.63-6.58-1.65-10.02-3.34-8.99-4.4-6.04-7.76-6.04-7.76l2.02-1.44s4.08,4.62,9.09,5.39c5,.77,11.49.31,16.28-2.34,0,0,0,0,0,0,2.27-.25,3.07-.77,3.18-.85-.35.36-6.03,6.12-6.49,8.37-.24,1.2.02,2.31.54,2.92-.23,0-3.8.02-8.55-.95Z"/>
          <path class="st0" d="M148.73,46.82c-1.66,3.25-3.05,5.84-3.76,7.05-2.86,4.77-6.79,8.82-10.83,8.54-3.7-.25-5.81-5.57-6.14-10.91,7.23-.14,20.33-4.54,20.74-4.68Z"/>
          <path class="st7" d="M144.32,112.91l-.02.05c-1.06-.27-2.37-.35-3.46-.05-1.99.55-6.79,3.94-10.01,6.08-3.23,2.15-7.31,4.05-9.03,4.65-1.73.59-2.51,1.37-4.6,3.94-1.58-1.99-2.89-3.71-2.99-3.84h0c3.9-1.62,8.15-5.55,13.21-8.05,5.06-2.5,11.94-4.93,13.72-4.61,1.78.33,3.18,1.84,3.18,1.84Z"/>
          <path class="st0" d="M114.2,123.73c.1.14,1.41,1.85,2.99,3.84,2.25,2.84,5.06,6.25,5.72,6.51,1.17.45,4.91,6.08,4.91,6.08,0,0,.45.2,5.9.35.92.02,2.12-.1,3.5-.33,4.16.53,6.95.51,8.78.31-4.78,2.64-11.28,3.11-16.28,2.34-5.01-.77-9.09-5.39-9.09-5.39l1.77-1.26-12.26-15.44c1.64.19,3.06.72,3.71,1.82.19.33.31.72.35,1.16h0,0Z"/>
          <path class="st9" d="M143.14,72.79l-8.47,9.15c-.87-1.35-1.66-2.66-2.35-3.91l4.81-6.25c1.54.68,3.51,1.14,6.01,1.01Z"/>
          <path class="st7" d="M137.13,71.78l-4.81,6.25c-3.34-5.94-4.89-10.46-4.89-10.46.44-.45.9-.92,1.36-1.41,0,0,0,0,.02,0,1.27.76,2.56,1.4,3.9,1.89h0c.1.17,1.4,2.37,4.44,3.72Z"/>
          <path class="st10" d="M76.81,40.17c-2.13,1.4-4.16,2.95-6.16,4.72.18-.35.36-.7.55-1.06.86-1.62,1.86-3.35,2.92-4.91,3.21-4.73,7.95-7.23,13.75-10.54s11.08-5.45,15.27-7.5c4.2-2.06,12.33-5.71,17.51-5.81,5.18-.09,7.95,2.32,8.66,6.08,0,0,1.43-.09,1.52,5.09.03,1.82-.36,3.31-1.04,4.61-.43.81-.96,1.54-1.58,2.25,1.44-2.06.35-4.28.26-6.16,0,0-.27-.98-4.2-1.96-4.73-1.16-11.61,2.23-24.89,5.88-.48.14-.96.27-1.42.4-5.91,1.68-10.71,3.38-14.9,5.39h0c-1.09.52-2.13,1.06-3.13,1.62h0c-.53.31-1.05.6-1.56.92-.53.32-1.04.65-1.56.99Z"/>
          <path class="st9" d="M116.74,76.56c-1,.72-1.95,1.37-2.84,1.99-1.08.75-2.27,1.5-3.45,2.21l-1.58,10.38c-.52-1.03-1.06-2.04-1.5-2.94-1.37-2.81-2.38-3.81-5.79-5.84.19-.14.38-.27.57-.41.63-.44,1.25-.89,1.88-1.35.57-.41,1.13-.83,1.7-1.25.46-.33.92-.67,1.37-1.01,1.59-1.17,3.16-2.35,4.69-3.5,2.37-1.78,4.66-3.48,6.75-4.98,4.14-2.95,6.65-5.51,7.39-7.44h0c.15-.41.23-.78.23-1.13.83.54,1.55,1.23,2.07,1.95.75,1.04,1.05,2.15.55,2.93-.46.49-.92.96-1.36,1.41-4.04,4.08-7.61,6.82-10.68,8.99Z"/>
          <path class="st6" d="M104.99,41.95c-2.25.45-4.81,1.63-7.32,3.24l-.19-.3c-.9-4.5-1.57-10.89.49-13.65.47-.14.94-.27,1.42-.4,13.28-3.65,20.16-7.04,24.89-5.88,3.93.98,4.2,1.96,4.2,1.96.09,1.88,1.18,4.11-.26,6.16-1.2,1.37-2.7,2.63-4.27,4.04-1.53,1.38-3.44,2.85-5.47,4.1-2.81,1.73-5.87,3.01-8.46,2.96-.87-.02-1.59-.13-2.22-.32-1.23-.37-2.07-1.04-2.81-1.91Z"/>
          <path class="st0" d="M134.69,149.98c-17.98,2.79-30.07-5.29-30.07-5.29l1.72-.43,5.44-2.15,5.8-2.5,1.04-.74s-2.95,3.36,6.04,7.76c3.44,1.69,6.98,2.71,10.02,3.34Z"/>
          <path class="st7" d="M124.67,56.52l1.25,5.88h0c-.74,1.95-3.25,4.5-7.39,7.45-2.09,1.5-4.38,3.21-6.75,4.98,0,0,.74-4.3,2.43-6.92,1.69-2.61,4.74-5.83,10.46-11.4Z"/>
          <path class="st7" d="M121.21,49.97c2.15,3.54,3.46,6.55,3.46,6.55-5.71,5.57-8.77,8.78-10.46,11.4-1.69,2.62-2.43,6.92-2.43,6.92-1.54,1.15-3.1,2.33-4.69,3.5,0,0,1.08-8.51,3.01-13.04,1.95-4.52,8.25-13.4,11.11-15.34Z"/>
          <path class="st5" d="M110.15,120.74l12.26,15.44-1.77,1.26-2.02,1.44-1.04.74-12.39-18.65c1.49-.27,3.33-.42,4.96-.23Z"/>
          <path class="st9" d="M120.32,47.32c.18.27.37.54.6.78-12.56,13.65-12.35,17.96-15.2,31.25-.56.42-1.13.84-1.7,1.25l.11-.85c2.13-9.93,1.95-20.21,16.18-32.42Z"/>
          <path class="st9" d="M119.83,46.42c.14.31.31.62.49.91-14.23,12.21-14.05,22.5-16.18,32.42l-.11.85c-.63.46-1.25.91-1.88,1.35l.41-1.81c1.41-6.61,1.27-22.84,17.27-33.72Z"/>
          <path class="st9" d="M119.45,45.44c.1.33.23.66.38.97-16,10.88-15.86,27.11-17.27,33.72l-.41,1.81c-.19.14-.38.27-.57.41.18-.78,0-1.67,0-1.67l-.61.06c.72-3.34.61-25.78,18.48-35.31h0Z"/>
          <path class="st9" d="M119.45,45.44h0c-17.87,9.53-17.76,31.97-18.48,35.31h0s-1.58.18-1.58.18c0,0-.09-28.37,19.78-36.48h0c.08.34.17.67.28,1Z"/>
          <path class="st7" d="M93.24,77.08c0-.61-.02-1.22-.02-1.83s0-1.21.02-1.81c0-.59.02-1.19.04-1.78.1-3.34.42-6.57,1.12-9.61.14-.59.35-1.23.62-1.9,2.4-5.96,9.65-14.68,12.78-16.28.63.19,1.35.31,2.22.32,2.6.05,5.65-1.23,8.46-2.96.24.96.4,2.09.69,3.21h0c-19.87,8.11-19.78,36.48-19.78,36.48l-3.88.43s-.06.33-.11.76h-.12c-.16.11-.32.22-.47.33l-.02-.02c-.16-.02-.31-.04-.47-.06,0,0-.39-.56-.97-1.37-.02-.68-.04-1.37-.06-2.05-.02-.62-.03-1.24-.04-1.86Z"/>
          <path class="st5" d="M105.19,120.96l12.39,18.65-5.8,2.5-10.94-20.04c1.35-.37,2.45-.67,3.14-.85.36-.1.76-.18,1.21-.27Z"/>
          <path class="st9" d="M113.9,78.55c.89-.62,1.84-1.27,2.84-1.99-1.41,1.72-6.07,18.74-6.07,18.74-.35-1.21-1.06-2.7-1.8-4.16l1.58-10.38c1.17-.71,2.37-1.46,3.45-2.21Z"/>
          <path class="st7" d="M113.89,122.54l-.03.02c-.64-1.1-2.07-1.63-3.71-1.82-1.63-.19-3.47-.05-4.96.23-.44.08-.84.17-1.21.27-.69.18-1.79.48-3.14.85-1.1.3-2.37.65-3.73,1.02-1.46.4-3.04.83-4.62,1.25-1.29.35-2.6.69-3.85,1.01-1.66.43-3.24.82-4.59,1.13-1.23.29-2.27.51-3.05.63-.52.09-1.14.16-1.82.23-1.22.1-2.65.18-4.19.21-1.43.02-2.95.02-4.46,0-4.05-.1-8-.39-9.94-.84-1.63-.38-2.8-1.22-3.51-2.24-.98-1.38-1.15-3.09-.59-4.34.27-.63.87-1.31,1.53-2.03,2.74,2.11,5.92,3.99,13.55,3.23s16.56-3.37,20.8-4.45c4.24-1.09,12.88-4.12,17.75-.32.42.87.88,1.65,1.4,2.2.78.84,1.31,1.58,1.67,2.19.02.02.02.03.02.03.53.89.68,1.47.7,1.58Z"/>
          <path class="st5" d="M100.85,122.08l10.94,20.04-5.44,2.15-9.23-21.16c1.36-.37,2.63-.72,3.73-1.02Z"/>
          <path class="st0" d="M109.37,114.79c.23.59.47,1.19.73,1.75-4.86-3.8-13.5-.76-17.75.32-4.24,1.09-13.17,3.7-20.8,4.45s-10.81-1.12-13.55-3.23c.31-.35.64-.72.96-1.09,2.34,1.48,5.01,2.89,9.68,2.83.88-.02,1.91-.09,3.07-.23,7-.8,16-3.29,19.96-4.32,3.24-.86,9.36-2.78,13.33-2.29,1.69.21,3.26.77,4.36,1.8Z"/>
          <path class="st0" d="M108.81,113.08c.16.53.35,1.12.56,1.7-1.1-1.03-2.68-1.59-4.36-1.8-3.96-.49-10.09,1.43-13.33,2.29-3.96,1.04-12.96,3.52-19.96,4.32-1.16.14-2.19.21-3.07.23-4.68.06-7.35-1.35-9.68-2.83.32-.39.63-.79.89-1.21,2.37,1.24,5.03,2.48,9.09,2.37.8-.02,1.78-.12,2.93-.27,6.37-.84,15.45-3.21,19.13-4.2,3.42-.93,10.28-3.01,13.61-2.56,1.68.23,3.25.86,4.2,1.95Z"/>
          <path class="st0" d="M108.36,111.49c.11.43.26.98.45,1.59-.96-1.09-2.52-1.73-4.2-1.95-3.33-.45-10.18,1.63-13.61,2.56-3.68.99-12.76,3.37-19.13,4.2-1.14.14-2.13.24-2.93.27-4.06.1-6.72-1.13-9.09-2.37.28-.44.5-.9.63-1.37,2.45,1.04,5.14,2.23,8.76,2.07.71-.03,1.66-.14,2.79-.31,5.74-.86,14.89-3.13,18.28-4.07,3.62-1.01,11.2-3.24,13.88-2.83,1.74.27,3.35.99,4.16,2.2h0Z"/>
          <path class="st0" d="M108.13,110.53s.08.37.23.96c-.81-1.21-2.42-1.94-4.16-2.2-2.68-.41-10.26,1.82-13.88,2.83-3.39.94-12.55,3.21-18.28,4.07-1.13.17-2.08.28-2.79.31-3.62.16-6.31-1.03-8.76-2.07.13-.51.15-1.03,0-1.57h0c2.72.87,5.63,2.2,9.07,1.98,3.43-.22,16.29-3.22,20.09-4.31,3.79-1.09,12.1-3.46,14.15-3.1.92.16,1.79.45,2.52.88.92.52,1.59,1.26,1.81,2.23Z"/>
          <path class="st9" d="M100.57,84.56c1.07-1.04,7.47,11.56,5.77,17.8l-2.33-2.2s-.41-3.63-1.54-8.1c-1.13-4.46-2.48-6.07-2.48-6.07.14-.47.35-.96.58-1.43Z"/>
          <path class="st5" d="M97.12,123.1l9.23,21.16-1.72.43-4.72,1.18-7.41-21.52c1.58-.42,3.16-.84,4.62-1.25Z"/>
          <path class="st7" d="M100.85,96.43s5.91,8.77,5.47,11.86h0c-.73-.42-1.61-.71-2.52-.87-2.06-.35-10.36,2.01-14.15,3.1-3.8,1.09-16.66,4.09-20.09,4.31-3.44.23-6.34-1.11-9.07-1.98h0c-.09-.34-.25-.68-.48-1.04-.83-1.21-2.47-1.46-4.36-1.2-.08-.3-.6-.72-1.37-1.16,3.86.31,9.44.31,18.14-3.35,4.78-2.01,12.3-4.6,18.43-6.83,5.03-1.82,9.13-3.62,10.01-2.85Z"/>
          <path class="st7" d="M104.99,41.95c.74.87,1.58,1.54,2.81,1.91-3.13,1.6-10.38,10.31-12.78,16.28-1.74-2.17-3.18-5.59-4.2-9.27,1.99-2.12,4.38-4.11,6.84-5.68,2.51-1.61,5.07-2.79,7.32-3.24Z"/>
          <path class="st9" d="M101.58,80.69s.18.89,0,1.67c-.1.43-.57,1.27-1,2.2-.23.47-.43.96-.58,1.43-.1.28-.16.56-.2.83,0,0-1.43.12-2.32,0-.27-.38-1.36-1.91-1.83-2.68-.06-.09-.1-.16-.14-.23-.21-.39-.17-1.19-.11-1.79.05-.43.11-.76.11-.76l3.88-.43,1.58-.17h0s.61-.07.61-.07Z"/>
          <path class="st7" d="M94.43,93.81c.55.11,1.36.33,2.23.6,1.69.54,3.58,1.29,4.19,2.02-.88-.76-4.98,1.03-10.01,2.85-6.13,2.23-13.65,4.82-18.43,6.83-8.7,3.66-14.28,3.66-18.14,3.35h0c-1.61-.94-4.24-2-5.81-2.32-.57-.11-1.13-.18-1.67-.25-.07-1.06-1.05-2.29-2.67-2.96v-.02s.28-.31.27-.72c0,0,.87-1.17,1.58-3.41s-3.66-4.02-8.13-3.84c-1.1.05-2.39.51-3.74,1.24h0c-4.13,2.21-8.84,6.8-10.45,8.95-2.15,2.86-6.97,5.8-8.84,6.9-1.88,1.09-3.75-.47-5.85,0,0,0-4.53,1.87-5.6,3.83,0-3.83,3.54-6.98,4.89-11.18,1.34-4.2,2.5-10.09,2.95-11.08.44-.98,6.87-4.65,7.85-4.47.99.18,4.82,2.41,9.03,2.86,1.85.19,3.92.43,6.35.39.71,0,1.45-.03,2.22-.09.65-.05,1.33-.11,2.03-.21.85-.11,1.74-.27,2.67-.47,1.17-.24,2.4-.55,3.71-.96.2-.06.4-.13.61-.19.98-.31,2.05-.67,3.18-1.04,8.21-2.74,19.8-6.86,23.88-7.88,4.65-1.17,6.61-1.97,9.02,0,2.41,1.96,7.42,7.5,9.11,9.73.11-3.99.48-6.36,2.3-8.37.47-.51,1.01-.99,1.67-1.46.14-.11.31-.22.47-.33h.12c-.06.6-.1,1.41.11,1.79.03.06.08.14.14.23,0,0-1.46,8.62-1.21,9.68Z"/>
          <path class="st5" d="M92.5,124.34l7.41,21.52-7.41,2.14-3.85-22.65c1.25-.32,2.56-.67,3.85-1.01Z"/>
          <path class="st7" d="M90.82,50.88c1.01,3.68,2.46,7.1,4.2,9.27-.27.68-.48,1.32-.62,1.9-.7,3.04-1.01,6.27-1.12,9.61-2.33-1.89-4.45-5.97-6.51-11.52-1.7-4.61-3.05-13.14-3.71-23.49h0c4.2-2.03,8.99-3.72,14.9-5.4-2.06,2.76-1.39,9.15-.49,13.65l.19.3c-2.46,1.58-4.85,3.56-6.84,5.68Z"/>
          <path class="st9" d="M95.64,84.13c.47.77,1.57,2.31,1.83,2.68,0,0-1.09,3.22-.81,7.6-.87-.27-1.67-.49-2.23-.6-.26-1.06,1.21-9.68,1.21-9.68Z"/>
          <path class="st9" d="M94.79,82.42l.02.02c-.66.47-1.21.96-1.67,1.46h0c-.64.02-1.74-.38-3.06-1.03-4.05-2-10.35-6.41-13.13-8.38-2.76-1.96-9-7.6-11.96-10.31-.26-.23-.49-.44-.69-.63-.59-.54-.92-.85-.92-.85l.42-.71h0l1.29-2.17h0l1.26-2.12c.33.47.67.93,1,1.39,4.8,6.59,9.59,11.65,12.93,14.21,2.35,1.81,5.79,4.97,9.27,7.06,1.62.98,3.26,1.72,4.78,1.99.16.02.31.05.47.06Z"/>
          <path class="st9" d="M93.34,80.98c.58.81.97,1.37.97,1.37-1.53-.27-3.16-1.01-4.78-1.99-.68-2.6-4.74-7.3-9.86-13.49-5.12-6.2-11.43-10.36-11.43-10.36-.21-2.84-.4-5.66.12-6.57.23-.39.59-.43,1.14.02,4.77,7.1,8.58,11.12,11.08,14.29,2.5,3.16,7.56,9.95,8.95,11.61.92,1.1,2.7,3.55,3.81,5.11Z"/>
          <path class="st7" d="M93.28,78.93c.02.68.03,1.37.06,2.05-1.11-1.56-2.89-4.01-3.81-5.11-1.4-1.66-6.45-8.46-8.95-11.61-2.5-3.17-6.31-7.19-11.08-14.29-.55-.46-.91-.41-1.14-.02l-.09-.04c.16-.38,1.05-2.46,2.36-5.01h0c2.01-1.78,4.03-3.33,6.16-4.73.34,3.88,1.25,7.25,2.11,10.95,1.36,5.83,2.78,11.88,6.02,16.98,2.42,3.83,5.43,7.38,8.35,10.83Z"/>
          <path class="st9" d="M93.24,77.08c0,.62.02,1.24.04,1.86-2.92-3.45-5.93-7-8.35-10.83-3.24-5.1-4.66-11.16-6.02-16.98-.86-3.71-1.77-7.07-2.11-10.95.51-.34,1.03-.67,1.56-.99.35,3.44,1.09,7.08,1.74,10.28,1.22,6.08,2.6,11.91,5.29,16.65,2.38,4.21,5.1,7.91,7.85,10.96Z"/>
          <path class="st9" d="M93.24,73.44c0,.6-.02,1.21-.02,1.81-2.6-2.68-5.06-6.51-7.38-11.12-2.18-4.35-3.48-9.98-4.57-16.33-.47-2.81-1.04-6.43-1.36-9.52h0c1-.57,2.05-1.11,3.13-1.62.66,10.35,2.01,18.89,3.71,23.49,2.06,5.55,4.18,9.63,6.51,11.52-.02.59-.04,1.18-.04,1.78Z"/>
          <path class="st9" d="M93.23,75.25c0,.61,0,1.22.02,1.83-2.76-3.05-5.47-6.75-7.85-10.96-2.68-4.74-4.07-10.57-5.29-16.65-.65-3.2-1.38-6.84-1.74-10.28.51-.31,1.03-.61,1.56-.91.31,3.09.88,6.71,1.36,9.52,1.09,6.35,2.39,11.98,4.57,16.33,2.31,4.61,4.77,8.44,7.38,11.12Z"/>
          <path class="st7" d="M90.06,82.88c1.33.65,2.42,1.05,3.06,1.02h0c-1.82,2.03-2.19,4.39-2.3,8.38-1.7-2.23-6.7-7.77-9.11-9.73-2.41-1.97-4.37-1.17-9.02,0-4.08,1.02-15.67,5.14-23.88,7.88,0,0,.97-1.32,2.35-3.19,2.89-3.95,7.6-10.38,8.69-12.03,1.29-1.93,3.71-7.7,4.65-9.99.25-.6.39-.96.39-.96l.06-.07c2.96,2.71,9.19,8.35,11.96,10.31,2.78,1.98,9.08,6.38,13.13,8.38Z"/>
          <path class="st5" d="M88.65,125.36l3.85,22.65-6.99.59h0l-1.44-22.11h0c1.35-.31,2.93-.71,4.59-1.13Z"/>
          <path class="st7" d="M89.53,80.36c-3.47-2.09-6.91-5.25-9.27-7.06-3.34-2.56-8.13-7.62-12.93-14.21l.91-2.58s6.31,4.16,11.43,10.36c5.12,6.19,9.19,10.89,9.86,13.49Z"/>
          <path class="st5" d="M85.5,148.6l.03.48h-7.6l.03-.54,1.24-21.07-.02-.14c.68-.06,1.3-.14,1.82-.23.78-.13,1.82-.35,3.05-.63h0s1.44,22.12,1.44,22.12Z"/>
          <path class="st5" d="M79.18,127.34l.02.14-1.24,21.07h-.03c-3.5.27-6.41-.54-6.41-.54v-1.33l3.48-19.1v-.02c1.54-.03,2.97-.1,4.19-.21Z"/>
          <path class="st5" d="M69.4,131.54l1.13-3.97v-.02c1.51.02,3.03.03,4.46,0v.02l-3.48,19.1-6-1.34,1.09-3.86.89-3.13,1.09-3.86.83-2.94Z"/>
          <path class="st10" d="M71.2,43.83c-.19.36-.38.72-.55,1.06h0c-1.31,2.56-2.2,4.64-2.36,5.02-.02.04-.03.06-.03.06-3.06.2-8.01,2.15-12.94,4.61,3.8-5.45,6.38-6.5,15.9-10.75Z"/>
          <path class="st0" d="M70.53,127.54v.02l-1.13,3.97c-.39.15-.77.28-1.17.39h0c-3.33,1-6.75,1.06-6.75,1.06-.66-.81-1.49-1.05-1.49-1.05,0,0-.42-1.25.42-3.69-1.86-1.68-5.27-.33-8.23,1.29-1.66.92-3.19,1.91-4.22,2.52-2.85,1.66-4.88,1.13-6.66,0s-1.49-2.92-1.49-2.92c.55-.04,1.16-.12,1.84-.24,5.18-.89,9.41-2.22,9.23-3.82-.06-.59-.64-.94-1.44-1.13-1.11-1.99-6.05-6.12-6.05-6.12.35-.6.74-1.19,1.19-1.73,0,0,4.23,5.51,12.5,8.36.72,1.02,1.88,1.86,3.51,2.24,1.95.45,5.89.75,9.94.84Z"/>
          <path class="st5" d="M69.4,131.54l-.83,2.94c-5.55,3.57-14.94,6.86-20.74,8.69-3.04.96-5.09,1.52-5.09,1.52l.64-4.14-.02-.09c7.24-1.41,19.38-4.3,24.86-8.52h0c.39-.12.78-.25,1.17-.4Z"/>
          <path class="st5" d="M68.58,134.48l-1.09,3.86h0c-2.72,2.04-12.21,5.63-17.47,7.52-2.15.78-3.59,1.28-3.59,1.28l1.41-3.97c5.8-1.83,15.2-5.12,20.74-8.69Z"/>
          <path class="st5" d="M68.27,49.9l.09.04c-.52.92-.33,3.74-.12,6.57l-.91,2.58c-.33-.46-.67-.92-1-1.39-9.73,2.76-18.02,9.99-20.8,13.01-5.21-1.22-8.64-2.42-4.92-6.7,2.02-2.22,8.32-6.25,14.68-9.44,4.93-2.46,9.88-4.41,12.94-4.61,0,0,0-.02.03-.06Z"/>
          <path class="st5" d="M67.49,138.34l-.89,3.13c-2.03,2.19-17.16,8.41-17.16,8.41l.57-4.01h0c5.26-1.9,14.76-5.49,17.47-7.53h0Z"/>
          <path class="st0" d="M66.33,57.71l-1.26,2.12h0c-8.29,2.33-14.8,8.53-17.58,11.38-.33-.1-.68-.19-1.07-.28-.3-.07-.59-.14-.88-.21,2.78-3.02,11.07-10.26,20.8-13.01Z"/>
          <path class="st0" d="M65.06,59.83l-1.29,2.17h0c-7.35,2.14-11.58,6.96-14.53,9.93-.45-.26-1.03-.5-1.75-.72,2.77-2.85,9.29-9.05,17.58-11.38Z"/>
          <path class="st0" d="M64.51,65.22c-.94,2.29-3.37,8.06-4.65,9.99-1.09,1.65-5.79,8.08-8.69,12.03-2.85.55-5.51,3.02-6.14,4.43-1.31.4-2.54.72-3.71.96,1.04-1.75,2.6-3.16,4.36-4.2,3.56-2.14,6.45-3.26,7.47-4.38.38-.42.88-1.13.48-1.68.35-.49.43-.96.07-1.38.43-1.79-.77-3.19-2.44-3.64l-.8-3.63h0c.02-.14.02-.27,0-.4h0c3.03-2.95,7.64-7.92,13.82-9.75.2.18.43.39.69.63l-.06.07s-.14.36-.39.96Z"/>
          <path class="st5" d="M61.48,132.99s3.42-.06,6.75-1.05c-5.48,4.22-17.62,7.1-24.86,8.52-3.44.67-5.77,1.01-5.77,1.01l2.14-4.36c1.25-.06,2.62-.16,4.1-.29,8.29-.72,16.39-2.97,17.64-3.83Z"/>
          <path class="st0" d="M63.77,62l-.42.71s.34.31.92.85c-6.17,1.82-10.79,6.8-13.82,9.74-.09-.47-.47-.95-1.22-1.37,2.95-2.97,7.18-7.79,14.53-9.93Z"/>
          <path class="st5" d="M59.99,131.94s.83.24,1.49,1.05c-1.25.87-9.35,3.12-17.64,3.83-1.48.13-2.85.23-4.1.29-5.76.33-9.04.12-9.04.12l5-8.55h0c1.13.39,2.31.6,4.12.46,0,0-.3,1.78,1.49,2.92s3.81,1.66,6.66,0c1.03-.6,2.56-1.6,4.22-2.52,0,0,.6,2.22,7.81,2.4Z"/>
          <path class="st0" d="M60.48,112.86c.16.54.14,1.06,0,1.57-.13.47-.35.92-.63,1.37-.26.42-.57.81-.89,1.21-.31.37-.64.73-.96,1.09-.66.72-1.25,1.41-1.53,2.03-.55,1.25-.39,2.96.59,4.34-8.27-2.85-12.5-8.36-12.5-8.36.51-.64,1.11-1.21,1.78-1.66,1.9-1.28,5.98-3.34,9.28-3.81,1.9-.27,3.54-.02,4.36,1.2.23.35.39.7.48,1.04Z"/>
          <path class="st0" d="M60.41,128.25c-.84,2.44-.42,3.69-.42,3.69-7.21-.18-7.81-2.4-7.81-2.4,2.96-1.62,6.37-2.97,8.23-1.29Z"/>
          <path class="st7" d="M54.26,109.47c.76.44,1.29.86,1.37,1.16-3.3.47-7.38,2.53-9.28,3.81-.67.45-1.26,1.02-1.78,1.66-.45.54-.84,1.13-1.19,1.73-1.06,1.86-1.64,3.84-1.75,4.98-2.89-1.39-6.65-3.79-8.37-5.03-2.56-1.84-4.14-3.12-4.14-3.12,3.09-2.01,6.65-4.76,8.33-6.6,1.08-1.17,2.45-2.16,3.82-2.65,2.13,1.18,3.8,1.3,5.5,1.49.55.06,1.1.14,1.67.25,1.58.32,4.2,1.38,5.81,2.32h0Z"/>
          <path class="st0" d="M53.62,82.37c-1.33,1.82-6.67,3.83-7.59,4.28-3.06,1.51-5.26,3.8-7.39,6.45-.7.1-1.37.16-2.03.21.67-1.72,3.12-4.48,6.12-6.49,3.25-2.16,7.27-2.83,10.42-5.1.14-.1.28-.21.38-.35.07-.11.11-.24.14-.38.36.43.28.89-.07,1.38Z"/>
          <path class="st0" d="M51.26,77.34c1.66.45,2.87,1.85,2.44,3.64-.03.14-.07.27-.14.38-.1.14-.24.26-.38.35-3.15,2.27-7.18,2.94-10.42,5.1-3.01,2.01-5.46,4.77-6.12,6.49-.77.06-1.51.09-2.22.09,1.84-2.6,4.78-6.61,8.71-8.44,1.4-.65,6.68-2.68,7.69-3.45.61-.45,1.71-2.36.8-2.54l-.35-1.62Z"/>
          <path class="st0" d="M53.62,82.37c.4.55-.1,1.26-.48,1.68-1.02,1.13-3.91,2.24-7.47,4.38-1.75,1.04-3.31,2.45-4.36,4.2-.93.2-1.82.35-2.67.47,2.13-2.65,4.32-4.94,7.39-6.45.92-.45,6.25-2.45,7.59-4.28Z"/>
          <path class="st5" d="M51.61,78.97c.91.18-.19,2.09-.8,2.54-1.01.76-6.29,2.8-7.69,3.45-3.93,1.83-6.87,5.84-8.71,8.44-2.43.03-4.5-.2-6.35-.39,2.56-5.88,10.62-14.33,19.03-16.72,1.98-.72,3.21-1.65,3.37-2.57l.8,3.63.35,1.62Z"/>
          <path class="st0" d="M24.64,123.77c-1.57-.96-3.01-1.96-4.13-2.89,1-1.95,2.52-3.09,4.69-4.01,1.01-.43,2.42-1.23,3.93-2.21,0,0,1.58,1.28,4.14,3.12,1.72,1.24,5.49,3.64,8.37,5.03,1.4.67,2.59,1.1,3.23,1.04,1.24-.1,3.22-.23,4.57.1.8.19,1.37.54,1.44,1.13.18,1.6-4.04,2.93-9.23,3.82-.68.12-1.29.2-1.84.24-1.81.14-2.99-.07-4.12-.47-1.14-.39-2.23-.95-3.87-1.47-2.25-.72-4.85-2.02-7.19-3.44Z"/>
          <path class="st0" d="M51.17,87.24c-1.37,1.87-2.35,3.19-2.35,3.19-1.13.38-2.2.73-3.18,1.04-.21.06-.41.13-.61.19.63-1.41,3.3-3.88,6.14-4.43Z"/>
          <path class="st0" d="M49.44,123.95c-1.35-.33-3.34-.21-4.57-.1-.64.06-1.83-.38-3.23-1.04.11-1.13.69-3.12,1.75-4.98,0,0,4.94,4.14,6.05,6.12Z"/>
          <path class="st0" d="M37.83,95.95c4.47-.18,8.84,1.61,8.13,3.84s-1.58,3.41-1.58,3.41c0-.31-.19-.68-.77-1.02-.18-.1-.54-.19-1.02-.26v-.04c.14,0,.2-.06.15-.23-1.04-3.17-6.51-4.61-8.64-4.47,1.35-.72,2.64-1.19,3.74-1.24Z"/>
          <path class="st0" d="M41.27,105.4c-1.37.49-2.74,1.48-3.82,2.65-1.68,1.84-5.24,4.59-8.33,6.6-1.51.98-2.92,1.78-3.93,2.21-2.17.92-3.69,2.07-4.69,4.01h0c-.43.83-.76,1.81-1.01,2.97-.47-.36-.96-.78-1.48-1.22.51-2.78,1.23-4.09,4.32-5.76,3.1-1.66,8.23-5.35,10.42-7.15,2.2-1.78,7.32-6.54,9.82-6.19.45.06.87.17,1.25.31.1.03.18.07.27.1,1.62.67,2.6,1.9,2.67,2.96-1.7-.19-3.37-.31-5.5-1.49Z"/>
          <path class="st0" d="M44.37,103.2c.02.41-.26.72-.26.72v.02c-.1-.03-.18-.07-.28-.1v-.02c-1.32-1.13-2.51-1.33-4.23-.97-1.73.35-6.97,4.52-9.11,6.55-2.14,2.03-7.26,5.12-9.7,6.52-2.44,1.41-3.75,2.94-4.03,5.61-.54-.49-1.06-.96-1.52-1.41,1.62-3.46,2.16-4.62,4.24-5.68,2.07-1.05,4.76-2.12,7.43-4.21,2.68-2.08,7.68-6.04,9.23-7.15,1.74-1.25,4.79-1.37,6.43-1.16.48.06.84.15,1.02.26.58.35.76.72.77,1.02Z"/>
          <path class="st0" d="M43.84,103.82v.02c-.39-.14-.81-.24-1.26-.31-2.5-.35-7.62,4.4-9.82,6.19-2.19,1.79-7.32,5.48-10.42,7.15-3.09,1.67-3.81,2.98-4.32,5.76-.42-.36-.84-.73-1.25-1.1.27-2.67,1.58-4.2,4.03-5.61,2.44-1.4,7.56-4.49,9.7-6.52,2.15-2.03,7.39-6.2,9.11-6.55,1.72-.36,2.91-.15,4.24.97Z"/>
          <path class="st0" d="M42.58,101.88v.04c-1.65-.22-4.69-.09-6.44,1.16-1.54,1.1-6.55,5.06-9.23,7.15-2.68,2.09-5.36,3.16-7.43,4.21-2.08,1.06-2.63,2.22-4.24,5.68-.88-.82-1.55-1.47-1.71-1.62,0-.02-.02-.02-.04-.04-3.39-1.81-4.55-5.43-4.55-5.43,2.1-.47,3.97,1.09,5.85,0,1.87-1.09,6.7-4.03,8.84-6.9,1.61-2.15,6.32-6.74,10.45-8.95h0c2.13-.14,7.6,1.29,8.64,4.47.05.16,0,.23-.14.23Z"/>
          <path class="st0" d="M24.64,123.77c-.4.32-1.97,1.49-3.2,1.3-.37-.06-1.09-.54-1.95-1.22.25-1.17.59-2.15,1.01-2.97h0c1.13.93,2.56,1.94,4.13,2.89Z"/>
          <path class="st0" d="M13.49,118.45l.04.04c0,.21-3.68.31-5.84.31-2.27,0-3.82-.74-4.35-1.95,1.07-1.96,5.6-3.83,5.6-3.83,0,0,1.16,3.62,4.55,5.43Z"/>
        </g>
        <g>
          <path class="st2" d="M3.34,116.86c0-3.83,3.54-6.98,4.89-11.18,1.34-4.2,2.5-10.09,2.95-11.08.44-.98,6.87-4.65,7.85-4.47.99.18,4.82,2.41,9.03,2.86,1.85.19,3.92.43,6.35.39.71,0,1.45-.03,2.22-.09.65-.05,1.33-.11,2.03-.21.85-.11,1.74-.27,2.67-.47,1.17-.24,2.4-.55,3.71-.96.2-.06.4-.13.61-.19.98-.31,2.05-.67,3.18-1.04,8.21-2.74,19.8-6.86,23.88-7.88,4.65-1.17,6.61-1.97,9.02,0,2.41,1.96,7.42,7.5,9.11,9.73.11-3.99.48-6.36,2.3-8.37.47-.51,1.01-.99,1.67-1.46.14-.11.31-.22.47-.33"/>
          <path class="st2" d="M8.94,113.03s1.16,3.62,4.55,5.43c.02.02.04.02.04.04,0,.21-3.68.31-5.84.31-2.27,0-3.82-.74-4.35-1.95,1.07-1.96,5.6-3.83,5.6-3.83Z"/>
          <path class="st2" d="M34.09,97.19c1.35-.72,2.64-1.19,3.74-1.24,4.47-.18,8.84,1.61,8.13,3.84s-1.58,3.41-1.58,3.41"/>
          <path class="st2" d="M8.94,113.03c2.1-.47,3.97,1.09,5.85,0,1.87-1.09,6.7-4.03,8.84-6.9,1.61-2.15,6.32-6.74,10.45-8.95"/>
          <path class="st2" d="M13.49,118.45l.04.04c.16.15.83.8,1.71,1.62.46.44.98.92,1.52,1.41.41.37.83.74,1.25,1.1.51.44,1.01.86,1.48,1.22.86.68,1.58,1.17,1.95,1.22,1.23.18,2.8-.98,3.2-1.3.07-.06.1-.09.1-.09"/>
          <path class="st2" d="M20.51,120.87c1-1.95,2.52-3.09,4.69-4.01,1.01-.43,2.42-1.23,3.93-2.21,3.09-2.01,6.65-4.76,8.33-6.6,1.08-1.17,2.45-2.16,3.82-2.65,1.82-.65,3.62-.43,4.67,1.4"/>
          <path class="st2" d="M19.49,123.85c.25-1.17.59-2.15,1.01-2.97"/>
          <path class="st4" d="M18.01,122.62c.51-2.78,1.23-4.09,4.32-5.76,3.1-1.66,8.23-5.35,10.42-7.15,2.2-1.78,7.32-6.54,9.82-6.19.45.06.87.17,1.25.31.1.03.18.07.27.1,1.62.67,2.6,1.9,2.67,2.96"/>
          <path class="st4" d="M16.76,121.52c.27-2.67,1.58-4.2,4.03-5.61,2.44-1.4,7.56-4.49,9.7-6.52,2.15-2.03,7.39-6.2,9.11-6.55,1.72-.36,2.91-.15,4.24.97"/>
          <path class="st4" d="M15.24,120.12c1.62-3.46,2.16-4.62,4.24-5.68,2.07-1.05,4.76-2.12,7.43-4.21,2.68-2.08,7.68-6.04,9.23-7.15,1.74-1.25,4.79-1.37,6.43-1.16.48.06.84.15,1.02.26.58.35.76.72.77,1.02.02.41-.26.72-.26.72"/>
          <path class="st2" d="M34.08,97.19h0c2.13-.14,7.6,1.29,8.64,4.47.05.16,0,.23-.14.23-.79,0-4.2-2-5.96-.94-2.08,1.25-6.73,5-8.87,6.96-2.15,1.97-9.94,6.13-10.99,6.53-1.04.4-2.58,2.04-2.58,4.37"/>
          <path class="st2" d="M20.5,120.87h0c1.13.93,2.56,1.94,4.13,2.89,2.34,1.42,4.94,2.72,7.19,3.44,1.63.52,2.72,1.09,3.87,1.47,1.13.39,2.31.61,4.12.47.55-.04,1.16-.12,1.84-.24,5.18-.89,9.41-2.22,9.23-3.82-.06-.59-.64-.94-1.44-1.13-1.35-.33-3.34-.21-4.57-.1-.64.06-1.83-.38-3.23-1.04-2.89-1.39-6.65-3.79-8.37-5.03-2.56-1.84-4.14-3.12-4.14-3.12"/>
          <path class="st2" d="M39.81,129.14s-.3,1.78,1.49,2.92,3.81,1.66,6.66,0c1.03-.6,2.56-1.6,4.22-2.52,2.96-1.62,6.37-2.97,8.23-1.29-.84,2.44-.42,3.69-.42,3.69,0,0,.83.24,1.49,1.05-1.25.87-9.35,3.12-17.64,3.83-1.48.13-2.85.23-4.1.29-5.76.33-9.04.12-9.04.12l5-8.55"/>
          <path class="st2" d="M52.18,129.54s.6,2.22,7.81,2.4"/>
          <path class="st2" d="M41.64,122.8c.11-1.13.69-3.12,1.75-4.98.35-.6.74-1.19,1.19-1.73.51-.64,1.11-1.21,1.78-1.66,1.9-1.28,5.98-3.34,9.28-3.81,1.9-.27,3.54-.02,4.36,1.2.23.35.39.7.48,1.04.16.54.14,1.06,0,1.57-.13.47-.35.92-.63,1.37-.26.42-.57.81-.89,1.21-.31.37-.64.73-.96,1.09-.66.72-1.25,1.41-1.53,2.03-.55,1.25-.39,2.96.59,4.34.72,1.02,1.88,1.86,3.51,2.24,1.95.45,5.89.75,9.94.84,1.51.02,3.03.03,4.46,0,1.54-.03,2.97-.1,4.19-.21.68-.06,1.3-.14,1.82-.23.78-.13,1.82-.35,3.05-.63,1.35-.31,2.93-.7,4.59-1.13,1.25-.32,2.56-.67,3.85-1.01,1.58-.42,3.16-.84,4.62-1.25,1.36-.37,2.63-.72,3.73-1.02,1.35-.37,2.45-.67,3.14-.85.36-.1.76-.18,1.21-.27,1.49-.27,3.33-.42,4.96-.23,1.64.19,3.06.72,3.71,1.82.19.33.31.72.35,1.16h0c.04.52-.04,1.11-.27,1.78"/>
          <path class="st2" d="M43.39,117.83s4.94,4.14,6.05,6.12"/>
          <path class="st2" d="M44.58,116.1s4.23,5.51,12.5,8.36"/>
          <path class="st2" d="M54.26,109.47c.76.44,1.29.86,1.37,1.16"/>
          <path class="st2" d="M41.27,105.4c2.13,1.18,3.8,1.3,5.5,1.49.55.06,1.1.14,1.67.25,1.58.32,4.2,1.38,5.81,2.32"/>
          <path class="st2" d="M113.19,120.96c.53.89.68,1.47.7,1.58,0,0,0,.02,0,.02"/>
          <path class="st2" d="M108.36,111.49c.11.43.26.98.45,1.59.16.53.35,1.12.56,1.7.23.59.47,1.19.73,1.75.42.87.88,1.65,1.4,2.2.78.84,1.31,1.58,1.67,2.19"/>
          <path class="st2" d="M60.48,112.86c2.72.87,5.63,2.2,9.07,1.98,3.43-.22,16.29-3.22,20.09-4.31,3.79-1.09,12.1-3.46,14.15-3.1.92.16,1.79.45,2.52.88.92.52,1.59,1.26,1.81,2.23,0,0,.08.37.23.96"/>
          <path class="st4" d="M60.48,114.43c2.45,1.04,5.14,2.23,8.76,2.07.71-.03,1.66-.14,2.79-.31,5.74-.86,14.89-3.13,18.28-4.07,3.62-1.01,11.2-3.24,13.88-2.83,1.74.27,3.35.99,4.16,2.2h0"/>
          <path class="st4" d="M59.86,115.79c2.37,1.24,5.03,2.48,9.09,2.37.8-.02,1.78-.12,2.93-.27,6.37-.84,15.45-3.21,19.13-4.2,3.42-.93,10.28-3.01,13.61-2.56,1.68.23,3.25.86,4.2,1.95.02.02.04.04.06.06"/>
          <path class="st4" d="M58.96,117c2.34,1.48,5.01,2.89,9.68,2.83.88-.02,1.91-.09,3.07-.23,7-.8,16-3.29,19.96-4.32,3.24-.86,9.36-2.78,13.33-2.29,1.69.21,3.26.77,4.36,1.8.02,0,.04.02.06.04"/>
          <path class="st2" d="M58.01,118.08c2.74,2.11,5.92,3.99,13.55,3.23s16.56-3.37,20.8-4.45c4.24-1.09,12.88-4.12,17.75-.32"/>
          <path class="st2" d="M78.97,87.68s13.75,5.8,15.18,6.07c.08.02.18.03.28.06.55.11,1.36.33,2.23.6,1.69.54,3.58,1.29,4.19,2.02-.88-.76-4.98,1.03-10.01,2.85-6.13,2.23-13.65,4.82-18.43,6.83-8.7,3.66-14.28,3.66-18.14,3.35h0"/>
          <path class="st2" d="M100.85,96.43s5.91,8.77,5.47,11.86"/>
          <path class="st2" d="M68.24,131.93c.39-.11.78-.24,1.17-.39.05,0,.1-.03.14-.05"/>
          <path class="st2" d="M61.48,132.99s3.42-.06,6.75-1.05"/>
          <polyline class="st2" points="70.53 127.57 69.4 131.54 68.58 134.48 67.49 138.34 66.6 141.47 65.51 145.33 71.51 146.67 74.99 127.57"/>
          <path class="st2" d="M71.51,146.67v1.33s2.92.8,6.41.54"/>
          <polyline class="st2" points="79.19 127.48 77.96 148.54 77.92 149.08 85.53 149.08 85.5 148.6 84.06 126.49"/>
          <polyline class="st2" points="85.5 148.6 92.5 148.01 88.65 125.36"/>
          <polyline class="st2" points="92.5 148.01 99.91 145.87 92.5 124.34"/>
          <polyline class="st2" points="99.91 145.87 104.62 144.69 106.34 144.26 97.12 123.1"/>
          <polyline class="st2" points="106.34 144.26 111.79 142.12 100.85 122.08"/>
          <polyline class="st2" points="111.79 142.12 117.59 139.62 105.19 120.96"/>
          <polyline class="st2" points="117.59 139.62 118.63 138.88 120.64 137.44 122.41 136.18 110.15 120.74"/>
          <path class="st2" d="M48.82,90.44s.97-1.32,2.35-3.19c2.89-3.95,7.6-10.38,8.69-12.03,1.29-1.93,3.71-7.7,4.65-9.99.25-.6.39-.96.39-.96"/>
          <path class="st2" d="M65.07,59.83l1.26-2.12c.33.47.67.93,1,1.39,4.8,6.59,9.59,11.65,12.93,14.21,2.35,1.81,5.79,4.97,9.27,7.06,1.62.98,3.26,1.72,4.78,1.99.16.02.31.05.47.06"/>
          <line class="st2" x1="63.78" y1="62" x2="65.06" y2="59.83"/>
          <path class="st2" d="M93.12,83.9c-.64.03-1.74-.37-3.06-1.02-4.05-2-10.35-6.41-13.13-8.38-2.76-1.96-9-7.6-11.96-10.31-.26-.23-.49-.44-.69-.63-.59-.54-.92-.85-.92-.85l.42-.71"/>
          <path class="st2" d="M89.53,80.36c-.68-2.6-4.74-7.3-9.86-13.49-5.12-6.2-11.43-10.36-11.43-10.36-.21-2.84-.4-5.66.12-6.57.23-.39.59-.43,1.14.02,4.77,7.1,8.58,11.12,11.08,14.29,2.5,3.16,7.56,9.95,8.95,11.61.92,1.1,2.7,3.55,3.81,5.11.58.81.97,1.37.97,1.37"/>
          <line class="st2" x1="90.06" y1="82.88" x2="91.57" y2="85.99"/>
          <path class="st2" d="M100.97,80.76l-1.58.17-3.88.43s-.06.33-.11.76c-.06.6-.1,1.41.11,1.79.03.06.08.14.14.23.47.77,1.57,2.31,1.83,2.68.89.12,2.32,0,2.32,0,.04-.27.1-.55.2-.83.14-.47.35-.96.58-1.43.43-.93.91-1.77,1-2.2.18-.78,0-1.67,0-1.67l-.61.06"/>
          <path class="st2" d="M99.99,85.99s1.34,1.61,2.48,6.07c1.13,4.47,1.54,8.1,1.54,8.1l2.33,2.2c1.7-6.24-4.7-18.84-5.77-17.8"/>
          <path class="st2" d="M125.92,62.4c.15-.4.23-.77.23-1.12.83.54,1.55,1.23,2.07,1.95.75,1.04,1.05,2.15.55,2.93-.46.49-.92.96-1.36,1.41-4.04,4.08-7.61,6.82-10.68,8.99-1,.72-1.95,1.37-2.84,1.99-1.08.75-2.27,1.5-3.45,2.21-3.11,1.86-6.05,3.38-6.05,3.38"/>
          <path class="st2" d="M106.63,102.13l2.24-.54s1.83-2.85,2.01-4.76c.04-.42-.04-.94-.21-1.53-.35-1.21-1.06-2.7-1.8-4.16-.52-1.03-1.06-2.04-1.5-2.94-1.37-2.81-2.38-3.81-5.79-5.84.19-.14.38-.27.57-.41.63-.44,1.25-.89,1.88-1.35.57-.41,1.13-.83,1.7-1.25.46-.33.92-.67,1.37-1.01,1.59-1.17,3.16-2.35,4.69-3.5,2.37-1.78,4.66-3.48,6.75-4.98,4.14-2.95,6.65-5.51,7.39-7.44"/>
          <path class="st2" d="M95.64,84.13s-1.46,8.62-1.21,9.68"/>
          <path class="st2" d="M97.47,86.82s-1.09,3.22-.81,7.6"/>
          <line class="st2" x1="67.33" y1="59.1" x2="68.24" y2="56.52"/>
          <polyline class="st2" points="50.45 73.71 51.26 77.34 51.61 78.97"/>
          <path class="st4" d="M51.26,77.34c1.66.45,2.87,1.85,2.44,3.64-.03.14-.07.27-.14.38-.1.14-.24.26-.38.35-3.15,2.27-7.18,2.94-10.42,5.1-3.01,2.01-5.46,4.77-6.12,6.49"/>
          <path class="st2" d="M34.4,93.4h0c1.84-2.6,4.78-6.61,8.71-8.45,1.4-.65,6.68-2.68,7.69-3.45.61-.45,1.71-2.36.8-2.54"/>
          <path class="st4" d="M38.65,93.1c2.13-2.65,4.32-4.94,7.39-6.45.92-.45,6.25-2.45,7.59-4.28.35-.49.43-.96.07-1.38"/>
          <path class="st4" d="M41.3,92.66s.02-.02.02-.03c1.04-1.75,2.6-3.16,4.36-4.2,3.56-2.14,6.45-3.26,7.47-4.38.38-.42.88-1.13.48-1.68h0"/>
          <path class="st2" d="M45.03,91.67c.63-1.41,3.3-3.88,6.14-4.43"/>
          <path class="st2" d="M93.34,80.98c-.02-.68-.04-1.37-.06-2.05-.02-.62-.03-1.24-.04-1.86,0-.61-.02-1.22-.02-1.83s0-1.21.02-1.81c0-.59.02-1.19.04-1.78.1-3.34.42-6.57,1.12-9.61.14-.59.35-1.23.62-1.9,2.4-5.96,9.65-14.68,12.78-16.28"/>
          <path class="st2" d="M90.82,50.88c1.01,3.68,2.46,7.1,4.2,9.27"/>
          <path class="st2" d="M92.25,33.47s-3.49,5.81-2.68,11.44c.28,1.96.71,4,1.25,5.97"/>
          <path class="st2" d="M90.82,50.88h0s0,0,0,0c1.99-2.12,4.38-4.11,6.84-5.68,2.51-1.61,5.07-2.79,7.32-3.24"/>
          <path class="st2" d="M50.46,73.31c.02.14.02.27,0,.39h0c-.16.93-1.39,1.86-3.37,2.58-8.42,2.39-16.48,10.83-19.03,16.72"/>
          <path class="st2" d="M70.63,44.9c-1.31,2.55-2.2,4.63-2.36,5.01-.02.04-.03.06-.03.06-3.06.2-8.01,2.15-12.94,4.61-6.37,3.18-12.67,7.22-14.68,9.44-3.72,4.28-.29,5.48,4.92,6.7.29.07.59.14.88.21.39.09.74.18,1.07.28.72.22,1.3.46,1.75.72.75.43,1.13.9,1.22,1.37"/>
          <path class="st2" d="M102.51,38.47c.96,1.29,1.65,2.51,2.48,3.48.74.87,1.58,1.54,2.81,1.91.63.19,1.35.31,2.22.32,2.6.05,5.65-1.23,8.46-2.96,2.03-1.25,3.94-2.72,5.47-4.1,1.57-1.41,3.07-2.67,4.27-4.04.62-.71,1.15-1.44,1.58-2.25.68-1.29,1.07-2.78,1.04-4.61-.09-5.18-1.52-5.09-1.52-5.09-.72-3.75-3.49-6.16-8.66-6.08-5.18.1-13.31,3.75-17.51,5.81-4.2,2.05-9.47,4.2-15.27,7.5s-10.54,5.8-13.75,10.54c-1.06,1.56-2.06,3.29-2.92,4.91-.19.36-.38.72-.55,1.06"/>
          <path class="st2" d="M55.3,54.58c3.8-5.45,6.38-6.5,15.9-10.75"/>
          <path class="st2" d="M107.09,78.34s1.08-8.51,3.01-13.04c1.95-4.52,8.25-13.4,11.11-15.34,2.15,3.54,3.46,6.55,3.46,6.55-5.71,5.57-8.77,8.78-10.46,11.4-1.69,2.62-2.43,6.92-2.43,6.92"/>
          <polyline class="st2" points="124.67 56.52 125.92 62.4 125.92 62.41"/>
          <path class="st2" d="M127.42,67.57s1.55,4.52,4.89,10.46c.7,1.25,1.49,2.56,2.35,3.91,1.03,1.61,2.19,3.27,3.46,4.93.47.61.95,1.24,1.43,1.86.82,1.08,1.66,2.17,2.52,3.29,6.67,8.53,14.76,17.79,25.22,21.73"/>
          <path class="st2" d="M115.88,95.31c1.29-.24,4.44-5.22,8.78-5.71s9.05-1.24,11.08-.62"/>
          <path class="st2" d="M129.77,30.85s0,0,.02,0c.73-.32,24.15-10.67,26.85-11.03-3.21,2.01-4.07,4.15-4.53,5.52s-1.54,5.09-5.34,9.48c-3.81,4.39-3.69,7.62-2.97,8.57"/>
          <path class="st2" d="M190.51,37.45c.02.08.06.15.09.23.41,1.02.86,2.01,1.37,2.97.52.99,1.1,1.95,1.74,2.87,1.5,2.17,4.2,3.79,6.47,5.08,2.58,1.48,5.07,2.3,7.42.03,1.01-.97,1.32-3.02,1.32-5.47,0-.82-.04-1.69-.09-2.58l-.1-1.33c-.05-.6-.1-1.2-.15-1.8,0-.11-.02-.22-.02-.33-.04-.4-.08-.8-.11-1.2-.28-3.33-.47-6.36.23-7.77.19-.38.43-.73.72-1.05,2.46-2.72,8.4-3.42,14.99-1.09,7.39,2.62,12.39,6.78,12.39,6.78"/>
          <path class="st2" d="M180.29,20.52c-.39,1.78-.61,3.4.28,3.82,1.83.87,4.26-5.3,6.38-5.41.22-.02.43.03.65.17,1.25.79.93,2.39.5,4.13-.35,1.41-.77,2.93-.5,4.2.71,3.4,1.62,6.78,2.91,10.01"/>
          <path class="st2" d="M148.74,46.81c1.82-3.56,4-7.88,6.06-11.99.43-.85.85-1.7,1.26-2.52,1.02-2.04,1.98-3.97,2.81-5.65,1.6-3.21,2.75-5.51,3.01-6,.08-.14.15-.29.23-.43.8-1.49,1.46-2.49,2.47-.72.05.1.1.19.16.31,1.19,2.39,2.56,7.02,2.56,7.02,2.6-4.61,5.35-8.36,7.91-10.41,1.94-1.54,3.77-2.12,5.36-1.36.93.72.2,3.21-.27,5.44"/>
          <path class="st2" d="M118.48,41.23c.24.96.4,2.09.69,3.21.08.34.17.67.28,1,.1.33.23.66.38.97.14.31.31.62.49.91.18.27.37.54.6.78.36.4.8.76,1.34,1.05,1.29.72,3.09,1.07,5.67.81,0,.51.02,1.02.06,1.53.33,5.34,2.44,10.67,6.14,10.91,4.04.27,7.97-3.78,10.83-8.54.72-1.21,2.1-3.8,3.76-7.05"/>
          <path class="st2" d="M224.03,37.45c4.15-1.52,8.64-3.12,12.8-4.5,5.91-1.96,11.12-3.5,13.65-3.72,3.93,5.84,9.77,15,9.77,15l-1.23.3"/>
          <path class="st2" d="M219.57,39.09c.79-.3,1.6-.6,2.44-.91.66-.24,1.33-.49,2.01-.74"/>
          <path class="st2" d="M217.19,39.99c.76-.29,1.55-.59,2.38-.89"/>
          <path class="st2" d="M208.92,43.15s3.38-1.33,8.26-3.17"/>
          <path class="st2" d="M203.86,52.78c1.37-.28,22.43-4.67,32.91-5.94,7.68-.93,17.26-1.86,22.21-2.31,0,0,.02,0,.02,0,2.02-.18,3.25-.3,3.25-.3l1.95,2.31.07.08"/>
          <path class="st2" d="M203.79,52.8s.02,0,.06-.02"/>
          <polyline class="st2" points="212.29 70 216.5 68.09 224.73 64.37 264.2 46.53 266.23 45.61 275.34 48.51 269.48 50.89 216.4 72.5 201.91 66.77 187.65 61.14 187.46 61.07"/>
          <polyline class="st2" points="193.64 58.38 211.14 65.82 216.5 68.09"/>
          <line class="st2" x1="211.14" y1="65.82" x2="224.73" y2="64.37"/>
          <path class="st2" d="M240.42,63.24s28.81-2.93,41.01-.81c1.25.21,2.31.48,3.17.81,1.66,4.65,3.69,17.03,3.69,17.03"/>
          <path class="st2" d="M269.48,50.89s11.16,8.48,11.94,11.53"/>
          <path class="st2" d="M139.55,88.74l35.61-20.65s15.87-.19,26.74-1.32"/>
          <polyline class="st2" points="149.22 95.31 183.98 77.75 231.4 77.75 288.25 80.86 290.43 80.98 290.43 98.3"/>
          <path class="st2" d="M99.38,80.93s-.09-28.37,19.78-36.48"/>
          <path class="st4" d="M119.83,46.42c-16,10.88-15.86,27.11-17.27,33.72l-.41,1.81"/>
          <path class="st4" d="M100.97,80.75c.72-3.34.61-25.78,18.48-35.31"/>
          <line class="st2" x1="100.97" y1="80.76" x2="100.97" y2="80.75"/>
          <path class="st4" d="M120.32,47.32c-14.23,12.21-14.05,22.5-16.18,32.42l-.11.85"/>
          <path class="st2" d="M105.73,79.35c2.85-13.29,2.64-17.6,15.2-31.25"/>
          <path class="st2" d="M83.06,36.65c.66,10.35,2.01,18.89,3.71,23.49,2.06,5.55,4.18,9.63,6.51,11.52"/>
          <path class="st4" d="M81.49,37.51c.23,2.77.63,6.16.98,8.62.92,6.62,2.11,12.07,3.84,16,2.2,5.06,4.46,9.03,6.93,11.3l.04.04"/>
          <path class="st4" d="M79.93,38.27c.31,3.09.88,6.71,1.36,9.52,1.09,6.35,2.39,11.98,4.57,16.33,2.31,4.61,4.77,8.44,7.38,11.12.02.02.04.04.06.06"/>
          <path class="st4" d="M93.28,77.12s-.02-.02-.04-.04c-2.76-3.05-5.47-6.75-7.85-10.96-2.68-4.74-4.07-10.57-5.29-16.65-.65-3.2-1.38-6.84-1.74-10.28"/>
          <path class="st2" d="M76.81,40.16h0c.34,3.89,1.25,7.26,2.11,10.96,1.36,5.83,2.78,11.88,6.02,16.98,2.42,3.83,5.43,7.38,8.35,10.83"/>
          <path class="st2" d="M79.93,38.27c1-.56,2.05-1.1,3.13-1.62h0c4.2-2.03,8.99-3.72,14.9-5.4.47-.14.94-.27,1.42-.4,13.28-3.65,20.16-7.04,24.89-5.88,3.93.98,4.2,1.96,4.2,1.96.09,1.88,1.18,4.11-.26,6.16"/>
          <line class="st4" x1="79.93" y1="38.27" x2="79.93" y2="38.27"/>
          <path class="st2" d="M70.63,44.9h0c2.01-1.78,4.03-3.33,6.16-4.73.51-.34,1.03-.67,1.56-.99.51-.31,1.03-.61,1.56-.91"/>
          <path class="st2" d="M115.88,29.7s1.86,2.11,2.6,3.68"/>
          <path class="st2" d="M120.92,35.9s1.45.91,1.78,1.47"/>
          <path class="st2" d="M121.33,34.1s-3.47,4.77-4.15,5.18c-.68.41-1.21.47-1.57,0"/>
          <path class="st2" d="M111.68,39.62c.42.5,1.19,1.33,1.9,1.45"/>
          <line class="st2" x1="123.04" y1="26.69" x2="124.87" y2="28.16"/>
          <line class="st2" x1="126.57" y1="30.85" x2="127.46" y2="32.54"/>
          <path class="st2" d="M128,51.49c7.23-.14,20.33-4.54,20.74-4.68h0"/>
          <path class="st2" d="M122.27,49.16c2.93-1.7,18.55-5.06,21.52-5.77.27-.06.43-.11.47-.13,3.34-1.19,5.96-4.03,10.54-8.44"/>
          <path class="st2" d="M146.76,34.82c1.07,1.05,5.62-.39,9.3-2.52"/>
          <path class="st2" d="M156.64,19.81c.45.1,1.17.63,1.7,1.62.61,1.12,1,2.84.54,5.22"/>
          <line class="st2" x1="158.34" y1="21.43" x2="162.11" y2="20.22"/>
          <path class="st2" d="M164.57,19.51s6.82-2.74,10.63-3.08h.02"/>
          <path class="st2" d="M180.29,20.52h0c.22-.1,3.71-1.66,6.65-1.6"/>
          <path class="st2" d="M190.5,37.45h0c.51-.31,16.5-10.18,18.89-10.35"/>
          <path class="st2" d="M191.94,40.63s.02,0,.02.02c5.07,2.9,12.01,4.86,13.98,3.88,1.96-.99,2.64-7.08,2.64-7.08"/>
          <path class="st2" d="M128.78,66.16s0,0,.02,0c.27.08,4.83,1.56,10.11,1.4,5.45-.17,10.89-4.49,17.16-10.79s23.41-32.05,23.41-32.05c0,0,1.33,3.04,1.1,4.68"/>
          <path class="st2" d="M132.69,68.06c-1.33-.49-2.63-1.13-3.9-1.89"/>
          <path class="st2" d="M188.1,23.23c-1.53-.87-4.93,3.59-7.52,6.18h0c-.1.1-.19.19-.29.29-2.62,2.53-22.93,33.19-31.07,37.08-6.39,3.04-11.69,3.09-16.52,1.29"/>
          <path class="st2" d="M128.22,63.24c8.84,1.08,9.02,2,14.19-1.58,5.18-3.58,18.17-14.89,27.48-36.92,1.1,2.26,1.17,3.75,1.17,3.75"/>
          <path class="st2" d="M162.13,100.63c2.07.62,4.16,1.16,6.24,1.62,1.75.38,3.5.7,5.24.95,2.79.4,5.41.99,7.77,1.65,1.66.47,3.18.96,4.56,1.46,1.61.57,3,1.14,4.13,1.64,2.08.91,3.28,1.58,3.28,1.58"/>
          <path class="st2" d="M159.45,99.79c.88.29,1.78.57,2.67.84"/>
          <path class="st2" d="M142.09,92.02c2.11,1.25,4.45,2.48,6.96,3.65,3.25,1.51,6.76,2.92,10.4,4.12"/>
          <path class="st2" d="M120.32,102.36s6.56,4.6,17.52,6.5c2.02.35,4.18.6,6.48.73,2.68.14,4.55.5,4.89,1.74.34,1.25-1.03,2.76-1.69,3.29"/>
          <path class="st2" d="M127.42,100.63s2.39,3.74,10.42,8.24"/>
          <path class="st2" d="M122.41,93.43c-1.29,1.66-7.37,4.88-10.23,6.48-.55.31-.97.55-1.23.72-1.61,1.04-3.19,2.14-2.08,6.77,1.06,4.47,4.11,12.96,4.31,13.53.02.02.02.03.02.03"/>
          <path class="st2" d="M144.32,112.91s-1.4-1.51-3.18-1.84c-1.78-.32-8.66,2.11-13.72,4.61-5.06,2.5-9.32,6.42-13.21,8.04h0,0c.1.14,1.41,1.86,2.99,3.85,2.25,2.84,5.06,6.25,5.72,6.51,1.17.45,4.91,6.08,4.91,6.08,0,0,12.06-6.79,15.37-10.45,2.87-3.18,9.48-9.15,12.22-8.67.42.07.75.29.96.69.41.85.25,1.58-.21,2.25-1.15,1.69-4.16,3.01-4.67,4.93-.72,2.68.44,4.02,3.75,3.3,3.3-.72,18.84-4.73,29.83-3.13,10.98,1.61,17.5,3.93,18.21,8.21.11.68.19,1.21.22,1.62.15,2.23-1.22,1.25-7.54,1.86-2.61.25-5.63.53-8.5.79-5.38.49-10.27.91-11.14.91s-2.76-.95-3.16-2.13c-.25-.74.11-1.58,1.73-2.33,4.2-1.97,8.58-4.38,3.21-5.71-3.98-1-9.56-.59-14.47.47-1.7.37-3.34.81-4.78,1.31-1.92.65-4.75,1.59-7.86,2.56-4.64,1.43-9.91,2.91-13.78,3.54-1.37.23-2.57.35-3.5.33-5.45-.15-5.9-.35-5.9-.35"/>
          <path class="st2" d="M149.83,118.33s.48.05,1.17.19c.89.19,2.13.55,3.11,1.16.56.35,1.04.8,1.31,1.35"/>
          <path class="st2" d="M122.92,134.08s-.3-2.35,2.09-3.66c2.38-1.31,10-5.53,11.78-7.85s11.32-6.37,12.43-6.2c1.09.18,1.87,1.05,1.78,2.16"/>
          <path class="st4" d="M121.49,132.45c.52-.63.5-2.6,2.72-3.73,2.21-1.13,8.95-4.77,11.1-7.05,2.15-2.28,10.49-6.17,11.81-6.16.31.03.75.11,1.15.26.42.14.8.35.95.6"/>
          <path class="st4" d="M120.06,130.82c1.04-1.29,1.29-2.85,3.34-3.8,2.05-.95,7.9-4.01,10.41-6.24s9.66-6.05,11.22-6.14c.68-.04,1.34.05,1.88.21.7.21,1.21.54,1.36.9"/>
          <path class="st4" d="M118.63,129.19c1.57-1.92,2.07-3.09,3.97-3.87,1.89-.77,6.86-3.26,9.72-5.45,2.87-2.19,8.82-5.88,10.62-6.11,1.33-.16,2.63.28,3.39.69.27.14.47.28.59.39"/>
          <path class="st2" d="M117.19,127.57c2.09-2.57,2.87-3.34,4.6-3.94,1.72-.59,5.8-2.5,9.03-4.65,3.22-2.14,8.03-5.53,10.01-6.08,1.09-.31,2.4-.23,3.46.05,1.28.32,2.21.93,2.02,1.5"/>
          <path class="st2" d="M170.33,94.49c.5-.37.96-.72,1.37-1.01,3.09-2.26,15.76-12.39,15.76-12.39,0,0,8.05,4.29,8.41,4.77.36.47.12,2.03-.72,3.69-.08.16-.18.38-.28.63-1.07,2.51-3.46,9.25-3.88,10.44-.22.59-.42,2.09-.58,3.58-.19,1.85-.32,3.68-.32,3.68"/>
          <path class="st2" d="M162.12,100.63h0c.17-.13,4.93-3.71,8.18-6.12"/>
          <path class="st2" d="M185.95,106.3s.48-2.11,1.09-4.92c1.08-5.02,2.54-12.27,2.31-13.68"/>
          <path class="st2" d="M168.38,102.24s10.47-7.87,13.45-10.22c1.59-1.26,4.59-3.01,7.52-4.32,2.54-1.14,5.03-1.95,6.53-1.84"/>
          <polyline class="st2" points="159.45 99.79 159.45 99.79 170.31 94.5 170.33 94.49"/>
          <path class="st2" d="M194.87,90.19s34.46,1.2,44.94,1.83c10.47.63,37.74,3.05,44.41,5.79"/>
          <path class="st2" d="M245.89,97.43s-3.05,3.01-6.33,6.24c-3.09,3.02-6.38,6.24-7.6,7.37-2.5,2.34-6.1,4.52-6.1,4.52"/>
          <path class="st2" d="M222.94,112.46s5.8-3.04,7.11-4.57c.56-.66,2.34-2.68,4.32-4.78,2.64-2.78,5.66-5.69,6.75-5.69,0,0,1.87,0,4.76,0,9.07.03,28.17.08,30.61,0,1.19-.04,4.3.14,7.74.39,2.06.15,4.24.33,6.2.49,3.58.3,6.42.55,6.42.55l-5.47,5.23-1.9-.18-45.61-4.23"/>
          <path class="st2" d="M239.55,103.66s10.23,2.96,17.7,5.18c3.26.97,5.99,1.8,7.1,2.19.37.13.81.28,1.32.46,2.36.82,6.02,2.1,8.99,3.13,2.76.96,4.93,1.72,4.93,1.72l9.89-12.43"/>
          <line class="st2" x1="181.4" y1="104.82" x2="187.02" y2="101.38"/>
          <path class="st2" d="M190.99,100.63l9.27-2.82s7.68,1.29,12.41,2.28c.94.19,1.77.38,2.39.54,3.75.97,19.32,2.48,19.32,2.48"/>
          <path class="st2" d="M233.36,141.89c2.56.96,4.96.54,6.2-2.96.29-.84.59-1.7.87-2.6.28-.88.56-1.79.83-2.72,2.11-7.15,3.87-14.88,4.64-16.29.43-.8,1.1-1.34,1.82-1.39.55-.04,1.11.19,1.62.8.34.38.64.91.91,1.61.41,1.08,1.53,2.79,2.95,4.58,2.34,2.94,5.51,6.08,7.73,6.93.55.2,1.05.27,1.46.16,8.93-2.44,10.48-14.34,12.27-15.38"/>
          <path class="st2" d="M228.61,138.92c1.25,1.05,2.61,2.02,3.97,2.65.26.12.51.23.77.32"/>
          <path class="st2" d="M201.91,121.03l18.08-9.44,3.05-1.59c-.02.8-.06,1.62-.09,2.45-.03,1-.08,2.02-.12,3.04-.29,7.44-.51,14.97,1.32,18.56.18.35.37.68.59.95.67.84,1.63,1.89,2.76,2.93.35.33.72.66,1.11.98"/>
          <path class="st2" d="M187.46,141.57c6.52,2,20.27,2.9,27.77,2.54,7.5-.35,13.26-.62,17.34-2.54h0"/>
          <path class="st2" d="M200.52,114.54c.27.47.48.93.66,1.39.2.53.34,1.05.43,1.55.49,2.61-.26,4.66-.26,4.66"/>
          <path class="st2" d="M154.11,119.68c4.94-.51,11.02-.3,18.22-3.05.23-.09.47-.18.7-.27,5.4-2.19,12.16-6.35,17.96-6.81.8-.06,1.59-.06,2.35.04,1.37.17,2.68.62,3.85,1.44,1.57,1.09,2.62,2.3,3.33,3.5"/>
          <path class="st2" d="M190.99,109.56s7.76,6.62,8.11,9.36c-2.56-4.2-26.77-2.29-26.77-2.29"/>
          <path class="st4" d="M156.64,122.72c4.36-.1,8.88-1.25,14.6-1.99s16.58-.78,20.09-.04c4.45.94,8.01.83,10.46,5.82l.12.24s.61,1.69,0,2.44c-2.32-6.04-14.48-7.64-21.26-7.72-6.79-.08-16.56,2.81-24.48,2.51"/>
          <path class="st4" d="M156.38,121.72c12-1.56,15.49-2.56,19.42-2.8,3.93-.24,11.46-.57,15.2,0,3.58.54,8.15,1.73,9.94,4.17.08.11.15.23.23.34,0,0,.93,2.19.63,3.08"/>
          <path class="st4" d="M200.93,121.47c-2.01-1.87-6.52-3.81-10.41-4.03-3.88-.23-13.17.27-17.32.67-4.16.4-12.68,1.87-17.79,2.72"/>
          <path class="st2" d="M199.1,118.93s1.56,1.63,1.83,2.54c0,0,.35.87,0,1.63"/>
          <path class="st2" d="M118.63,138.88s-2.95,3.36,6.04,7.76c3.44,1.69,6.98,2.71,10.02,3.34,4.75.96,8.33.95,8.55.95"/>
          <path class="st2" d="M146.01,140.49c-1.83.19-4.62.22-8.78-.31-.09,0-.18-.02-.27-.03"/>
          <path class="st2" d="M163.66,132.82s6.17,6.39,9.51,7.51c0,0-2.95.47-4.79,1.23-1.83.76-7.33,4.95-8.85,5.91-1.53.95-3.13.59-3.15-1.08-.02-1.66,3.71-4.28,3.07-4.83-.11-.1-.31-.12-.59-.1-1.31.12-4.2,1.49-5.67,2.72-1.78,1.47-6.43,5.3-7.98,6.74-.75.69-1.47.57-1.95,0h0c-.52-.6-.78-1.72-.54-2.92.47-2.25,6.14-8.01,6.49-8.37l.02-.02s0,0-.02.02c-.11.08-.91.6-3.18.85"/>
          <path class="st2" d="M120.64,137.44s4.08,4.62,9.09,5.39c5,.77,11.49.31,16.28-2.34,0,0,0,0,0,0"/>
          <path class="st2" d="M104.62,144.69s12.09,8.08,30.07,5.29c.03,0,.07,0,.1-.02"/>
          <path class="st2" d="M145.2,150.92s13.56-.25,17.67-.92c.96-.15,2.53-.37,4.42-.6,6.1-.76,15.52-1.78,18.79-1.99,4.29-.27,7.33-.98,7.33-.98"/>
          <path class="st2" d="M167.3,149.4s3.21,3.45,11.77,3.45,31.79-.39,39.88-1.44c2.74-.36,5.21-.95,7.41-1.66,4.31-1.39,7.57-3.22,9.77-4.65,1-.64,1.95-1.17,2.74-1.49,1.5-.61,2.51-.55,2.51.58,0,.25-.05.55-.15.92-.6,2.06-1.29,3.85-.88,5.1.14.49.47.89,1.03,1.21.99.54,2.6-.13,4.28-1.29,1.68-1.17,3.42-2.85,4.62-4.29.84-1,1.81-2.02,2.76-2.94,1.75-1.69,3.5-3.07,4.49-3.61,1.55-.83,3.46-1.07,1.43,1.67-2.03,2.73-2.97,3.95-3.09,5.49-.07.88.14,1.96.78,2.4.47.34,1.18.31,2.19-.39,2.39-1.66,16.32-13.1,17.15-16.07.83-2.97,2.03-5.24-2.74-3.93-3.56.98-6.98,1.76-10.67,3.97-1.25.76-2.53,1.67-3.86,2.82-5.24,4.52-7.03,5.92-10.25,7.24-3.21,1.33-4.6-.93-2.6-4.15,1.08-1.73,1.33-2.91.91-3.44-.35-.46-1.21-.44-2.48.1-2.74,1.19-3.9,1.34-3.9,1.34"/>
          <path class="st2" d="M246.8,134.88s10.12-3.02,15.79-2.48"/>
          <path class="st2" d="M241.25,133.61s15.66-1.31,19.68-3.77c0,0,0,0,0,0"/>
          <path class="st2" d="M226.36,149.75s10.7,1.29,13.98.45"/>
          <path class="st2" d="M226.01,149.75s3.23-4.35,5.55-6.58c.73-.71,1.38-1.21,1.79-1.28h0"/>
          <path class="st2" d="M231.56,143.17s5.18.71,7.31.44"/>
          <path class="st2" d="M241.38,144.19s5.76.12,11.66-1.31"/>
          <path class="st2" d="M132.69,68.06h0c.1.17,1.4,2.37,4.44,3.72,1.54.68,3.51,1.14,6.01,1.01.76-.04,1.58-.14,2.44-.3,2.7-.51,6.47-2.2,10.48-4.37,10.04-5.42,21.56-13.78,21.56-13.78"/>
          <path class="st2" d="M156.06,68.12s3.74,5.09,24.22-3.75c2.71-1.17,5.15-2.24,7.36-3.23,2.23-1,4.21-1.91,5.98-2.76h0c4.82-2.3,8.06-4.07,10.22-5.6h0c2.21-1.57,3.28-2.85,3.74-4.16"/>
          <line class="st2" x1="134.67" y1="81.95" x2="143.14" y2="72.79"/>
          <line class="st2" x1="132.31" y1="78.03" x2="137.13" y2="71.78"/>
          <line class="st2" x1="110.45" y1="80.76" x2="108.87" y2="91.14"/>
          <path class="st2" d="M110.67,95.31s4.65-17.02,6.07-18.74c0,0,.02,0,.02-.02"/>
          <path class="st2" d="M112.18,99.91c.45-3.3,3.21-9.17,9.64-15.48"/>
          <path class="st2" d="M201.91,129.19c1.54,4.28,2.68,5.62,1.62,9.73"/>
          <path class="st2" d="M151,136.63s8.96,2.28,12.62,1.57"/>
          <path class="st2" d="M149.22,139.62s.49,1.6,9.64,1.86"/>
          <path class="st2" d="M228.6,138.92h0c.23-.11,4.49-2.08,5.77-6.09,1.31-4.12,4.49-16.99,4.49-16.99h.68s8.16.1,8.16.1"/>
          <polyline class="st2" points="222.82 115.5 225.86 115.57 230.25 115.67"/>
          <path class="st2" d="M224.14,134.05c2.3-3.43,3.69-7.44,4.36-11.5.23-1.33.55-4.87,1.75-6.88.56-.93,1.32-1.54,2.34-1.43l.59.22"/>
          <path class="st4" d="M233.18,114.46c.3-.18.63-.26.97-.22l.74.19"/>
          <path class="st2" d="M233.17,114.46h0"/>
          <path class="st4" d="M224.97,135.03c1.14-1.39,2.09-2.94,2.84-4.6,1.04-2.31,1.66-4.79,2.1-7.27.13-.72.27-1.76.49-2.89.29-1.45.68-3,1.36-4.22.34-.6.82-1.25,1.41-1.59"/>
          <path class="st4" d="M236.44,114.51l-.72-.27c-.29-.04-.57.04-.84.2-.67.39-1.22,1.29-1.55,1.88-.73,1.33-1.14,2.89-1.46,4.42-.23,1.1-.39,2.16-.55,3.01-.48,2.61-1.1,5.22-2.27,7.61-.83,1.72-1.93,3.29-3.24,4.64"/>
          <path class="st4" d="M226.65,136.96c1.49-1.29,2.74-2.89,3.66-4.66,1.29-2.48,1.9-5.22,2.43-7.96.18-.96.38-2.04.62-3.13.36-1.62.79-3.18,1.57-4.62.29-.52.85-1.58,1.52-2.08.27-.2.55-.31.85-.27l.86.43.05.02"/>
          <path class="st4" d="M227.49,137.94c1.67-1.25,3.07-2.86,4.07-4.69,1.95-3.56,2.35-7.67,3.27-11.56.4-1.7.85-3.28,1.67-4.83.27-.49.92-1.58,1.65-2.19.23-.21.47-.35.72-.43.36-.03.97.8.68,1.59"/>
          <path class="st2" d="M253.19,122.91c3.93-.58,12.47-6.48,12.48-11.42"/>
          <path class="st4" d="M252.23,121.36c3.45-.53,11.28-6.04,11.34-10.53"/>
          <path class="st4" d="M251.26,119.82c2.97-.49,10.08-5.61,10.2-9.64"/>
          <path class="st4" d="M250.3,118.28c2.49-.45,8.89-5.18,9.06-8.76"/>
          <path class="st2" d="M249.34,116.73c2.01-.4,7.69-4.74,7.92-7.88"/>
          <path class="st2" d="M200.52,114.54h0c.34-.24,11.17-7.92,12.16-10.34l.43,3.19"/>
          <path class="st2" d="M201.18,115.93s8.06-5.38,11.94-8.54c1.09-.89,1.85-1.6,2-1.96l.59,2.7"/>
          <path class="st2" d="M201.62,117.48s9.91-6.36,14.1-9.35c1.07-.76,1.76-1.3,1.83-1.47l.2,2.61"/>
          <polyline class="st2" points="201.91 119.12 217.75 109.27 219.98 107.88 219.98 111.6"/>
          <path class="st2" d="M190.42,104.2s6.91-2.64,9.17-2.82c2.21-.16,12.58-1.25,13.08-1.29,0,0,.02,0,.02,0"/>
          <path class="st2" d="M97.47,44.9c-.9-4.5-1.57-10.89.49-13.65"/>
          <path class="st2" d="M45.53,70.72c2.78-3.02,11.07-10.26,20.8-13.01"/>
          <line class="st2" x1="65.06" y1="59.83" x2="65.07" y2="59.83"/>
          <path class="st4" d="M47.49,71.21c2.77-2.85,9.29-9.05,17.58-11.38"/>
          <line class="st2" x1="63.77" y1="62" x2="63.78" y2="62"/>
          <path class="st4" d="M49.24,71.93c2.95-2.97,7.18-7.79,14.53-9.93"/>
          <path class="st4" d="M50.46,73.3c3.03-2.94,7.64-7.92,13.82-9.74"/>
          <line class="st2" x1="50.46" y1="73.31" x2="50.46" y2="73.3"/>
          <line class="st4" x1="50.45" y1="73.31" x2="50.46" y2="73.31"/>
          <path class="st2" d="M51.03,75.02c3.12-2.92,8.48-8.29,13.48-9.8"/>
          <path class="st2" d="M39.74,137.12l-2.14,4.36s2.33-.35,5.77-1.01c7.24-1.41,19.38-4.3,24.86-8.52h0"/>
          <path class="st2" d="M43.39,140.55l-.64,4.14s2.05-.56,5.09-1.52c5.8-1.83,15.2-5.12,20.74-8.69"/>
          <path class="st2" d="M47.83,143.17l-1.41,3.97s1.45-.5,3.59-1.28c5.26-1.9,14.76-5.48,17.47-7.52"/>
          <path class="st2" d="M50.01,145.87l-.57,4.01s15.13-6.21,17.16-8.41"/>
          <path class="st2" d="M208.44,35.92c2.35-1.84,11.61-1.84,15.58,1.53h0"/>
          <path class="st2" d="M208.82,40.57h0c.23-.12,4.96-2.5,8.35-.59h0"/>
          <line class="st2" x1="219.57" y1="39.09" x2="219.57" y2="39.09"/>
          <path class="st4" d="M208.73,39.25s4.2-3.06,10.83-.15"/>
          <path class="st4" d="M208.55,37.12h0c.28-.14,5.75-2.88,13.45,1.07"/>
          <path class="st2" d="M245.65,150.11h0c.27,0,6.01-.19,10.99-1.28"/>
        </g>
      </g>
    </g>
  </g>
</svg>