<?xml version="1.0" encoding="utf-8"?>
<!-- Generator: Adobe Illustrator 28.2.0, SVG Export Plug-In . SVG Version: 6.00 Build 0)  -->
<svg version="1.1" id="レイヤー_1" xmlns="http://www.w3.org/2000/svg" xmlns:xlink="http://www.w3.org/1999/xlink" x="0px"
	 y="0px" viewBox="0 0 270.4 185.7" style="enable-background:new 0 0 270.4 185.7;" xml:space="preserve">
<style type="text/css">
	.st0{fill:#F3EDD7;}
	.st1{fill:#333333;}
	.st2{fill:#D2D296;}
	.st3{fill:none;stroke:#000000;stroke-miterlimit:10;}
	.st4{clip-path:url(#SVGID_00000012460214805032843460000015674935572543350933_);}
	.st5{fill:#FDFDD9;}
	.st6{fill:#DAD47E;}
	.st7{fill:#FF3E34;}
	.st8{fill:#C298BC;}
	.st9{fill:#F7E9D0;}
	.st10{fill:none;stroke:#000000;stroke-linecap:round;stroke-linejoin:round;stroke-miterlimit:10;}
	.st11{fill:#EF6662;stroke:#333333;stroke-width:0.5;stroke-miterlimit:10;}
	.st12{fill:none;stroke:#000000;stroke-width:0.5;stroke-linecap:round;stroke-linejoin:round;stroke-miterlimit:10;}
</style>
<g id="_畳">
	<path class="st0" d="M0.2,151h3.6v5H0.2V151z M270.1,178.6v6.6h-30.4l15.4-8.6c1,1.6,3.1,2.7,5.5,2.7s4.6-1.2,5.6-2.9L270.1,178.6
		L270.1,178.6z M270.1,168.1v10.6l-4-2.2c0.4-0.6,0.6-1.4,0.6-2.1c0-1.3-0.6-2.5-1.6-3.4L270.1,168.1L270.1,168.1z M270.1,156.1v12
		l-5,2.8c-1.1-1-2.8-1.6-4.6-1.6s-3.3,0.6-4.4,1.5L230,156.1L270.1,156.1L270.1,156.1z M270.1,77.2V83H0.2v-5.8H270.1z"/>
	<path class="st0" d="M266.2,151h4v5h-4V151z M266.8,174.2c0,0.8-0.2,1.5-0.6,2.1l-5.4-3.1l4.4-2.5
		C266.2,171.7,266.8,172.9,266.8,174.2z M260.8,173.3l5.4,3.1c-1,1.7-3.1,2.9-5.6,2.9s-4.5-1.1-5.5-2.7L260.8,173.3L260.8,173.3z"/>
	<path class="st1" d="M254.9,151h11.3v5h-11.3V151z"/>
	<path class="st0" d="M265.2,170.9l-4.4,2.5l-4.6-2.6c1.1-0.9,2.7-1.5,4.4-1.5C262.4,169.2,264,169.8,265.2,170.9L265.2,170.9z"/>
	<path class="st0" d="M260.8,173.3l-5.7,3.2c-0.4-0.7-0.7-1.5-0.7-2.3c0-1.4,0.7-2.6,1.8-3.5L260.8,173.3L260.8,173.3z"/>
	<path class="st0" d="M230,156.1l26.1,14.7c-1.1,0.9-1.8,2.1-1.8,3.5c0,0.8,0.2,1.6,0.7,2.3l-15.4,8.6h-41.5l-15.6-8.8
		c0.4-0.6,0.6-1.4,0.6-2.1c0-1.3-0.6-2.5-1.6-3.4l26.3-14.8H230z M224.1,174.2c0-2.8-2.2-5-5-5s-5,2.2-5,5s2.2,5,5,5
		S224.1,177,224.1,174.2z"/>
	<path class="st0" d="M254.9,156.1h-30.5v-5h30.5V156.1z"/>
	<path class="st1" d="M213,151h11.3v5H213V151z M219.1,169.2c2.8,0,5,2.2,5,5s-2.2,5-5,5s-5-2.2-5-5S216.3,169.2,219.1,169.2z"/>
	<path class="st0" d="M207.9,156.1l-26.3,14.8c-1.1-1-2.8-1.6-4.6-1.6s-3.3,0.6-4.4,1.5l-26.1-14.7H207.9z M182.5,156.1v-5H213v5
		H182.5z M198.2,185.2h-42.1l15.4-8.6c1,1.6,3.1,2.7,5.5,2.7s4.6-1.2,5.6-2.9L198.2,185.2L198.2,185.2z"/>
	<path class="st0" d="M183.2,174.2c0,0.8-0.2,1.5-0.6,2.1l-5.4-3.1l4.4-2.5C182.5,171.7,183.2,172.9,183.2,174.2L183.2,174.2z
		 M177.2,173.3l5.4,3.1c-1,1.7-3.1,2.9-5.6,2.9s-4.5-1.1-5.5-2.7L177.2,173.3L177.2,173.3z"/>
	<path class="st1" d="M171.2,151h11.3v5h-11.3V151z"/>
	<path class="st0" d="M176.9,169.2c1.8,0,3.5,0.6,4.6,1.6l-4.4,2.5l-4.6-2.6C173.6,169.8,175.2,169.2,176.9,169.2z"/>
	<path class="st0" d="M177.1,173.3l-5.7,3.2c-0.4-0.7-0.7-1.5-0.7-2.3c0-1.4,0.7-2.6,1.8-3.5L177.1,173.3L177.1,173.3z"/>
	<path class="st0" d="M146.4,156.1l26.1,14.7c-1.1,0.9-1.8,2.1-1.8,3.5c0,0.8,0.2,1.6,0.7,2.3l-15.4,8.6h-41.5l-15.7-8.8
		c0.4-0.6,0.6-1.4,0.6-2.1c0-1.3-0.6-2.5-1.6-3.4l26.3-14.8H146.4L146.4,156.1z M139.4,174.2c0-2.8-2.2-5-5-5s-5,2.2-5,5s2.2,5,5,5
		S139.4,177,139.4,174.2z"/>
	<path class="st0" d="M171.2,156.1h-30.5v-5h30.5V156.1z"/>
	<path class="st1" d="M129.4,151h11.3v5h-11.3V151z M134.4,169.2c2.8,0,5,2.2,5,5s-2.2,5-5,5s-5-2.2-5-5S131.6,169.2,134.4,169.2z"
		/>
	<path class="st0" d="M124.3,156.1l-26.3,14.8c-1.1-1-2.8-1.6-4.6-1.6s-3.3,0.6-4.4,1.5l-26.1-14.7H124.3z M129.4,156.1H98.8v-5
		h30.5V156.1z M114.6,185.2H72.5l15.3-8.6c1,1.6,3.1,2.7,5.5,2.7s4.6-1.2,5.6-2.9L114.6,185.2L114.6,185.2z"/>
	<path class="st0" d="M99.5,174.2c0,0.8-0.2,1.5-0.6,2.1l-5.4-3.1l4.4-2.5C98.9,171.7,99.5,172.9,99.5,174.2L99.5,174.2z
		 M93.5,173.3l5.4,3.1c-1,1.7-3.1,2.9-5.6,2.9s-4.5-1.1-5.5-2.7C87.8,176.5,93.5,173.3,93.5,173.3z"/>
	<path class="st1" d="M87.5,151h11.3v5H87.5V151z"/>
	<path class="st0" d="M93.3,169.2c1.8,0,3.5,0.6,4.6,1.6l-4.4,2.5l-4.6-2.6C90,169.8,91.6,169.2,93.3,169.2z"/>
	<path class="st0" d="M93.5,173.3l-5.7,3.2c-0.4-0.7-0.7-1.5-0.7-2.3c0-1.4,0.7-2.6,1.8-3.5L93.5,173.3L93.5,173.3z"/>
	<path class="st0" d="M62.8,156.1l26.1,14.7c-1.1,0.9-1.8,2.1-1.8,3.5c0,0.8,0.2,1.6,0.7,2.3l-15.3,8.6H30.8l-15.6-8.8
		c0.4-0.6,0.6-1.4,0.6-2.1c0-1.3-0.6-2.5-1.6-3.4l26.3-14.8H62.8L62.8,156.1z M54.3,174.2c0-2.8-2.2-5-5-5s-5,2.2-5,5s2.2,5,5,5
		S54.3,177,54.3,174.2z"/>
	<path class="st0" d="M87.5,156.1H57v-5h30.5V156.1z"/>
	<path class="st1" d="M45.7,151H57v5H45.7V151z M49.2,169.2c2.8,0,5,2.2,5,5s-2.2,5-5,5s-5-2.2-5-5S46.5,169.2,49.2,169.2z"/>
	<path class="st0" d="M45.7,156.1H15.2v-5h30.5V156.1z M30.8,185.2H0.2v-6.5l3.8-2.1c1,1.6,3.1,2.7,5.5,2.7s4.6-1.2,5.6-2.9
		L30.8,185.2L30.8,185.2z M15.7,174.2c0,0.8-0.2,1.5-0.6,2.1l-5.4-3.1l4.4-2.5C15.1,171.7,15.7,172.9,15.7,174.2L15.7,174.2z"/>
	<path class="st1" d="M3.9,151h11.3v5H3.9V151z"/>
	<path class="st0" d="M9.7,173.3l5.4,3.1c-1,1.7-3.1,2.9-5.6,2.9S5,178.2,4,176.5L9.7,173.3z M9.5,169.2c1.8,0,3.5,0.6,4.6,1.6
		l-4.4,2.5l-4.6-2.6C6.2,169.8,7.8,169.2,9.5,169.2z"/>
	<path class="st0" d="M9.7,173.3L4,176.5c-0.4-0.7-0.7-1.5-0.7-2.3c0-1.4,0.7-2.6,1.8-3.5L9.7,173.3L9.7,173.3z M0.2,168l4.8,2.7
		c-1.1,0.9-1.8,2.1-1.8,3.5c0,0.8,0.2,1.6,0.7,2.3l-3.8,2.1C0.2,178.7,0.2,168,0.2,168z"/>
	<path class="st2" d="M213,151H0.2V83h269.9V151H213L213,151z"/>
	<path class="st0" d="M0.2,156.1h40.2l-26.3,14.8c-1.1-1-2.8-1.6-4.6-1.6s-3.3,0.6-4.4,1.5L0.2,168C0.2,168,0.2,156.1,0.2,156.1z"/>
	<path class="st3" d="M270.1,185.2H0.2 M0.2,77.2h269.9 M0.2,83h269.9 M266.2,151h4 M224.3,151h30.5 M182.5,151H213 M140.7,151h30.5
		 M98.8,151h30.5 M57,151h30.5 M15.2,151h30.5 M0.2,151h3.6 M266.2,156.1h4 M224.3,156.1h30.5 M182.5,156.1H213 M140.7,156.1h30.5
		 M98.8,156.1h30.5 M57,156.1h30.5 M15.2,156.1h30.5 M0.2,156.1h3.6 M72.5,185.2l15.3-8.6l5.7-3.2l4.4-2.5l26.3-14.8"/>
	<path class="st3" d="M114.6,185.2l-15.7-8.8l-5.4-3.1l-4.6-2.6l-26.1-14.7 M139.4,174.2c0,2.8-2.2,5-5,5s-5-2.2-5-5s2.2-5,5-5
		S139.4,171.5,139.4,174.2z M224.1,174.2c0,2.8-2.2,5-5,5s-5-2.2-5-5s2.2-5,5-5S224.1,171.5,224.1,174.2z"/>
	<path class="st3" d="M97.9,170.9c1,0.9,1.6,2.1,1.6,3.4c0,0.8-0.2,1.5-0.6,2.1c-1,1.7-3.1,2.9-5.6,2.9s-4.5-1.1-5.5-2.7
		c-0.4-0.7-0.7-1.5-0.7-2.3c0-1.4,0.7-2.6,1.8-3.5c1.1-0.9,2.7-1.5,4.4-1.5C95.2,169.2,96.8,169.8,97.9,170.9L97.9,170.9z
		 M0.2,178.6l3.8-2.1l5.7-3.2l4.4-2.5l26.3-14.8"/>
	<path class="st3" d="M30.8,185.2l-15.6-8.8l-5.4-3.1l-4.6-2.6L0.2,168"/>
	<path class="st3" d="M14.1,170.9c1,0.9,1.6,2.1,1.6,3.4c0,0.8-0.2,1.5-0.6,2.1c-1,1.7-3.1,2.9-5.6,2.9S5,178.1,4,176.5
		c-0.4-0.7-0.7-1.5-0.7-2.3c0-1.4,0.7-2.6,1.8-3.5c1.1-0.9,2.7-1.5,4.4-1.5C11.3,169.2,13,169.8,14.1,170.9L14.1,170.9z
		 M156.1,185.2l15.4-8.6l5.7-3.2l4.4-2.5l26.3-14.8"/>
	<path class="st3" d="M198.2,185.2l-15.6-8.8l-5.4-3.1l-4.6-2.6l-26.1-14.7"/>
	<path class="st3" d="M181.5,170.9c1,0.9,1.6,2.1,1.6,3.4c0,0.8-0.2,1.5-0.6,2.1c-1,1.7-3.1,2.9-5.6,2.9s-4.5-1.1-5.5-2.7
		c-0.4-0.7-0.7-1.5-0.7-2.3c0-1.4,0.7-2.6,1.8-3.5c1.1-0.9,2.7-1.5,4.4-1.5C178.8,169.2,180.4,169.8,181.5,170.9L181.5,170.9z
		 M239.7,185.2l15.4-8.6l5.7-3.2l4.4-2.5l5-2.8"/>
	<path class="st3" d="M270.1,178.6l-4-2.2l-5.4-3.1l-4.6-2.6L230,156.1"/>
	<path class="st3" d="M265.2,170.9c1,0.9,1.6,2.1,1.6,3.4c0,0.8-0.2,1.5-0.6,2.1c-1,1.7-3.1,2.9-5.6,2.9s-4.5-1.1-5.5-2.7
		c-0.4-0.7-0.7-1.5-0.7-2.3c0-1.4,0.7-2.6,1.8-3.5c1.1-0.9,2.7-1.5,4.4-1.5C262.4,169.2,264,169.8,265.2,170.9L265.2,170.9z
		 M54.3,174.2c0,2.8-2.2,5-5,5s-5-2.2-5-5s2.2-5,5-5S54.3,171.5,54.3,174.2z M3.9,151h11.3v5H3.9L3.9,151z M45.7,151H57v5H45.7
		L45.7,151z M87.5,151h11.3v5H87.5L87.5,151z M129.4,151h11.3v5h-11.3V151z M171.2,151h11.3v5h-11.3V151z M213,151h11.3v5H213V151z
		 M254.9,151h11.3v5h-11.3L254.9,151z"/>
</g>
<g>
	<defs>
		<rect id="SVGID_1_" x="11.4" y="2.1" width="259" height="161.3"/>
	</defs>
	<clipPath id="SVGID_00000145738533709159740210000014558862990790793137_">
		<use xlink:href="#SVGID_1_"  style="overflow:visible;"/>
	</clipPath>
	
		<g id="XMLID_00000032627937453162283500000015394073956878462372_" style="clip-path:url(#SVGID_00000145738533709159740210000014558862990790793137_);">
		<g>
			<path class="st5" d="M272.2,118.7c-1.1-0.8-2.4-1.6-3.9-2.4c-1-0.6-2.2-1.2-3.4-1.8c-3.8-1.9-8.5-3.8-13.8-5.4
				c0,0,18.8,3.6,22.1,5.2c0,1.1,0,4.8,0,5.2C272.9,119.1,272.6,118.9,272.2,118.7z"/>
			<path class="st6" d="M85.6,42.4c0.4,0.3,0.8,0.6,1.2,0.8c-1.1,1.5-2.2,3.1-3.3,4.9c-13.4,3.1-26.7,21.1-31.1,27.2
				c-1.3-1.4-2.4-2.4-3-2.5C52.3,65.9,63.1,48.3,85.6,42.4z"/>
			<path class="st6" d="M80.4,53.3C69.5,57,54.2,77.3,54.2,77.3c-0.6-0.7-1.2-1.4-1.8-2c4.4-6.1,17.8-24.1,31.1-27.2
				C82.5,49.7,81.4,51.5,80.4,53.3L80.4,53.3z"/>
			<path class="st6" d="M77.9,57.6c-0.4,0.8-0.9,1.5-1.3,2.3h0C67.6,64,56.8,80.7,56.8,80.7c-0.8-1.1-1.8-2.3-2.7-3.4
				c0,0,15.3-20.4,26.2-24.1h0C79.6,54.7,78.7,56.1,77.9,57.6z"/>
			<path class="st6" d="M75.4,62.2C75.4,62.2,75.4,62.2,75.4,62.2c-3.6,6.6-7.1,13.4-10.2,19.1c-1.2,2.2-2.4,4.3-3.4,6.1
				c-0.6-0.8-1.1-1.4-1.2-1.7c-0.4-0.7-1.9-2.8-3.6-5.1c0,0,10.7-16.6,19.8-20.8h0C76.2,60.6,75.8,61.4,75.4,62.2z"/>
			<path class="st7" d="M233.3,30.5c-0.7,0.3-1.6,0.8-2.5,1.3c-0.5-0.2-1.2-0.2-2-0.3v0c0,0-4-6-7.3-10.7
				C225.7,19.6,231,21,233.3,30.5z"/>
			<path class="st7" d="M211.9,13.5c-1.1,0.1-2.1,0.5-2.8,1.1c-2.2,1.7-6.9,3.9-13,12.4c-0.4-1.4-0.9-3.2-1.7-4.5c0,0,1.1-5.4,1-9
				C195.3,13.5,204.2,11.8,211.9,13.5z"/>
			<path class="st7" d="M221.5,20.8c3.3,4.7,7.3,10.7,7.3,10.7v0c-5.6-0.2-16.9,2.4-16.9,2.4c-1-2.8-2-5.9-3-8.9
				c-2.9,0.1-7.3,1.6-12.4,3.9v0c0,0-0.1-0.8-0.4-1.9c6.1-8.5,10.8-10.7,13-12.4c0.7-0.6,1.7-1,2.8-1.1h0c2.2-0.2,4.7,0.7,6.7,3.3
				C219.4,17.8,220.4,19.2,221.5,20.8z"/>
			<path class="st7" d="M123.2,29.7c-0.2-0.2-0.5-0.5-0.7-0.7v0c27.1-5.9,60-22.1,62.7-22.7s6.7-2.9,10.2,7.2c0.2,3.6-1,9-1,9
				c-0.3-0.5-0.6-0.9-1-1.2l0,0c-2.6-2.5-8.3-3.3-9.8-2.5c-0.2,0.1-0.7,0.3-1.5,0.8c-2.1-1.6-6.2-0.8-7.9,0
				c-1.7,0.8-39.6,22.9-39.6,22.9l-1.2,0C131,38.7,127.6,34.2,123.2,29.7z"/>
			<path class="st6" d="M135.4,44.3l-0.7,0.4c-0.4-0.7-0.9-1.4-1.4-2.2l1.2,0c0,0,37.9-22.1,39.6-22.9c1.7-0.8,5.8-1.6,7.9,0
				C175,23.3,145.8,39,135.4,44.3z"/>
			<path class="st8" d="M191.7,20.8c-3.3,0.7-34.5,15.7-54.8,27.2l-0.4,0c-0.5-1-1.1-2.1-1.8-3.4l0.7-0.4
				c10.4-5.3,39.6-21,46.7-24.7c0.8-0.4,1.3-0.7,1.5-0.8c1.5-0.8,7.2,0,9.8,2.5l0,0C192.9,20.9,192.3,20.7,191.7,20.8z"/>
			<path class="st8" d="M196.5,28.9c-17.7,8.3-44.8,27.2-53.6,33.8c-0.8-2.3-1.6-4.4-2.4-6.1c-0.9-2.1-1.7-3.7-2.4-4.8
				c-0.1-0.5-0.6-1.8-1.6-3.7l0.4,0c20.3-11.5,51.5-26.6,54.8-27.2c0.6-0.1,1.2,0.1,1.7,0.5c0.3,0.3,0.7,0.7,1,1.2
				c0.8,1.3,1.4,3.1,1.7,4.5C196.4,28.1,196.5,28.9,196.5,28.9L196.5,28.9z"/>
			<path class="st5" d="M70,144.1l3.3-1.9c-0.2,0.3-0.3,0.5-0.5,0.8c-3.7,5.5-11.1,10-11.1,10l-4.1-2.8l8.8-6.6c1-0.6,1.9-1.3,2.5-2
				c0.4-0.5,0.7-1.1,0.8-1.6C69.9,142.5,70,144.1,70,144.1z"/>
			<path class="st5" d="M98.5,131c-2.1-0.1-4.6,0.6-5.3,2.5l0,0c-0.1,0.1-0.1,0.2-0.1,0.3l-3,9.1L85,158.7l-8.3-4.1l5.9-11.2
				l4.9-9.3l0,0l8.2-4.7C96.5,129.9,97.5,130.4,98.5,131z"/>
			<path class="st6" d="M93.6,137.1c0.6,1.3,2,2.6,3.7,3.8c-2.5,2.1-7,2.1-7,2.1l-0.2-0.1l3-9.1C92.9,134.7,93,135.8,93.6,137.1z"/>
			<path class="st6" d="M72.8,143c0.2-0.3,0.3-0.5,0.5-0.8v0l3.2-1.8l5-2.8l3.6-2l2.5-1.4l-4.9,9.3C77.2,144.1,72.8,143,72.8,143z"
				/>
			<path class="st6" d="M55.5,125.8c-1.9,1.8-4,2.1-6.1,1.6c-1.5-0.4-4.2-3.2-6.8-6.4c-2.8-3.4-5.6-7.2-6.8-9.3
				c-0.3-0.5-0.8-1.4-1.5-2.4C30,102.4,19.6,86.1,16,82.9c2.5-0.3,7.6-1.1,11.4-1.9c6.3,13.7,18.8,36.2,30.2,41.8
				C57,124.1,56.2,125.1,55.5,125.8z"/>
			<path class="st6" d="M60,118.2c-0.8,1.5-1.6,3.1-2.4,4.6C46.3,117.2,33.7,94.7,27.4,81c1.7-0.4,3.2-0.8,4-1.2
				C35.4,89,44,108.6,60,118.2z"/>
			<path class="st6" d="M61.7,114.3l0.3,0.2c-0.6,1.1-1.3,2.4-2,3.8C44,108.6,35.4,89,31.4,79.8c0.7-0.4,2-1,3.5-1.7
				C38.4,87.8,44.3,102.7,61.7,114.3z"/>
			<path class="st6" d="M81.4,137.6c-2-2.9-2.8-20.7-2.1-23.4c0.8,0.1,1.5,0.1,2.2,0c0.2,0.9,0.7,1.9,1.4,3c0,0.6-0.2,16.1,2,18.3
				L81.4,137.6z"/>
			<path class="st6" d="M81.4,137.6l-5,2.8c-2.3-7-3.4-27.2-2.2-27.2c1.7,0.5,3.5,0.9,5.1,1C78.6,116.9,79.4,134.7,81.4,137.6z"/>
			<path class="st6" d="M76.5,140.4l-3.2,1.8v0l-3.3,1.9c0,0-0.1-1.6-0.2-4.1c-0.2-3.1-0.5-7.6-0.8-12.1c-0.4-6.3-0.8-12.6-1-14.6
				c-0.2-1.7-0.6-2.5-1.2-2.9c1.8,0.9,4.6,2,7.5,2.8C73.1,113.2,74.1,133.5,76.5,140.4z"/>
			<path class="st6" d="M131.2,123.4c0.3,0,0.6,0,1,0c2.1,0,4.4-0.2,7-0.5c-1.2,0.3-13,13.7-18.5,20c0,0-0.7-0.4-1.9-1v0
				c-1.3-0.7-3.1-1.6-5.2-2.8C117.3,136.2,128,126.9,131.2,123.4L131.2,123.4z"/>
			<path class="st6" d="M131.2,123.4L131.2,123.4c-3.2,3.5-13.8,12.7-17.6,15.8c-1.1-0.6-2.3-1.2-3.5-1.9v0
				c3-2.5,14.6-10.8,16.8-14.1C128.3,123.4,129.7,123.4,131.2,123.4z"/>
			<path class="st6" d="M110.1,137.4c-1.1-0.6-2.2-1.2-3.3-1.8c4.8-3.4,12.7-8.9,16.7-12.7v0c1.1,0.2,2.2,0.3,3.4,0.4
				C124.7,126.6,113,134.8,110.1,137.4L110.1,137.4z"/>
			<path class="st6" d="M120.7,143c0.8-0.2,3.4-1,6.8-2.1l4.7,9.3l-10.7,0.9l-1.1-3.9l-1.5-5.2C120,142.6,120.7,143,120.7,143z"/>
			<path class="st6" d="M130.7,139.8l6.9,9l-5.4,1.4l-4.7-9.3C128.5,140.5,129.5,140.2,130.7,139.8z"/>
			<path class="st6" d="M145.2,147.7l-7.7,1.1l-6.9-9c1.4-0.5,2.8-1,4.3-1.5L145.2,147.7z"/>
			<path class="st8" d="M149.9,146c-1.8,0.8-3.5,1.5-4.7,1.7l-10.2-9.4c4.1-1.5,8.4-3.1,11.8-4.7c2.9,1.7,7.9,2.5,12.1,1.9
				c0,0,1.5,0.7,4.4,2C163,138.7,155.6,143.4,149.9,146z"/>
			<path class="st6" d="M142.2,124.8c0,0,19-0.5,45.4-11.7c18.6-7.9,18.9-9.4,18.4-9.7l0.1-0.1c0.1,0.1,0.1,0.1,0.2,0.2
				c0.6,0.6,1.2,1.2,1.7,1.7c-33.8,21.5-53.8,20.7-63.4,22.1C143.9,126.3,143.1,125.4,142.2,124.8z"/>
			<path class="st6" d="M213.2,114.2c0,1-0.3,1.7-0.9,2c-1.4,0.7-7.6,1.9-11.6,3.2c-2.5,0.8-15.3,6-25.6,10.1
				c-5.9,2.4-11,4.5-12.7,5.2c-1.1,0.4-2.3,0.7-3.6,0.9c-4.2,0.6-9.1-0.2-12.1-1.9c0.3-1.1,0.2-2.2-0.2-3.3
				c8.6,0,20.7,0.7,64.5-21.7c0.2,0.3,0.3,0.5,0.5,0.7C212.6,111.3,213.2,113,213.2,114.2z"/>
			<path class="st6" d="M208.1,105.1c1.3,1.3,2.3,2.5,3,3.5c-43.8,22.4-55.9,21.7-64.5,21.7c-0.4-1.1-1.1-2.2-1.9-3.1
				C154.3,125.8,174.3,126.6,208.1,105.1z"/>
			<path class="st6" d="M139.2,123c17.4-2.1,44.6-10.5,65-21.2l0.2-0.2c0.6,0.6,1.2,1.1,1.8,1.7l-0.1,0.1c0.4,0.3,0.1,1.8-18.4,9.7
				c-26.3,11.2-45.4,11.7-45.4,11.7C140.9,123.7,139.7,123,139.2,123z"/>
			<path class="st6" d="M219.2,149.7c-0.7,0.7-1.2,1.2-1.4,1.5c-1.7,2-5.2-0.2-6.3-0.9c-0.3-0.2-2.1-1.9-4.4-4.2
				c-0.8-0.8-1.8-1.8-2.7-2.7c-5.1-5.2-11.2-11.3-11.2-11.3c1.8-1.1,3.6-2.1,5.3-3.2l13.7,15l24.8-20.4l5.3,2l-0.2,0.5
				c0,0-5,5.1-10.4,10.7c-3.3,3.5-6.9,7.1-9.6,9.9C221,147.7,220,148.8,219.2,149.7z"/>
			<path class="st6" d="M233.7,122l3.5,1.3l-24.8,20.4l-13.7-15c0.9-0.6,1.8-1.2,2.7-1.8l10.6,11L233.7,122z"/>
			<path class="st6" d="M228.8,120.1l4.9,1.9l-21.8,16l-10.6-11c1.1-0.7,2.1-1.5,3-2.2l8.1,7.7L228.8,120.1z"/>
			<path class="st6" d="M273.2,119.4v8.7c0,0-2.6,1.9-5.7,4.3c-3.5,2.6-7.6,5.8-9.7,7.6c-1.6,1.3-3.4,1.7-5,1.6
				c-0.4,0-0.7-0.1-1-0.1v0c-2.2-0.4-4-1.5-4.5-2.6c-0.3-0.6-0.5-1.4-0.7-2.4c5.6-3.1,22.5-12.6,25.6-17.9
				C272.6,118.9,272.9,119.1,273.2,119.4C273.2,119.4,273.2,119.4,273.2,119.4z"/>
			<path class="st6" d="M268.4,116.2c1.5,0.8,2.7,1.6,3.9,2.4c-3,5.2-20,14.8-25.6,17.9c-0.2-1.1-0.5-2.5-0.8-4.1
				C250.5,130.5,266.5,120.8,268.4,116.2z"/>
			<path class="st6" d="M265,114.4c1.2,0.6,2.3,1.2,3.4,1.8c-1.8,4.6-17.9,14.3-22.5,16.2c-0.2-1.1-0.5-2.2-0.9-3.4
				C248.7,127.3,261,119.1,265,114.4z"/>
			<path class="st7" d="M273.2,128.1c0,0,0,9.5,0,13.8c-2.9-0.5-5.7-9.4-5.7-9.4C270.7,130.1,273.2,128.1,273.2,128.1z"/>
			<path class="st7" d="M267.6,132.5c0,0,2.7,8.9,5.7,9.4c-5.7,3.5-19.1,2.5-21.3-0.1c0.3,0,0.6-0.1,0.9-0.1c1.7,0.1,3.5-0.3,5-1.6
				C260,138.3,264.1,135.1,267.6,132.5z"/>
			<path class="st7" d="M251.2,141.9c-11.9,12.8-28.7,8.8-32,7.8c0.8-0.8,1.8-1.9,3.1-3.2c7.4,0.7,22.6-1.1,25.8-4.4v0
				C249,142.1,250.1,142,251.2,141.9L251.2,141.9z"/>
			<path class="st7" d="M248,142L248,142c-3.2,3.3-18.4,5.2-25.8,4.4c2.7-2.8,6.2-6.5,9.6-9.9C231.8,136.5,238.5,141.9,248,142z"/>
			<path class="st7" d="M251.2,141.9c-1.1,0.1-2.1,0.2-3.1,0.2c-9.5-0.1-16.2-5.5-16.2-5.5c5.4-5.6,10.4-10.7,10.4-10.7l0.2-0.5
				l1.4,0.5c0.5,1.1,0.9,2.2,1.2,3.3c0.3,1.2,0.6,2.3,0.9,3.4c0.3,1.5,0.6,2.9,0.8,4.1c0.2,1,0.4,1.8,0.7,2.4
				c0.5,1.1,2.3,2.3,4.5,2.6v0c0.1,0.1,0.1,0.2,0.2,0.2C251.7,141.8,251.4,141.9,251.2,141.9z"/>
			<path class="st7" d="M204.5,143.3l-0.3,0.3c-6.8,0.9-19.5-2-22.4-2.6c0,0,0,0,0.1,0c-0.2,0-0.4-0.1-0.6-0.1c0,0,0,0,0,0
				c-1.7-0.3-3.1-0.5-4.5-0.8c5.4-2.1,11.2-5,16.6-8.1C193.3,131.9,199.4,138.1,204.5,143.3z"/>
			<path class="st7" d="M207.2,146L207.2,146c-5.9,3.3-32.5,1.1-39.2-0.8c4.6-0.8,9.4-2.1,13.7-4.3c2.9,0.7,15.7,3.5,22.4,2.6
				l0.3-0.3C205.4,144.2,206.4,145.1,207.2,146z"/>
			<path class="st7" d="M200.7,119.4c4-1.3,10.2-2.5,11.6-3.2c-0.6,2.2-3.7,5.3-8.1,8.5c-0.9,0.7-1.9,1.4-3,2.2
				c-0.9,0.6-1.8,1.2-2.7,1.8c-1.7,1.1-3.5,2.2-5.3,3.2c-5.4,3.1-11.2,6-16.6,8.1h0c-0.6-0.1-1.1-0.2-1.6-0.3v-10.3
				C185.4,125.4,198.2,120.2,200.7,119.4z"/>
			<path class="st7" d="M175.2,129.5v10.3c-4.6-0.8-7.4-1.3-11.8-2.2c-3-1.2-4.4-2-4.4-2c1.3-0.2,2.5-0.5,3.6-0.9
				C164.2,134,169.2,131.9,175.2,129.5z"/>
			<path class="st7" d="M181.3,140.8c0.1,0,0.3,0.1,0.5,0.1c-4.3,2.2-9.1,3.5-13.7,4.3h0c-9.4,1.6-17.7,0.8-18.1,0.8
				c5.7-2.6,13.1-7.3,13.4-8.5c4.4,0.9,7.3,1.4,11.8,2.2c0.5,0.1,1,0.2,1.6,0.3h0C178.1,140.2,179.5,140.5,181.3,140.8
				C181.2,140.8,181.2,140.8,181.3,140.8z"/>
			<path class="st7" d="M130.7,139.8c-1.1,0.4-2.2,0.8-3.3,1.1c-3.3,1.1-5.9,1.9-6.8,2.1c5.4-6.4,17.2-19.8,18.5-20c0,0,0,0,0.1,0
				c0.5,0,1.7,0.7,3,1.8c0.8,0.7,1.7,1.5,2.4,2.4c0.8,1,1.5,2,1.9,3.1c0.4,1.1,0.6,2.2,0.2,3.3c-3.4,1.5-7.7,3.2-11.8,4.7
				C133.5,138.8,132.1,139.3,130.7,139.8z"/>
			<path class="st7" d="M106.7,135.6c1.1,0.6,2.2,1.2,3.3,1.8c1.2,0.7,2.4,1.3,3.5,1.9c2.1,1.1,3.9,2.1,5.2,2.8v0l1.5,5.2l-0.4,0.1
				c0,0-3.6,0.6-7.8,0c-3.1-0.5-10.2-3.3-14.7-6.5c-1.7-1.2-3.1-2.6-3.7-3.8c-0.6-1.3-0.7-2.3-0.5-3.2l0.1-0.3l0,0
				c0.7-1.9,3.3-2.6,5.3-2.5h0C100.9,132.4,103.8,134,106.7,135.6z"/>
			<path class="st7" d="M60,118.2c0.7-1.4,1.4-2.7,2-3.8c0.8-1.4,1.4-2.5,1.7-2.9c0.6-0.7,2-1.7,3-1.1c0.6,0.3,1.1,1.2,1.2,2.9
				c0.2,2.1,0.6,8.3,1,14.6c-3.7,0.9-13.3,0.3-13.3,0.3c0-0.7-0.1-1.5-0.2-2.4c0.8-0.7,1.5-1.7,2.2-3
				C58.4,121.4,59.2,119.8,60,118.2z"/>
			<path class="st7" d="M68.9,141.6L68.9,141.6c-2,0-13.4-10.6-13.4-10.6c0.1-0.7,0.2-1.6,0.1-2.8c0,0,9.7,0.6,13.3-0.3
				c0.3,4.5,0.6,9,0.8,12.1C69.6,140.6,69.3,141.1,68.9,141.6z"/>
			<path class="st7" d="M66.4,143.6c-1.6,1-3.5,1.6-4.7,1.6c-2.4-0.1-14.7-9.8-14.7-9.8c0.7-0.1,1.5-0.2,2.3-0.5
				c3.4-1,5.6-0.6,6.2-3.9c0,0,11.3,10.6,13.4,10.6h0C68.3,142.4,67.4,143.1,66.4,143.6z"/>
			<path class="st7" d="M55.6,128.2c0,1.2,0,2.1-0.1,2.8c-0.5,3.2-2.7,2.8-6.2,3.9c-0.9,0.3-1.6,0.5-2.3,0.5
				c-7.6,0.8-5.5-10.2-4.5-14.4c2.7,3.2,5.4,6,6.8,6.4c2.1,0.6,4.2,0.2,6.1-1.6C55.5,126.7,55.6,127.5,55.6,128.2z"/>
			<path class="st7" d="M34.2,109.3c-0.7,0.5-5.7,3.9-7.9,4.9c-2.4,1.1-3.6,2.8-5.3,0c-1.7-2.8-7.2-26.3-6.4-31.1
				c0,0,0.5-0.1,1.4-0.2C19.6,86.1,30,102.4,34.2,109.3z"/>
			<path class="st8" d="M95.7,129.4l-8.2,4.7l0,0l-2.5,1.4c-2.3-2.3-2.1-17.7-2-18.3c2.4,3.9,7.3,8.9,11.7,11.6
				C95,129,95.4,129.2,95.7,129.4z"/>
			<path class="st8" d="M85.6,100.5c-0.4,0-3.5-0.5-10.2-0.7c-1.1,0-2.5-0.3-4.1-0.7l0-0.1c0,0-6.6-7.8-9.6-11.6
				c1.1-1.8,2.2-3.9,3.4-6.1l2.2,1.3c0,0,12,16.2,18.4,17.1l0.4,0.2C85.9,100.2,85.7,100.3,85.6,100.5z"/>
			<path class="st8" d="M71.2,99.1c1.6,0.4,3,0.6,4.1,0.7c6.8,0.2,9.9,0.6,10.2,0.7c-3,3.4-3.9,8.9-4.2,12.8c0,0.3,0,0.6,0.1,0.9
				c-0.7,0.1-1.4,0.1-2.2,0c-1.6-0.1-3.3-0.5-5.1-1c-2.9-0.8-5.7-1.9-7.5-2.8c-1-0.6-2.4,0.4-3,1.1c-0.3,0.4-1,1.5-1.7,2.9l-0.3-0.2
				c-17.4-11.5-23.3-26.5-26.8-36.2c4.9-2.4,12.7-5.8,14.5-5.3c0.7,0.2,1.8,1.2,3,2.5c0.6,0.6,1.2,1.3,1.8,2
				c0.9,1.1,1.8,2.2,2.7,3.4c1.7,2.3,3.2,4.3,3.6,5.1c0.2,0.3,0.6,0.9,1.2,1.7C64.6,91.2,71.3,99.1,71.2,99.1L71.2,99.1z"/>
			<path class="st8" d="M85.6,100.5c0.1-0.2,0.3-0.3,0.5-0.5c1.1-1.1,2.5-1.9,4.3-2.2c3.4-0.6,6.7-0.9,9.7-0.7
				c3.1,0.2,5.8,0.8,8.1,1.9c0.8,0.4,1.8,0.9,3.1,1.4c5.3,2.3,16,5.6,41.8,5.8l0-2.4c-0.2-2.4,1.3-7.9,1.3-7.9
				c0.6,0.2,1.3,0,2.5-0.1c2.7-0.2,8.8-0.9,17.2-2c4-0.5,8.2-0.9,11.9-1h0c4-0.1,7.3,0.1,9.1,1c1.9,0.9,5.8,4.2,9.3,7.6l-0.2,0.2
				c-20.4,10.8-47.6,19.2-65,21.2c0,0,0,0-0.1,0c-2.6,0.3-4.9,0.5-7,0.5c-0.3,0-0.7,0-1,0c-1.5,0-2.9-0.1-4.3-0.2
				c-1.2-0.1-2.3-0.2-3.4-0.4v0c-4.1,3.9-11.9,9.3-16.7,12.7c-2.9-1.6-5.8-3.2-8.2-4.5h0c-1-0.6-2-1.1-2.8-1.6
				c-0.4-0.2-0.7-0.4-1.1-0.6c-4.4-2.7-9.3-7.6-11.7-11.6c-0.7-1.1-1.2-2.2-1.4-3c-0.1-0.3-0.1-0.6-0.1-0.9
				C81.7,109.4,82.6,103.8,85.6,100.5z"/>
			<path class="st8" d="M213.2,114.2l15.6,5.9l-16.4,12.3l-8.1-7.7c4.4-3.3,7.4-6.4,8.1-8.5C213,115.9,213.3,115.2,213.2,114.2
				L213.2,114.2z"/>
			<path class="st8" d="M206.4,103.4c17.5-0.7,32.8,1.9,44.7,5.6c5.3,1.7,10,3.5,13.8,5.4c-4,4.7-16.3,12.9-20,14.6
				c-0.3-1.1-0.7-2.2-1.2-3.3l-1.4-0.5l-5.3-2l-3.5-1.3l-4.9-1.9l-15.6-5.9h0c0-1.2-0.6-3-1.7-4.9c-0.1-0.2-0.3-0.5-0.5-0.7
				c-0.7-0.9-1.7-2.2-3-3.5C207.6,104.6,207,104,206.4,103.4z"/>
			<path class="st5" d="M195.1,93.9c-1.8-0.9-5.2-1.2-9.1-1c18.4-2,71.7-7.7,87.3-1.9v23.2c-3.3-1.6-22.1-5.2-22.1-5.2
				c-11.9-3.7-27.2-6.3-44.7-5.6c-0.1-0.1-0.1-0.1-0.2-0.2c-0.6-0.6-1.2-1.1-1.8-1.7C200.9,98.1,197,94.9,195.1,93.9z"/>
			<path class="st5" d="M273.2,70v21c-15.6-5.9-68.8-0.1-87.3,1.9h0c-3.6,0.1-7.8,0.5-11.9,1c-8.4,1.1-14.5,1.8-17.2,2
				c-1.1,0.1-1.9,0.3-2.5,0.1c-0.7-0.2-1.1-1-1.8-3.1C183.3,81.7,192.4,73,273.2,70z"/>
			<path class="st5" d="M273.2,52.4V70c-80.8,3-90,11.7-120.7,22.9c-0.1-0.5-0.3-1-0.5-1.5c-0.3-1.1-0.9-3.2-1.7-5.8l0.2-0.1
				C179.1,73.6,244.8,51.3,273.2,52.4z"/>
			<path class="st5" d="M239.8,47.2c5.9-1.4,11.4-2.4,16.5-3c5.9,1,11.5,4,16.9,8.1c-28.4-1.1-94.2,21.2-122.7,33.1l-0.2,0.1
				c-0.5-1.6-1.1-3.5-1.7-5.5c0,0,50.1-22.9,89-32.3C238.4,47.6,239.1,47.4,239.8,47.2z"/>
			<path class="st5" d="M237.7,47.7c0,0-0.5-6.9-0.9-11.8c0.3,0,5.5-0.5,15-0.5c-0.9,0-2,0.5-3.2,1.6c-5.2,4.6-8.7,10.2-8.7,10.2
				C239.1,47.4,238.4,47.6,237.7,47.7z"/>
			<path class="st5" d="M251.7,35.4c2.9,0,4.2,4.6,4.6,8.9c-5.1,0.6-10.6,1.6-16.5,3c0,0,3.5-5.6,8.7-10.2
				C249.7,35.9,250.8,35.4,251.7,35.4z"/>
			<path class="st5" d="M236.8,35.9c0.5,4.9,0.9,11.8,0.9,11.8c-38.9,9.4-89,32.3-89,32.3c-0.7-2.3-1.5-4.8-2.3-7.3
				c21.6-12,53.5-26.7,69.9-26.7c3.6-4.1,11.7-13,14.5-14.2c0.9-0.4,1.8-0.9,2.5-1.3c1.5-0.7,2.5-0.8,3,1.6
				C236.4,33,236.6,34.4,236.8,35.9C236.8,35.9,236.8,35.9,236.8,35.9z"/>
			<path class="st5" d="M228.8,31.5c0.8,0,1.5,0.1,2,0.3C228,33,219.9,42,216.3,46c0,0-2-5.4-4.4-12.1
				C211.9,33.9,223.2,31.3,228.8,31.5z"/>
			<path class="st5" d="M211.9,33.9c2.3,6.8,4.4,12.1,4.4,12.1c-16.4,0-48.3,14.7-69.9,26.7c-1.1-3.4-2.3-6.9-3.5-10.1
				c8.9-6.6,35.9-25.5,53.6-33.8c5.1-2.4,9.5-3.9,12.4-3.9C209.9,28,210.9,31.1,211.9,33.9z"/>
			<path class="st5" d="M124.2,39.1c-1.9,1.4-7.9,8.4-11.5,11.8c-3.1,3.1-12.7,16.7-18.1,29.8c-0.4-0.8-1.6-2.5-3-4.6
				c-0.2-2.3,0.7-5.2,0.7-5.2c0.6-3.6,3.2-8.5,6.5-13.2c6.4-9.4,15.1-18.6,15.1-18.6l4.8-4.7C120.6,35.9,122.4,37.5,124.2,39.1z"/>
			<path class="st5" d="M98.5,57.4l0.3,0.2c-3.3,4.8-5.9,9.6-6.5,13.2c-1.1-9.7-2.4-19.5-2-26.6c1.9,0.1,3.5-0.6,4.9-1.7
				C95.9,46.1,97.7,56.5,98.5,57.4z"/>
			<path class="st8" d="M92.4,70.9c0,0-0.9,2.9-0.7,5.2C86.9,69.3,78.3,58,77.9,57.6c0.8-1.5,1.6-2.9,2.5-4.3
				c1.1-1.8,2.1-3.6,3.2-5.2c1.1-1.8,2.2-3.4,3.3-4.9c0.8,0.5,1.5,0.8,2.4,1c0.4,0.1,0.8,0.1,1.2,0.1C90,51.4,91.3,61.2,92.4,70.9z"
				/>
			<path class="st8" d="M76.6,59.9c0.4-0.8,0.8-1.5,1.3-2.3c0.3,0.5,8.9,11.7,13.7,18.5c1.5,2.1,2.6,3.7,3,4.6
				c5.4-13.1,14.9-26.8,18.1-29.8c3.5-3.4,9.6-10.4,11.5-11.8c5.2,4.6,10.1,9.1,13.9,12.7c0.7,1,1.5,2.7,2.4,4.8l-2.4,0.9
				c-12.4,1.7-32.8,25.8-39.5,33.9c0,0-3.5-0.3-4.9-0.5c-2.9-7.4-17.9-28.1-18.3-28.7c0,0,0,0,0,0C75.8,61.4,76.2,60.6,76.6,59.9z"
				/>
			<path class="st8" d="M85.6,99.8c-6.3-0.9-18.4-17.1-18.4-17.1l-2.2-1.3c3.1-5.7,6.7-12.6,10.2-19.1c0.4,0.6,15.4,21.2,18.3,28.7
				c1.4,0.1,4.9,0.5,4.9,0.5c6.7-8.1,27.1-32.2,39.5-33.9l2.4-0.9c0.8,1.8,1.6,3.9,2.4,6.1c1.2,3.2,2.4,6.6,3.5,10.1
				c0.8,2.5,1.6,5,2.3,7.3c0.6,2,1.2,3.9,1.7,5.5c0.8,2.6,1.4,4.7,1.7,5.8c0.2,0.6,0.3,1.1,0.5,1.5c0.7,2.1,1.1,2.9,1.8,3.1
				c0,0-1.5,5.5-1.3,7.9l0,2.4c-25.8-0.2-36.5-3.5-41.8-5.8c-1.3-0.6-2.3-1.1-3.1-1.4c-2.3-1.1-5.1-1.7-8.1-1.9
				c-3-0.2-6.3,0-9.7,0.7c-1.7,0.3-3.1,1.1-4.3,2.2L85.6,99.8z"/>
			<path class="st1" d="M72.6,17.6C72.6,17.6,72.6,17.6,72.6,17.6c-1.2,0.1-1.4-1.8-0.9-4.1c0.5-2.6,2.6-5.9,4.5-7.4
				c3.9-3,9.7-2.6,14.7-0.9c4.9,1.7,21.2,13.7,31.4,23.9c0.2,0.2,0.5,0.5,0.7,0.7c4.4,4.5,7.8,9,10.2,12.8c0.5,0.8,0.9,1.5,1.4,2.2
				c0.7,1.3,1.3,2.4,1.8,3.4c0.9,1.9,1.5,3.2,1.6,3.7c-3.8-3.7-8.7-8.1-13.9-12.7c-1.8-1.6-3.6-3.2-5.4-4.7
				C105.5,22.9,91.8,12,89,11.6c-0.3-0.1-0.7-0.1-0.9-0.1c-2.3-0.2-3.2,0.6-7-1.5C80.3,11.1,73.9,17.1,72.6,17.6z"/>
			<path class="st9" d="M86.9,38.2c0,0,0.1,0.1,0.3,0.1c0.5,0.2,1.5,0.6,1.9,0.5c0.4-0.2,0.7-1.4,0.8-2c0-0.1,0-0.2,0-0.2l-1.5-0.1
				l-0.2,0.5l-0.9,0L86.9,38.2z M79.8,36.5c-2.1-2.8-3.9-5.9-5.1-9.2c-0.6-1.7-1.1-3.4-1.4-5.1c-0.3-1.7-0.9-3-0.7-4.7
				c1.3-0.5,7.7-6.5,8.5-7.5c3.7,2,4.7,1.3,7,1.5c0.3,0,0.6,0.1,0.9,0.1c2.7,0.4,16.5,11.3,29.7,22.8l-4.8,4.7
				c0,0-8.7,9.2-15.1,18.6l-0.3-0.2c-0.9-0.9-2.7-11.4-3.2-14.8c-1.4,1.1-3.1,1.8-4.9,1.7c-0.4,0-0.8-0.1-1.2-0.1
				c-0.8-0.2-1.6-0.5-2.4-1c-0.4-0.2-0.8-0.5-1.2-0.8c-0.5-0.4-1-0.9-1.5-1.3C82.5,39.7,81,38.2,79.8,36.5z M73.8,21.4
				c0.3,0.4,1.1,0.3,1.9-0.2c0.8-0.5,1.2-1.3,0.9-1.7c-0.3-0.4-1.1-0.3-1.9,0.2C73.9,20.2,73.5,21,73.8,21.4z M84.1,17.1
				c0.8-0.4,1.2-1.1,0.9-1.5c-0.2-0.4-1-0.4-1.8,0c-0.8,0.4-1.2,1.1-0.9,1.5C82.5,17.5,83.3,17.5,84.1,17.1z"/>
		</g>
		<g>
			<path class="st10" d="M72.6,17.4c0,0.1,0,0.1,0,0.2c-0.2,1.7,0.3,3,0.7,4.7c0.3,1.7,0.8,3.4,1.4,5.1c1.2,3.3,2.9,6.4,5.1,9.2
				c1.3,1.7,2.8,3.2,4.3,4.6c0.5,0.4,1,0.9,1.5,1.3c0.4,0.3,0.8,0.6,1.2,0.8c0.8,0.5,1.5,0.8,2.4,1c0.4,0.1,0.8,0.1,1.2,0.1
				c1.9,0.1,3.5-0.6,4.9-1.7c1.2-0.9,2.3-2.2,3.2-3.6"/>
			<path class="st10" d="M72.6,17.6C72.6,17.6,72.6,17.6,72.6,17.6c-1.2,0.1-1.4-1.8-0.9-4.1c0.5-2.6,2.6-5.9,4.5-7.4
				c3.9-3,9.7-2.6,14.7-0.9c4.9,1.7,21.2,13.7,31.4,23.9c0.2,0.2,0.5,0.5,0.7,0.7c4.4,4.5,7.8,9,10.2,12.8c0.5,0.8,0.9,1.5,1.4,2.2
				c0.7,1.3,1.3,2.4,1.8,3.4c0.9,1.9,1.5,3.2,1.6,3.7c-3.8-3.7-8.7-8.1-13.9-12.7c-1.8-1.6-3.6-3.2-5.4-4.7
				C105.5,22.9,91.8,12,89,11.6c-0.3-0.1-0.7-0.1-0.9-0.1c-2.3-0.2-3.2,0.6-7-1.5C80.3,11.1,73.9,17.1,72.6,17.6z"/>
			<path class="st10" d="M76.8,29c0.9-0.9,1.7-1.4,2.6-1.5"/>
			<path class="st10" d="M86.2,24.8c0.6-0.9,2.5-1.4,3.6-0.9"/>
			<path class="st10" d="M81.4,26.4c0,0,0.6,7.4,0.7,8.1c0.1,0.7,2.3-0.5,2.3-0.5"/>
			<path class="st11" d="M89.8,36.9c0-0.1,0-0.2,0-0.2l-1.5-0.1l-0.2,0.5l-0.9,0l-0.4,1.2c0,0,0.1,0.1,0.3,0.1
				c0.5,0.2,1.5,0.6,1.9,0.5C89.5,38.7,89.7,37.4,89.8,36.9z"/>
			<path d="M85,15.6c0.2,0.4-0.2,1.1-0.9,1.5c-0.8,0.4-1.6,0.5-1.8,0c-0.2-0.4,0.2-1.1,0.9-1.5C84,15.2,84.8,15.1,85,15.6z"/>
			<path d="M76.6,19.5c0.3,0.4-0.1,1.1-0.9,1.7c-0.8,0.5-1.6,0.6-1.9,0.2c-0.3-0.4,0.1-1.1,0.9-1.7C75.5,19.2,76.3,19.1,76.6,19.5z"
				/>
			<path class="st10" d="M95.3,42.6c0.5,3.4,2.3,13.9,3.2,14.8"/>
			<path class="st10" d="M90.4,44.3C90.4,44.3,90.4,44.3,90.4,44.3c-0.4,7.2,0.9,16.9,2,26.6c0.6-3.6,3.2-8.5,6.5-13.2
				c6.4-9.4,15.1-18.6,15.1-18.6l4.8-4.7"/>
			<path class="st10" d="M94.7,80.7c5.4-13.1,14.9-26.8,18.1-29.8c3.5-3.4,9.6-10.4,11.5-11.8"/>
			<path class="st10" d="M75.4,62.2c-3.6,6.6-7.1,13.4-10.2,19.1c-1.2,2.2-2.4,4.3-3.4,6.1"/>
			<path class="st10" d="M86.8,43.2C86.8,43.2,86.8,43.2,86.8,43.2c-1.1,1.5-2.2,3.1-3.3,4.9c-1,1.6-2.1,3.4-3.2,5.2
				c-0.8,1.4-1.6,2.8-2.5,4.3c-0.4,0.8-0.9,1.5-1.3,2.3c-0.4,0.8-0.9,1.6-1.3,2.3"/>
			<path class="st10" d="M71.3,99.1c0,0-6.6-7.8-9.6-11.6c-0.6-0.8-1.1-1.4-1.2-1.7c-0.4-0.7-1.9-2.8-3.6-5.1
				c-0.8-1.1-1.8-2.3-2.7-3.4c-0.6-0.7-1.2-1.4-1.8-2c-1.3-1.4-2.4-2.4-3-2.5c-1.8-0.5-9.6,3-14.5,5.3c-1.5,0.7-2.8,1.4-3.5,1.7
				c-0.8,0.4-2.2,0.8-4,1.2c-3.8,0.8-8.9,1.6-11.4,1.9c-0.9,0.1-1.4,0.2-1.4,0.2c-0.8,4.8,4.7,28.3,6.4,31.1c1.7,2.8,3,1.1,5.3,0
				c2.2-1,7.2-4.4,7.9-4.9c0.1,0,0.1-0.1,0.1-0.1"/>
			<path class="st10" d="M49.4,72.8c3-6.9,13.8-24.5,36.3-30.4c0,0,0,0,0,0"/>
			<path class="st10" d="M52.4,75.3L52.4,75.3c4.4-6.1,17.8-24.1,31.1-27.2"/>
			<path class="st10" d="M54.2,77.3c0,0,15.3-20.4,26.2-24.1"/>
			<path class="st10" d="M56.8,80.7c0,0,10.7-16.6,19.8-20.8"/>
			<path class="st10" d="M77.9,57.6C77.9,57.6,77.9,57.6,77.9,57.6c0.4,0.5,8.9,11.7,13.7,18.5c1.5,2.1,2.6,3.7,3,4.6l2.5,6.1
				c0,0,11.5-16.2,16.4-20c4.9-3.7,17.2-13.5,21-13.6"/>
			<path class="st10" d="M92.4,70.9c0,0-0.9,2.9-0.7,5.2"/>
			<path class="st10" d="M75.4,62.2C75.4,62.2,75.4,62.2,75.4,62.2c0.4,0.6,15.4,21.3,18.3,28.7c1.4,0.1,4.9,0.5,4.9,0.5
				c6.7-8.1,27.1-32.2,39.5-33.9"/>
			<path class="st10" d="M67.3,82.7c0,0,12,16.2,18.4,17.1"/>
			<path class="st10" d="M44.9,88.2c4.8,2.9,17.9,9,26.3,11c1.6,0.4,3,0.6,4.1,0.7c6.8,0.2,9.9,0.6,10.2,0.7c0,0,0,0,0,0"/>
			<path class="st10" d="M139.2,123c0.5,0,1.7,0.7,3,1.8c0.8,0.7,1.7,1.5,2.4,2.4c0.8,1,1.5,2,1.9,3.1c0.4,1.1,0.6,2.2,0.2,3.3
				c-3.4,1.5-7.7,3.2-11.8,4.7c-1.5,0.5-2.9,1-4.3,1.5c-1.1,0.4-2.2,0.8-3.3,1.1c-3.3,1.1-5.9,1.9-6.8,2.1"/>
			<path class="st10" d="M118.8,142c1.2,0.6,1.9,1,1.9,1c5.4-6.4,17.2-19.8,18.5-20"/>
			<path class="st10" d="M98.5,131c2.4,1.4,5.3,3,8.2,4.5c1.1,0.6,2.2,1.2,3.3,1.8c1.2,0.7,2.4,1.3,3.5,1.9c2.1,1.1,3.9,2.1,5.2,2.8
				"/>
			<path class="st10" d="M167.3,106.1c-5.2,0.2-9.9,0.2-14.3,0.2c-25.8-0.2-36.5-3.5-41.8-5.8c-1.3-0.6-2.3-1.1-3.1-1.4
				c-2.3-1.1-5.1-1.7-8.1-1.9c-3-0.2-6.3,0-9.7,0.7c-1.7,0.3-3.1,1.1-4.3,2.2c-0.2,0.1-0.3,0.3-0.5,0.5c-3,3.4-3.9,8.9-4.2,12.8
				c0,0.3,0,0.6,0.1,0.9c0.2,0.9,0.7,1.9,1.4,3c2.4,3.9,7.3,8.9,11.7,11.6c0.3,0.2,0.7,0.4,1.1,0.6c0.8,0.5,1.8,1,2.8,1.6"/>
			<path class="st10" d="M100,114.7c0,0,10,6.1,23.4,8.1c1.1,0.2,2.2,0.3,3.4,0.4c1.4,0.1,2.8,0.2,4.3,0.2c0.3,0,0.6,0,1,0
				c2.1,0,4.4-0.2,7-0.5c0,0,0,0,0.1,0c17.4-2.1,44.6-10.5,65-21.2"/>
			<path class="st10" d="M186,92.9c-3.6,0.1-7.8,0.5-11.9,1c-8.4,1.1-14.5,1.8-17.2,2c-1.1,0.1-1.9,0.3-2.5,0.1
				c-0.7-0.2-1.1-1-1.8-3.1c-0.1-0.5-0.3-1-0.5-1.5c-0.3-1.1-0.9-3.2-1.7-5.8c-0.5-1.6-1.1-3.5-1.7-5.5c-0.7-2.3-1.5-4.8-2.3-7.3
				c-1.1-3.4-2.3-6.9-3.5-10.1c-0.8-2.3-1.6-4.4-2.4-6.1c-0.9-2.1-1.7-3.7-2.4-4.8"/>
			<path class="st10" d="M146.8,133.6c2.9,1.7,7.9,2.5,12.1,1.9c1.3-0.2,2.5-0.5,3.6-0.9c1.7-0.7,6.7-2.8,12.7-5.2
				c10.2-4.1,23-9.3,25.6-10.1c4-1.3,10.2-2.5,11.6-3.2c0.6-0.3,0.9-1,0.9-2c0-1.2-0.6-3-1.7-4.9c-0.1-0.2-0.3-0.5-0.5-0.7
				c-0.7-0.9-1.7-2.2-3-3.5c-0.5-0.6-1.1-1.1-1.7-1.7c-0.1-0.1-0.1-0.1-0.2-0.2c-0.6-0.6-1.2-1.1-1.8-1.7c-3.6-3.4-7.5-6.6-9.3-7.6
				c-1.8-0.9-5.2-1.2-9.1-1"/>
			<path class="st10" d="M154.4,96c0,0-1.5,5.5-1.3,7.9"/>
			<path class="st10" d="M100,97.1c5.3-4.8,22.5-12.9,25.8-13.3"/>
			<path class="st10" d="M111.3,100.5c0,0,25.2-6,30.5-5.4"/>
			<path class="st10" d="M93.2,133.6c-0.1,0.1-0.1,0.2-0.1,0.3c-0.2,0.8-0.1,1.9,0.5,3.2c0.6,1.3,2,2.6,3.7,3.8
				c4.5,3.2,11.7,6.1,14.7,6.5c4.2,0.6,7.8,0,7.8,0"/>
			<path class="st10" d="M98.5,131L98.5,131c-2.1-0.1-4.6,0.6-5.3,2.5"/>
			<polyline class="st10" points="118.8,142 118.8,142 120.3,147.3 121.5,151.1 132.1,150.2 127.4,140.9 			"/>
			<polyline class="st10" points="132.1,150.2 137.6,148.8 130.7,139.8 130.7,139.8 			"/>
			<polyline class="st10" points="137.6,148.8 145.2,147.7 135,138.3 			"/>
			<path class="st10" d="M145.2,147.7c1.2-0.2,2.8-0.8,4.7-1.7c5.7-2.6,13.1-7.3,13.4-8.5c-3-1.2-4.4-2-4.4-2"/>
			<path class="st10" d="M176.7,140c-0.6-0.1-1.1-0.2-1.6-0.3c-4.6-0.8-7.4-1.3-11.8-2.2"/>
			<path class="st10" d="M181.2,140.8c-1.7-0.3-3.1-0.5-4.5-0.8"/>
			<path class="st10" d="M168.1,145.2c4.6-0.8,9.4-2.1,13.7-4.3c0,0,0,0,0.1,0c-0.2,0-0.4-0.1-0.6-0.1"/>
			<path class="st10" d="M149.9,146C149.9,146,149.9,146,149.9,146c0.5,0,8.8,0.8,18.2-0.8"/>
			<path class="st10" d="M176.7,140L176.7,140c5.4-2.1,11.2-5,16.6-8.1c1.8-1.1,3.6-2.1,5.3-3.2c0.9-0.6,1.8-1.2,2.7-1.8
				c1.1-0.7,2.1-1.5,3-2.2c4.4-3.3,7.4-6.4,8.1-8.5"/>
			<path class="st10" d="M168.1,145.2L168.1,145.2c6.6,1.9,33.3,4.1,39.1,0.8"/>
			<path class="st10" d="M181.2,140.8C181.2,140.8,181.2,140.8,181.2,140.8c0.1,0,0.3,0.1,0.6,0.1c2.9,0.7,15.7,3.5,22.4,2.6"/>
			<path class="st10" d="M193.3,131.9c0,0,6,6.2,11.2,11.3c0.9,1,1.9,1.9,2.7,2.7c2.3,2.3,4,4,4.4,4.2c1.1,0.8,4.5,3,6.3,0.9
				c0.2-0.2,0.7-0.7,1.4-1.5c0.8-0.8,1.8-1.9,3.1-3.2c2.7-2.8,6.2-6.5,9.6-9.9c5.4-5.6,10.4-10.7,10.4-10.7"/>
			<path class="st10" d="M251.8,141.5c0.3,0.1,0.7,0.1,1,0.1c1.7,0.1,3.5-0.3,5-1.6c2.1-1.7,6.2-4.9,9.7-7.6
				c3.1-2.4,5.7-4.3,5.7-4.3"/>
			<path class="st10" d="M213.2,114.2l15.6,5.9l4.9,1.9l3.5,1.3l5.3,2l1.4,0.5c0.5,1.1,0.9,2.2,1.2,3.3c0.3,1.2,0.6,2.3,0.9,3.4
				c0.3,1.5,0.6,2.9,0.8,4.1c0.2,1,0.4,1.8,0.7,2.4c0.5,1.1,2.3,2.3,4.5,2.6"/>
			<path class="st10" d="M231.8,136.5c0,0,6.7,5.4,16.2,5.5c1,0,2.1,0,3.1-0.2c0.3,0,0.5-0.1,0.8-0.1c0.3,0,0.6-0.1,0.9-0.1"/>
			<path class="st10" d="M219.2,149.7L219.2,149.7c3.3,1.1,20,5,32-7.8"/>
			<path class="st10" d="M273.2,119.4c-0.3-0.2-0.7-0.5-1-0.7c-1.1-0.8-2.4-1.6-3.9-2.4c-1-0.6-2.2-1.2-3.4-1.8
				c-3.8-1.9-8.5-3.8-13.8-5.4c-11.9-3.7-27.2-6.3-44.7-5.6"/>
			<path class="st10" d="M251.8,141.5L251.8,141.5c0.1,0.1,0.1,0.2,0.2,0.3c2.2,2.6,15.6,3.6,21.3,0.1c0-4.3,0-13.8,0-13.8v-8.7"/>
			<path class="st10" d="M245,129.1c3.7-1.8,16-10,20-14.6"/>
			<path class="st10" d="M245.8,132.5c4.7-1.9,20.7-11.6,22.5-16.2v0"/>
			<path class="st10" d="M246.7,136.5c5.6-3.1,22.5-12.6,25.6-17.9v0"/>
			<path class="st10" d="M222.2,146.5c7.4,0.7,22.6-1.1,25.8-4.4"/>
			<path class="st10" d="M267.6,132.5c0,0,2.7,8.9,5.7,9.4"/>
			<path class="st10" d="M251.2,109c0,0,18.8,3.6,22.1,5.2c0,1.1,0,4.8,0,5.2c0,0,0,0,0,0"/>
			<path class="st10" d="M186,92.9L186,92.9c18.4-2,71.7-7.7,87.3-1.9"/>
			<path class="st10" d="M152.6,92.9C183.3,81.7,192.4,73,273.2,70"/>
			<path class="st10" d="M150.5,85.5c28.5-11.9,94.3-34.2,122.7-33.1V70v21v23.2"/>
			<path class="st10" d="M148.7,80c0,0,50.1-22.9,89-32.3c0.7-0.2,1.4-0.3,2.1-0.5c5.9-1.4,11.4-2.4,16.5-3
				c-0.4-4.3-1.7-8.9-4.6-8.9c-0.9,0-2,0.5-3.2,1.6c-5.2,4.6-8.7,10.2-8.7,10.2"/>
			<path class="st10" d="M146.4,72.8c21.6-12,53.5-26.7,69.9-26.7"/>
			<path class="st10" d="M236.8,35.9c0.5,4.9,0.9,11.8,0.9,11.8"/>
			<path class="st10" d="M142.9,62.7c8.9-6.6,35.9-25.5,53.6-33.8c5.1-2.4,9.5-3.9,12.4-3.9c1,3,2,6.1,3,8.9
				c2.3,6.8,4.4,12.1,4.4,12.1c3.6-4.1,11.7-13,14.5-14.2c0.9-0.4,1.8-0.9,2.5-1.3c1.5-0.7,2.5-0.8,3,1.6c0.2,0.9,0.3,2.3,0.5,3.8"
				/>
			<path class="st10" d="M251.7,35.4c-9.4,0-14.7,0.5-15,0.5c0,0,0,0,0,0"/>
			<path class="st10" d="M211.9,33.9c0,0,11.3-2.6,16.9-2.4c0.8,0,1.5,0.1,2,0.3"/>
			<path class="st10" d="M136.9,48.1c20.3-11.5,51.5-26.6,54.8-27.2c0.6-0.1,1.2,0.1,1.7,0.5c0.3,0.3,0.7,0.7,1,1.2
				c0.8,1.3,1.4,3.1,1.7,4.5c0.3,1.1,0.4,1.9,0.4,1.9"/>
			<path class="st10" d="M211.9,13.5c2.2-0.2,4.7,0.7,6.7,3.3c0.8,1,1.8,2.4,2.9,4c3.3,4.7,7.3,10.7,7.3,10.7"/>
			<path class="st10" d="M196.1,27c6.1-8.5,10.8-10.7,13-12.4c0.7-0.6,1.7-1,2.8-1.1"/>
			<path class="st10" d="M221.5,20.8c4.2-1.2,9.5,0.2,11.8,9.8"/>
			<path class="st10" d="M135.4,44.3c10.4-5.3,39.6-21,46.7-24.7c0.8-0.4,1.3-0.7,1.5-0.8c1.5-0.8,7.2,0,9.8,2.5
				c0.1,0.1,0.1,0.1,0.2,0.2"/>
			<path class="st10" d="M134.6,42.5c0,0,37.9-22.1,39.6-22.9c1.7-0.8,5.8-1.6,7.9,0"/>
			<path class="st10" d="M122.4,29c27.1-5.9,60-22.1,62.7-22.7s6.7-2.9,10.2,7.2c0,0,8.9-1.7,16.6,0h0"/>
			<path class="st10" d="M195.3,13.5c0.2,3.6-1,9-1,9"/>
			<path class="st10" d="M256.3,44.3c5.9,1,11.5,4,16.9,8.1"/>
			<path class="st10" d="M79.4,80c0,0,4.2,15.2,4.1,17.1"/>
			<line class="st10" x1="87.5" y1="134.1" x2="95.7" y2="129.4"/>
			<polyline class="st10" points="73.3,142.2 76.5,140.4 81.4,137.6 85,135.6 87.5,134.1 			"/>
			<path class="st10" d="M16,82.9L16,82.9c3.5,3.2,14,19.5,18.2,26.4c0.7,1.1,1.2,1.9,1.5,2.4c1.2,2,4,5.9,6.8,9.3
				c2.7,3.2,5.4,6,6.8,6.4c2.1,0.6,4.2,0.2,6.1-1.6c0.8-0.7,1.5-1.7,2.2-3c0.8-1.5,1.6-3.1,2.4-4.6c0.7-1.4,1.4-2.7,2-3.8
				c0.8-1.4,1.4-2.5,1.7-2.9c0.6-0.7,2-1.7,3-1.1c0.6,0.3,1.1,1.2,1.2,2.9c0.2,2.1,0.6,8.3,1,14.6c0.3,4.5,0.6,9,0.8,12.1
				c0.2,2.5,0.2,4.1,0.2,4.1l3.3-1.9"/>
			<path class="st10" d="M66.7,110.4c1.8,0.9,4.6,2,7.5,2.8c1.7,0.5,3.5,0.9,5.1,1c0.8,0.1,1.5,0.1,2.2,0"/>
			<path class="st10" d="M34.9,78.1c3.5,9.7,9.5,24.7,26.8,36.2"/>
			<path class="st10" d="M31.4,79.8C35.4,89,44,108.6,60,118.2h0"/>
			<path class="st10" d="M27.4,81c6.3,13.7,18.8,36.2,30.2,41.8"/>
			<path class="st10" d="M42.5,121c-1,4.3-3.1,15.3,4.5,14.4c0.7-0.1,1.5-0.2,2.3-0.5c3.4-1,5.6-0.6,6.2-3.9
				c0.1-0.7,0.2-1.6,0.1-2.8c0-0.7-0.1-1.5-0.2-2.4v0"/>
			<path class="st10" d="M47,135.4c0,0,12.3,9.7,14.7,9.8c1.2,0.1,3.1-0.6,4.7-1.6c1-0.6,1.9-1.3,2.5-2c0.4-0.5,0.7-1.1,0.8-1.6"/>
			<path class="st10" d="M55.5,131c0,0,11.3,10.6,13.4,10.6"/>
			<path class="st10" d="M55.6,128.2c0,0,9.7,0.6,13.3-0.3"/>
			<path class="st10" d="M74.3,113.2c-1.2,0-0.1,20.2,2.2,27.2"/>
			<path class="st10" d="M79.3,114.2c-0.7,2.7,0.1,20.5,2.1,23.4"/>
			<path class="st10" d="M82.9,117.2C82.9,117.2,82.9,117.2,82.9,117.2c0,0.6-0.2,16.1,2,18.3"/>
			<path class="st10" d="M67.3,143l-0.9,0.6l-8.8,6.6l4.1,2.8c0,0,7.4-4.5,11.1-10c0.2-0.3,0.3-0.5,0.5-0.8v0"/>
			<path class="st10" d="M72.8,143c0,0,4.4,1.1,9.8,0.4"/>
			<polyline class="st10" points="87.5,134.1 87.5,134.1 82.6,143.4 76.6,154.6 85,158.7 90.1,143 93.1,133.9 93.2,133.6 
				93.2,133.5 			"/>
			<path class="st10" d="M90.3,143c0,0,4.5,0,7-2.1"/>
			<path class="st10" d="M113.6,139.2c3.7-3.1,14.4-12.3,17.6-15.8"/>
			<path class="st10" d="M110.1,137.3c3-2.5,14.6-10.8,16.8-14.1"/>
			<path class="st10" d="M106.7,135.6c4.8-3.4,12.7-8.9,16.7-12.7"/>
			<path class="st10" d="M144.7,127.2c9.6-1.3,29.6-0.6,63.4-22.1"/>
			<path class="st10" d="M146.6,130.3c8.6,0,20.7,0.7,64.5-21.7c0,0,0,0,0,0"/>
			<path class="st10" d="M142.2,124.8c0,0,19-0.5,45.4-11.7c18.6-7.9,18.9-9.4,18.4-9.7c-0.1-0.1-0.2-0.1-0.2-0.1"/>
			<path class="st10" d="M88.1,11.4C88.1,11.4,88.1,11.5,88.1,11.4c4.8,3.8,26.5,20.5,28.7,23.3"/>
			<polyline class="st10" points="204.3,124.8 212.4,132.5 228.8,120.1 			"/>
			<polyline class="st10" points="201.3,126.9 211.9,137.9 233.7,122 			"/>
			<polyline class="st10" points="198.6,128.7 212.4,143.7 237.2,123.3 			"/>
			<line class="st10" x1="175.2" y1="129.5" x2="175.2" y2="139.8"/>
			<path class="st12" d="M87.2,38.3c1,0,1.9-0.8,2.6-1.5c0,0,0,0,0,0"/>
		</g>
	</g>
</g>
</svg>
