<?xml version="1.0" encoding="UTF-8"?>
<svg id="_レイヤー_1" data-name=" レイヤー 1" xmlns="http://www.w3.org/2000/svg" version="1.1" xmlns:xlink="http://www.w3.org/1999/xlink" viewBox="0 0 273.9 225">
  <defs>
    <style>
      .cls-1 {
        clip-path: url(#clippath-73);
      }

      .cls-2 {
        clip-path: url(#clippath-72);
      }

      .cls-3 {
        clip-path: url(#clippath-62);
      }

      .cls-4 {
        fill: #8fbfbf;
      }

      .cls-4, .cls-5, .cls-6, .cls-7, .cls-8, .cls-9, .cls-10, .cls-11, .cls-12 {
        stroke-width: 0px;
      }

      .cls-13 {
        clip-path: url(#clippath-45);
      }

      .cls-14 {
        clip-path: url(#clippath-63);
      }

      .cls-15 {
        clip-path: url(#clippath-20);
      }

      .cls-16 {
        clip-path: url(#clippath-11);
      }

      .cls-17 {
        clip-path: url(#clippath-16);
      }

      .cls-18 {
        clip-path: url(#clippath-59);
      }

      .cls-19 {
        clip-path: url(#clippath-78);
      }

      .cls-20 {
        clip-path: url(#clippath-93);
      }

      .cls-21 {
        clip-path: url(#clippath-89);
      }

      .cls-22 {
        clip-path: url(#clippath-33);
      }

      .cls-23 {
        clip-path: url(#clippath-64);
      }

      .cls-24 {
        clip-path: url(#clippath-47);
      }

      .cls-25 {
        clip-path: url(#clippath-77);
      }

      .cls-26 {
        clip-path: url(#clippath-41);
      }

      .cls-27 {
        clip-path: url(#clippath-32);
      }

      .cls-28 {
        clip-path: url(#clippath-87);
      }

      .cls-29 {
        clip-path: url(#clippath-83);
      }

      .cls-30 {
        clip-path: url(#clippath-2);
      }

      .cls-31 {
        clip-path: url(#clippath-13);
      }

      .cls-32 {
        clip-path: url(#clippath-88);
      }

      .cls-5 {
        fill: #fcecca;
      }

      .cls-33 {
        clip-path: url(#clippath-37);
      }

      .cls-34 {
        clip-path: url(#clippath-46);
      }

      .cls-35 {
        clip-path: url(#clippath-25);
      }

      .cls-6 {
        fill: #e66e5d;
      }

      .cls-36 {
        clip-path: url(#clippath-15);
      }

      .cls-37 {
        clip-path: url(#clippath-6);
      }

      .cls-38 {
        stroke-miterlimit: 10;
      }

      .cls-38, .cls-7, .cls-39 {
        fill: none;
      }

      .cls-38, .cls-39 {
        stroke: #000;
      }

      .cls-40 {
        clip-path: url(#clippath-76);
      }

      .cls-41 {
        clip-path: url(#clippath-40);
      }

      .cls-42 {
        clip-path: url(#clippath-26);
      }

      .cls-43 {
        clip-path: url(#clippath-81);
      }

      .cls-44 {
        clip-path: url(#clippath-75);
      }

      .cls-45 {
        clip-path: url(#clippath-7);
      }

      .cls-46 {
        clip-path: url(#clippath-21);
      }

      .cls-47 {
        clip-path: url(#clippath-34);
      }

      .cls-48 {
        clip-path: url(#clippath-57);
      }

      .cls-49 {
        clip-path: url(#clippath-1);
      }

      .cls-50 {
        clip-path: url(#clippath-4);
      }

      .cls-51 {
        clip-path: url(#clippath-38);
      }

      .cls-52 {
        clip-path: url(#clippath-36);
      }

      .cls-53 {
        clip-path: url(#clippath-27);
      }

      .cls-8 {
        fill: #d2d296;
      }

      .cls-54 {
        clip-path: url(#clippath-60);
      }

      .cls-55 {
        clip-path: url(#clippath-44);
      }

      .cls-56 {
        clip-path: url(#clippath-12);
      }

      .cls-9 {
        fill: #f3edd7;
      }

      .cls-57 {
        clip-path: url(#clippath-80);
      }

      .cls-58 {
        clip-path: url(#clippath-24);
      }

      .cls-59 {
        clip-path: url(#clippath-30);
      }

      .cls-60 {
        clip-path: url(#clippath-79);
      }

      .cls-61 {
        clip-path: url(#clippath-22);
      }

      .cls-62 {
        clip-path: url(#clippath-9);
      }

      .cls-63 {
        clip-path: url(#clippath-82);
      }

      .cls-64 {
        clip-path: url(#clippath-52);
      }

      .cls-65 {
        clip-path: url(#clippath);
      }

      .cls-66 {
        clip-path: url(#clippath-50);
      }

      .cls-67 {
        clip-path: url(#clippath-48);
      }

      .cls-68 {
        clip-path: url(#clippath-61);
      }

      .cls-69 {
        clip-path: url(#clippath-39);
      }

      .cls-70 {
        clip-path: url(#clippath-19);
      }

      .cls-71 {
        clip-path: url(#clippath-31);
      }

      .cls-72 {
        clip-path: url(#clippath-86);
      }

      .cls-73 {
        clip-path: url(#clippath-54);
      }

      .cls-74 {
        clip-path: url(#clippath-3);
      }

      .cls-39 {
        stroke-linecap: round;
        stroke-linejoin: round;
      }

      .cls-75 {
        clip-path: url(#clippath-91);
      }

      .cls-76 {
        clip-path: url(#clippath-43);
      }

      .cls-77 {
        clip-path: url(#clippath-70);
      }

      .cls-10 {
        fill: #333;
      }

      .cls-11 {
        fill: #f2f0d9;
      }

      .cls-78 {
        clip-path: url(#clippath-8);
      }

      .cls-79 {
        clip-path: url(#clippath-55);
      }

      .cls-80 {
        clip-path: url(#clippath-69);
      }

      .cls-81 {
        clip-path: url(#clippath-29);
      }

      .cls-82 {
        clip-path: url(#clippath-18);
      }

      .cls-83 {
        clip-path: url(#clippath-90);
      }

      .cls-84 {
        clip-path: url(#clippath-14);
      }

      .cls-85 {
        clip-path: url(#clippath-17);
      }

      .cls-86 {
        clip-path: url(#clippath-5);
      }

      .cls-87 {
        clip-path: url(#clippath-58);
      }

      .cls-88 {
        clip-path: url(#clippath-84);
      }

      .cls-89 {
        clip-path: url(#clippath-42);
      }

      .cls-90 {
        clip-path: url(#clippath-65);
      }

      .cls-91 {
        clip-path: url(#clippath-10);
      }

      .cls-92 {
        clip-path: url(#clippath-23);
      }

      .cls-93 {
        clip-path: url(#clippath-92);
      }

      .cls-94 {
        clip-path: url(#clippath-74);
      }

      .cls-95 {
        clip-path: url(#clippath-56);
      }

      .cls-96 {
        clip-path: url(#clippath-53);
      }

      .cls-97 {
        clip-path: url(#clippath-49);
      }

      .cls-98 {
        clip-path: url(#clippath-67);
      }

      .cls-99 {
        clip-path: url(#clippath-51);
      }

      .cls-12 {
        fill: #d6c776;
      }

      .cls-100 {
        clip-path: url(#clippath-28);
      }

      .cls-101 {
        clip-path: url(#clippath-71);
      }

      .cls-102 {
        clip-path: url(#clippath-85);
      }

      .cls-103 {
        clip-path: url(#clippath-68);
      }

      .cls-104 {
        clip-path: url(#clippath-35);
      }

      .cls-105 {
        clip-path: url(#clippath-66);
      }
    </style>
    <clipPath id="clippath">
      <rect class="cls-7" x="20.5" y="40" width="253.4" height="170.8"/>
    </clipPath>
    <clipPath id="clippath-1">
      <rect class="cls-7" x="20.5" y="40" width="253.4" height="170.8"/>
    </clipPath>
    <clipPath id="clippath-2">
      <rect class="cls-7" x="20.5" y="40" width="253.4" height="170.8"/>
    </clipPath>
    <clipPath id="clippath-3">
      <rect class="cls-7" x="20.5" y="40" width="253.4" height="170.8"/>
    </clipPath>
    <clipPath id="clippath-4">
      <rect class="cls-7" x="20.5" y="40" width="253.4" height="170.8"/>
    </clipPath>
    <clipPath id="clippath-5">
      <rect class="cls-7" x="20.5" y="40" width="253.4" height="170.8"/>
    </clipPath>
    <clipPath id="clippath-6">
      <rect class="cls-7" x="20.5" y="40" width="253.4" height="170.8"/>
    </clipPath>
    <clipPath id="clippath-7">
      <rect class="cls-7" x="20.5" y="40" width="253.4" height="170.8"/>
    </clipPath>
    <clipPath id="clippath-8">
      <rect class="cls-7" x="20.5" y="40" width="253.4" height="170.8"/>
    </clipPath>
    <clipPath id="clippath-9">
      <rect class="cls-7" x="20.5" y="40" width="253.4" height="170.8"/>
    </clipPath>
    <clipPath id="clippath-10">
      <rect class="cls-7" x="20.5" y="40" width="253.4" height="170.8"/>
    </clipPath>
    <clipPath id="clippath-11">
      <rect class="cls-7" x="20.5" y="40" width="253.4" height="170.8"/>
    </clipPath>
    <clipPath id="clippath-12">
      <rect class="cls-7" x="20.5" y="40" width="253.4" height="170.8"/>
    </clipPath>
    <clipPath id="clippath-13">
      <rect class="cls-7" x="20.5" y="40" width="253.4" height="170.8"/>
    </clipPath>
    <clipPath id="clippath-14">
      <rect class="cls-7" x="20.5" y="40" width="253.4" height="170.8"/>
    </clipPath>
    <clipPath id="clippath-15">
      <rect class="cls-7" x="20.5" y="40" width="253.4" height="170.8"/>
    </clipPath>
    <clipPath id="clippath-16">
      <rect class="cls-7" x="20.5" y="40" width="253.4" height="170.8"/>
    </clipPath>
    <clipPath id="clippath-17">
      <rect class="cls-7" x="20.5" y="40" width="253.4" height="170.8"/>
    </clipPath>
    <clipPath id="clippath-18">
      <rect class="cls-7" x="20.5" y="40" width="253.4" height="170.8"/>
    </clipPath>
    <clipPath id="clippath-19">
      <rect class="cls-7" x="20.5" y="40" width="253.4" height="170.8"/>
    </clipPath>
    <clipPath id="clippath-20">
      <rect class="cls-7" x="20.5" y="40" width="253.4" height="170.8"/>
    </clipPath>
    <clipPath id="clippath-21">
      <rect class="cls-7" x="20.5" y="40" width="253.4" height="170.8"/>
    </clipPath>
    <clipPath id="clippath-22">
      <rect class="cls-7" x="20.5" y="40" width="253.4" height="170.8"/>
    </clipPath>
    <clipPath id="clippath-23">
      <rect class="cls-7" x="20.5" y="40" width="253.4" height="170.8"/>
    </clipPath>
    <clipPath id="clippath-24">
      <rect class="cls-7" x="20.5" y="40" width="253.4" height="170.8"/>
    </clipPath>
    <clipPath id="clippath-25">
      <rect class="cls-7" x="20.5" y="40" width="253.4" height="170.8"/>
    </clipPath>
    <clipPath id="clippath-26">
      <rect class="cls-7" x="20.5" y="40" width="253.4" height="170.8"/>
    </clipPath>
    <clipPath id="clippath-27">
      <rect class="cls-7" x="20.5" y="40" width="253.4" height="170.8"/>
    </clipPath>
    <clipPath id="clippath-28">
      <rect class="cls-7" x="20.5" y="40" width="253.4" height="170.8"/>
    </clipPath>
    <clipPath id="clippath-29">
      <rect class="cls-7" x="20.5" y="40" width="253.4" height="170.8"/>
    </clipPath>
    <clipPath id="clippath-30">
      <rect class="cls-7" x="20.5" y="40" width="253.4" height="170.8"/>
    </clipPath>
    <clipPath id="clippath-31">
      <rect class="cls-7" x="20.5" y="40" width="253.4" height="170.8"/>
    </clipPath>
    <clipPath id="clippath-32">
      <rect class="cls-7" x="20.5" y="40" width="253.4" height="170.8"/>
    </clipPath>
    <clipPath id="clippath-33">
      <rect class="cls-7" x="20.5" y="40" width="253.4" height="170.8"/>
    </clipPath>
    <clipPath id="clippath-34">
      <rect class="cls-7" x="20.5" y="40" width="253.4" height="170.8"/>
    </clipPath>
    <clipPath id="clippath-35">
      <rect class="cls-7" x="20.5" y="40" width="253.4" height="170.8"/>
    </clipPath>
    <clipPath id="clippath-36">
      <rect class="cls-7" x="20.5" y="40" width="253.4" height="170.8"/>
    </clipPath>
    <clipPath id="clippath-37">
      <rect class="cls-7" x="20.5" y="40" width="253.4" height="170.8"/>
    </clipPath>
    <clipPath id="clippath-38">
      <rect class="cls-7" x="20.5" y="40" width="253.4" height="170.8"/>
    </clipPath>
    <clipPath id="clippath-39">
      <rect class="cls-7" x="20.5" y="40" width="253.4" height="170.8"/>
    </clipPath>
    <clipPath id="clippath-40">
      <rect class="cls-7" x="20.5" y="40" width="253.4" height="170.8"/>
    </clipPath>
    <clipPath id="clippath-41">
      <rect class="cls-7" x="20.5" y="40" width="253.4" height="170.8"/>
    </clipPath>
    <clipPath id="clippath-42">
      <rect class="cls-7" x="20.5" y="40" width="253.4" height="170.8"/>
    </clipPath>
    <clipPath id="clippath-43">
      <rect class="cls-7" x="20.5" y="40" width="253.4" height="170.8"/>
    </clipPath>
    <clipPath id="clippath-44">
      <rect class="cls-7" x="20.5" y="40" width="253.4" height="170.8"/>
    </clipPath>
    <clipPath id="clippath-45">
      <rect class="cls-7" x="20.5" y="40" width="253.4" height="170.8"/>
    </clipPath>
    <clipPath id="clippath-46">
      <rect class="cls-7" x="20.5" y="40" width="253.4" height="170.8"/>
    </clipPath>
    <clipPath id="clippath-47">
      <rect class="cls-7" x="20.5" y="40" width="253.4" height="170.8"/>
    </clipPath>
    <clipPath id="clippath-48">
      <rect class="cls-7" x="20.5" y="40" width="253.4" height="170.8"/>
    </clipPath>
    <clipPath id="clippath-49">
      <rect class="cls-7" x="20.5" y="40" width="253.4" height="170.8"/>
    </clipPath>
    <clipPath id="clippath-50">
      <rect class="cls-7" x="20.5" y="40" width="253.4" height="170.8"/>
    </clipPath>
    <clipPath id="clippath-51">
      <rect class="cls-7" x="20.5" y="40" width="253.4" height="170.8"/>
    </clipPath>
    <clipPath id="clippath-52">
      <rect class="cls-7" x="20.5" y="40" width="253.4" height="170.8"/>
    </clipPath>
    <clipPath id="clippath-53">
      <rect class="cls-7" x="20.5" y="40" width="253.4" height="170.8"/>
    </clipPath>
    <clipPath id="clippath-54">
      <rect class="cls-7" x="20.5" y="40" width="253.4" height="170.8"/>
    </clipPath>
    <clipPath id="clippath-55">
      <rect class="cls-7" x="20.5" y="40" width="253.4" height="170.8"/>
    </clipPath>
    <clipPath id="clippath-56">
      <rect class="cls-7" x="20.5" y="40" width="253.4" height="170.8"/>
    </clipPath>
    <clipPath id="clippath-57">
      <rect class="cls-7" x="20.5" y="40" width="253.4" height="170.8"/>
    </clipPath>
    <clipPath id="clippath-58">
      <rect class="cls-7" x="20.5" y="40" width="253.4" height="170.8"/>
    </clipPath>
    <clipPath id="clippath-59">
      <rect class="cls-7" x="20.5" y="40" width="253.4" height="170.8"/>
    </clipPath>
    <clipPath id="clippath-60">
      <rect class="cls-7" x="20.5" y="40" width="253.4" height="170.8"/>
    </clipPath>
    <clipPath id="clippath-61">
      <rect class="cls-7" x="20.5" y="40" width="253.4" height="170.8"/>
    </clipPath>
    <clipPath id="clippath-62">
      <rect class="cls-7" x="20.5" y="40" width="253.4" height="170.8"/>
    </clipPath>
    <clipPath id="clippath-63">
      <rect class="cls-7" x="20.5" y="40" width="253.4" height="170.8"/>
    </clipPath>
    <clipPath id="clippath-64">
      <rect class="cls-7" x="20.5" y="40" width="253.4" height="170.8"/>
    </clipPath>
    <clipPath id="clippath-65">
      <rect class="cls-7" x="20.5" y="40" width="253.4" height="170.8"/>
    </clipPath>
    <clipPath id="clippath-66">
      <rect class="cls-7" x="20.5" y="40" width="253.4" height="170.8"/>
    </clipPath>
    <clipPath id="clippath-67">
      <rect class="cls-7" x="20.5" y="40" width="253.4" height="170.8"/>
    </clipPath>
    <clipPath id="clippath-68">
      <rect class="cls-7" x="20.5" y="40" width="253.4" height="170.8"/>
    </clipPath>
    <clipPath id="clippath-69">
      <rect class="cls-7" x="20.5" y="40" width="253.4" height="170.8"/>
    </clipPath>
    <clipPath id="clippath-70">
      <rect class="cls-7" x="20.5" y="40" width="253.4" height="170.8"/>
    </clipPath>
    <clipPath id="clippath-71">
      <rect class="cls-7" x="20.5" y="40" width="253.4" height="170.8"/>
    </clipPath>
    <clipPath id="clippath-72">
      <rect class="cls-7" x="20.5" y="40" width="253.4" height="170.8"/>
    </clipPath>
    <clipPath id="clippath-73">
      <rect class="cls-7" x="20.5" y="40" width="253.4" height="170.8"/>
    </clipPath>
    <clipPath id="clippath-74">
      <rect class="cls-7" x="20.5" y="40" width="253.4" height="170.8"/>
    </clipPath>
    <clipPath id="clippath-75">
      <rect class="cls-7" x="20.5" y="40" width="253.4" height="170.8"/>
    </clipPath>
    <clipPath id="clippath-76">
      <rect class="cls-7" x="20.5" y="40" width="253.4" height="170.8"/>
    </clipPath>
    <clipPath id="clippath-77">
      <rect class="cls-7" x="20.5" y="40" width="253.4" height="170.8"/>
    </clipPath>
    <clipPath id="clippath-78">
      <rect class="cls-7" x="20.5" y="40" width="253.4" height="170.8"/>
    </clipPath>
    <clipPath id="clippath-79">
      <rect class="cls-7" x="20.5" y="40" width="253.4" height="170.8"/>
    </clipPath>
    <clipPath id="clippath-80">
      <rect class="cls-7" x="20.5" y="40" width="253.4" height="170.8"/>
    </clipPath>
    <clipPath id="clippath-81">
      <rect class="cls-7" x="20.5" y="40" width="253.4" height="170.8"/>
    </clipPath>
    <clipPath id="clippath-82">
      <rect class="cls-7" x="20.5" y="40" width="253.4" height="170.8"/>
    </clipPath>
    <clipPath id="clippath-83">
      <rect class="cls-7" x="20.5" y="40" width="253.4" height="170.8"/>
    </clipPath>
    <clipPath id="clippath-84">
      <rect class="cls-7" x="20.5" y="40" width="253.4" height="170.8"/>
    </clipPath>
    <clipPath id="clippath-85">
      <rect class="cls-7" x="20.5" y="40" width="253.4" height="170.8"/>
    </clipPath>
    <clipPath id="clippath-86">
      <rect class="cls-7" x="20.5" y="40" width="253.4" height="170.8"/>
    </clipPath>
    <clipPath id="clippath-87">
      <rect class="cls-7" x="20.5" y="40" width="253.4" height="170.8"/>
    </clipPath>
    <clipPath id="clippath-88">
      <rect class="cls-7" x="20.5" y="40" width="253.4" height="170.8"/>
    </clipPath>
    <clipPath id="clippath-89">
      <rect class="cls-7" x="20.5" y="40" width="253.4" height="170.8"/>
    </clipPath>
    <clipPath id="clippath-90">
      <rect class="cls-7" x="20.5" y="40" width="253.4" height="170.8"/>
    </clipPath>
    <clipPath id="clippath-91">
      <rect class="cls-7" x="20.5" y="40" width="253.4" height="170.8"/>
    </clipPath>
    <clipPath id="clippath-92">
      <rect class="cls-7" x="20.5" y="40" width="253.4" height="170.8"/>
    </clipPath>
    <clipPath id="clippath-93">
      <rect class="cls-7" x="20.5" y="40" width="253.4" height="170.8"/>
    </clipPath>
  </defs>
  <g id="_レイヤー_3" data-name=" レイヤー 3">
    <g>
      <path class="cls-9" d="M0,189.8h3.7v5.1H0v-5.1ZM274,217.8v6.7h-30.9l15.6-8.8c1,1.6,3.2,2.8,5.6,2.8s4.7-1.2,5.7-2.9l4,2.2h0Z"/>
      <path class="cls-9" d="M274,207.1v10.7l-4-2.3c.4-.7.6-1.4.6-2.2,0-1.3-.6-2.5-1.6-3.4l5-2.8Z"/>
      <path class="cls-9" d="M274,194.9v12.2l-5.1,2.8c-1.2-1-2.8-1.7-4.7-1.7s-3.4.6-4.5,1.5l-26.5-14.9h40.8ZM274,118v5.8H0v-5.8h274Z"/>
      <path class="cls-9" d="M269.9,189.8h4.1v5.1h-4.1v-5.1ZM270.5,213.4c0,.8-.2,1.5-.6,2.2l-5.5-3.1,4.5-2.5c1,.9,1.6,2.1,1.6,3.4h0ZM264.4,212.5l5.5,3.1c-1,1.7-3.2,2.9-5.7,2.9s-4.5-1.1-5.6-2.8l5.8-3.2h0Z"/>
      <path class="cls-10" d="M258.4,189.8h11.5v5.1h-11.5v-5.1Z"/>
      <path class="cls-9" d="M268.9,210l-4.5,2.5-4.7-2.6c1.1-.9,2.7-1.5,4.5-1.5,1.9-.1,3.5.5,4.7,1.6Z"/>
      <path class="cls-9" d="M264.4,212.5l-5.8,3.3c-.4-.7-.7-1.5-.7-2.3,0-1.4.7-2.6,1.8-3.6l4.7,2.6Z"/>
      <path class="cls-9" d="M233.2,194.9l26.5,14.9c-1.1.9-1.8,2.2-1.8,3.6s.3,1.6.7,2.3l-15.6,8.8h-42.1l-15.9-8.9c.4-.7.6-1.4.6-2.2,0-1.3-.6-2.5-1.6-3.4l26.7-15h22.5,0ZM227.2,213.4c0-2.8-2.3-5.1-5.1-5.1s-5.1,2.3-5.1,5.1,2.3,5.1,5.1,5.1,5.1-2.3,5.1-5.1ZM258.4,194.9h-31v-5.1h31v5.1Z"/>
      <path class="cls-10" d="M216,189.8h11.5v5.1h-11.5v-5.1ZM222.1,208.3c2.8,0,5.1,2.3,5.1,5.1s-2.3,5.1-5.1,5.1-5.1-2.3-5.1-5.1,2.3-5.1,5.1-5.1Z"/>
      <path class="cls-9" d="M210.8,194.9l-26.7,15c-1.2-1-2.8-1.7-4.7-1.7s-3.4.6-4.5,1.5l-26.5-14.9h62.4,0Z"/>
      <path class="cls-9" d="M185,194.9v-5.1h31v5.1h-31ZM200.9,224.5h-42.8l15.6-8.8c1,1.6,3.2,2.8,5.6,2.8s4.7-1.2,5.7-2.9l15.9,8.9ZM185.7,213.4c0,.8-.2,1.5-.6,2.2l-5.5-3.1,4.5-2.5c.9.9,1.6,2.1,1.6,3.4h0Z"/>
      <path class="cls-9" d="M179.6,212.5l5.5,3.1c-1,1.7-3.2,2.9-5.7,2.9s-4.5-1.1-5.6-2.8l5.8-3.2Z"/>
      <path class="cls-10" d="M173.5,189.8h11.5v5.1h-11.5v-5.1Z"/>
      <path class="cls-9" d="M179.4,208.3c1.9,0,3.5.6,4.7,1.7l-4.5,2.5-4.7-2.6c1.1-1,2.7-1.6,4.5-1.6h0ZM179.6,212.5l-5.8,3.3c-.4-.7-.7-1.5-.7-2.3,0-1.4.7-2.6,1.8-3.6l4.7,2.6Z"/>
      <path class="cls-9" d="M148.4,194.9l26.5,14.9c-1.1.9-1.8,2.2-1.8,3.6s.3,1.6.7,2.3l-15.6,8.8h-42.1l-15.9-8.9c.4-.7.6-1.4.6-2.2,0-1.3-.6-2.5-1.6-3.4l26.7-15h22.5ZM141.2,213.4c0-2.8-2.3-5.1-5.1-5.1s-5.1,2.3-5.1,5.1,2.3,5.1,5.1,5.1,5.1-2.3,5.1-5.1ZM173.5,194.9h-31v-5.1h31v5.1Z"/>
      <path class="cls-10" d="M131,189.8h11.5v5.1h-11.5v-5.1ZM136.1,208.3c2.8,0,5.1,2.3,5.1,5.1s-2.3,5.1-5.1,5.1-5.1-2.3-5.1-5.1,2.3-5.1,5.1-5.1Z"/>
      <path class="cls-9" d="M125.9,194.9l-26.7,15c-1.2-1-2.8-1.7-4.7-1.7s-3.4.6-4.5,1.5l-26.5-14.9h62.4Z"/>
      <path class="cls-9" d="M131,194.9h-30.9v-5.1h30.9v5.1ZM116.1,224.5h-42.8l15.6-8.8c1,1.6,3.2,2.8,5.6,2.8s4.7-1.2,5.7-2.9l15.9,8.9ZM100.8,213.4c0,.8-.2,1.5-.6,2.2l-5.5-3.1,4.5-2.5c.9.9,1.6,2.1,1.6,3.4h0Z"/>
      <path class="cls-9" d="M94.7,212.5l5.5,3.1c-1,1.7-3.2,2.9-5.7,2.9s-4.5-1.1-5.6-2.8c0,0,5.8-3.2,5.8-3.2Z"/>
      <path class="cls-10" d="M88.6,189.8h11.5v5.1h-11.5v-5.1Z"/>
      <path class="cls-9" d="M94.5,208.3c1.9,0,3.5.6,4.7,1.7l-4.5,2.5-4.7-2.6c1.1-1,2.7-1.6,4.5-1.6h0ZM94.7,212.5l-5.8,3.3c-.4-.7-.7-1.5-.7-2.3,0-1.4.7-2.6,1.8-3.6l4.7,2.6Z"/>
      <path class="cls-9" d="M63.5,194.9l26.5,14.9c-1.1.9-1.8,2.2-1.8,3.6s.3,1.6.7,2.3l-15.6,8.8H31l-15.9-8.9c.4-.7.6-1.4.6-2.2,0-1.3-.6-2.5-1.6-3.4l26.7-15h22.7,0ZM54.8,213.4c0-2.8-2.3-5.1-5.1-5.1s-5.1,2.3-5.1,5.1,2.3,5.1,5.1,5.1,5.1-2.3,5.1-5.1ZM88.6,194.9h-31v-5.1h31v5.1Z"/>
      <path class="cls-10" d="M46.1,189.8h11.5v5.1h-11.5v-5.1ZM49.7,208.3c2.8,0,5.1,2.3,5.1,5.1s-2.3,5.1-5.1,5.1-5.1-2.3-5.1-5.1,2.3-5.1,5.1-5.1Z"/>
      <path class="cls-9" d="M46.1,194.9H15.1v-5.1h31v5.1ZM31,224.5H0v-6.6l3.8-2.1c1,1.6,3.2,2.8,5.6,2.8s4.7-1.2,5.7-2.9l15.9,8.8ZM15.7,213.4c0,.8-.2,1.5-.6,2.2l-5.5-3.1,4.5-2.5c1,.9,1.6,2.1,1.6,3.4h0Z"/>
      <path class="cls-10" d="M3.7,189.8h11.5v5.1H3.7v-5.1Z"/>
      <path class="cls-9" d="M9.6,212.5l5.5,3.1c-1,1.7-3.2,2.9-5.7,2.9s-4.5-1.1-5.6-2.8l5.8-3.2ZM9.4,208.3c1.9,0,3.5.6,4.7,1.7l-4.5,2.5-4.7-2.6c1.1-1,2.7-1.6,4.5-1.6h0Z"/>
      <path class="cls-9" d="M9.6,212.5l-5.8,3.3c-.4-.7-.7-1.5-.7-2.3,0-1.4.7-2.6,1.8-3.6l4.7,2.6Z"/>
      <path class="cls-9" d="M0,207.1l4.9,2.8c-1.1.9-1.8,2.2-1.8,3.6s.3,1.6.7,2.3l-3.8,2.1v-10.8h0Z"/>
      <path class="cls-8" d="M216,189.8H0v-66h274v66h-58Z"/>
      <path class="cls-9" d="M0,194.9h40.9l-26.7,15c-1.2-1-2.8-1.7-4.7-1.7s-3.4.6-4.5,1.5l-5-2.6v-12.2Z"/>
      <path class="cls-38" d="M274,224.5H0M0,118h274M0,123.8h274M269.9,189.8h4.1M227.4,189.8h31M185,189.8h31M142.5,189.8h31M100.1,189.8h30.9M57.6,189.8h31M15.1,189.8h31M0,189.8h3.7M269.9,194.9h4.1M227.4,194.9h31M185,194.9h31M142.5,194.9h31M100.1,194.9h30.9M57.6,194.9h31M15.1,194.9h31M0,194.9h3.7M73.3,224.5l15.6-8.8,5.8-3.2,4.4-2.5,26.8-15.1"/>
      <path class="cls-38" d="M116.1,224.5l-15.9-8.9-5.5-3.1-4.7-2.7-26.5-14.9M141.2,213.4c0,2.8-2.3,5.1-5.1,5.1s-5.1-2.3-5.1-5.1,2.3-5.1,5.1-5.1,5.1,2.3,5.1,5.1ZM227.2,213.4c0,2.8-2.3,5.1-5.1,5.1s-5.1-2.3-5.1-5.1,2.3-5.1,5.1-5.1,5.1,2.3,5.1,5.1Z"/>
      <path class="cls-38" d="M99.1,210c1,.9,1.6,2.1,1.6,3.4s-.2,1.5-.6,2.2c-1,1.7-3.2,2.9-5.7,2.9s-4.5-1.1-5.6-2.8c-.4-.7-.7-1.5-.7-2.3,0-1.4.7-2.6,1.8-3.6,1.1-.9,2.7-1.5,4.5-1.5s3.6.6,4.7,1.7h0ZM0,217.9l3.8-2.2,5.8-3.2,4.5-2.5,26.7-15.1"/>
      <path class="cls-38" d="M31,224.5l-15.9-8.9-5.5-3.1-4.7-2.7-4.9-2.7"/>
      <path class="cls-38" d="M14.1,210c1,.9,1.6,2.1,1.6,3.4s-.2,1.5-.6,2.2c-1,1.7-3.2,2.9-5.7,2.9s-4.5-1.1-5.6-2.8c-.4-.7-.7-1.5-.7-2.3,0-1.4.7-2.6,1.8-3.6,1.1-.9,2.7-1.5,4.5-1.5s3.5.6,4.7,1.7h0ZM158.2,224.5l15.6-8.8,5.8-3.2,4.4-2.5,26.8-15.1"/>
      <path class="cls-38" d="M200.9,224.5l-15.8-8.9-5.5-3.1-4.8-2.7-26.4-14.9"/>
      <path class="cls-38" d="M184,210c1,.9,1.6,2.1,1.6,3.4s-.2,1.5-.6,2.2c-1,1.7-3.2,2.9-5.7,2.9s-4.5-1.1-5.6-2.8c-.4-.7-.7-1.5-.7-2.3,0-1.4.7-2.6,1.8-3.6,1.1-.9,2.7-1.5,4.5-1.5s3.6.6,4.7,1.7h0ZM243.1,224.5l15.5-8.8,5.8-3.2,4.5-2.5,5.1-2.9"/>
      <path class="cls-38" d="M274,217.8l-4.1-2.2-5.5-3.1-4.7-2.7-26.5-14.9"/>
      <path class="cls-38" d="M268.9,210c1,.9,1.6,2.1,1.6,3.4s-.2,1.5-.6,2.2c-1,1.7-3.2,2.9-5.7,2.9s-4.5-1.1-5.6-2.8c-.4-.7-.7-1.5-.7-2.3,0-1.4.7-2.6,1.8-3.6,1.1-.9,2.7-1.5,4.5-1.5s3.5.6,4.7,1.7h0ZM54.8,213.4c0,2.8-2.3,5.1-5.1,5.1s-5.1-2.3-5.1-5.1,2.3-5.1,5.1-5.1,5.1,2.3,5.1,5.1ZM3.7,189.8h11.5v5.1H3.7v-5.1ZM46.1,189.8h11.5v5.1h-11.5v-5.1ZM88.6,189.8h11.5v5.1h-11.5v-5.1ZM131,189.8h11.5v5.1h-11.5v-5.1ZM173.5,189.8h11.5v5.1h-11.5v-5.1ZM216,189.8h11.5v5.1h-11.5v-5.1ZM258.4,189.8h11.5v5.1h-11.5v-5.1Z"/>
    </g>
  </g>
  <g id="_レイヤー_2" data-name=" レイヤー 2">
    <g class="cls-65">
      <path class="cls-6" d="M211.6,189.4l-16.6-1.7c11.6-1.7,21.8-16.1,21.8-16.1l6.8,6.4h2.9c.9,0,2.3-.5,4-1.1l16.3,8.4,3.1,2.8s19.3-.8,26.9-7.3v12.4l-17.7,11.4-3.8-3.5s-6-9.7-8.5-8.1c-2.4,1.6-7.9,11.4-7.9,11.4l-8.4,5.5-18.9-20.4h0Z"/>
    </g>
    <g class="cls-49">
      <path class="cls-12" d="M276.8,174.1v6.7c-7.6,6.5-26.9,7.3-26.9,7.3l-3.1-2.8s.8-1.8,2.5-5c0,0,20.9-3.7,27.5-6.2Z"/>
    </g>
    <g class="cls-30">
      <path class="cls-12" d="M276.8,169.8v4.4c-6.6,2.4-27.5,6.2-27.5,6.2.7-1.4,1.7-3,2.7-4.9,0,0,22.2-3.1,24.8-5.7Z"/>
    </g>
    <g class="cls-74">
      <path class="cls-12" d="M276.8,165.7v4c-2.6,2.8-24.8,5.7-24.8,5.7.6-1.2,1.5-2.5,2.3-4,0,0,13-2.2,22.5-5.7Z"/>
    </g>
    <g class="cls-50">
      <path class="cls-4" d="M234.5,154.6c-14.9-3.4-30.5-6-30.5-6l-.5-2.5c17.1-3.3,32.5-6.9,39.2-9,17.7,1.9,34.2,6,34.2,6v22.6c-9.5,3.4-22.5,5.8-22.5,5.8,1.5-2.6,3.2-5.5,5.3-8.6-.8-.6-1.9-1.3-3.4-1.9-1.9-.8-4.4-1.7-7.1-2.6s-3-.8-4.5-1.3c-1.8-.5-3.6-.9-5.6-1.5-1.6-.3-3.1-.6-4.5-1h0Z"/>
    </g>
    <g class="cls-86">
      <path class="cls-11" d="M276.8,126.4v16.8s-16.6-4.2-34.2-6c18-7,34.2-10.7,34.2-10.7h0Z"/>
    </g>
    <g class="cls-37">
      <path class="cls-11" d="M276.8,109.4v17s-16.3,3.7-34.2,10.7c-6.7,2-22,5.6-39.2,9-6.3,1.2-12.9,2.4-19.3,3.5-1.3-1.4-2.6-2.7-3.9-3.7-7.9-6.1-24.5-1.1-31.7,1.4,0,0-1-2.1-2.3-5.8,13.3-2.8,93.6-18.6,123.6-29.7l7-2.4h0Z"/>
    </g>
    <g class="cls-45">
      <path class="cls-11" d="M264.7,101.8l5,9.9c-30,11.2-110.2,26.9-123.6,29.7-.9-2.5-2-5.7-3.1-9.3,31.5-4.8,103.9-20.8,121.7-30.3Z"/>
    </g>
    <g class="cls-78">
      <path class="cls-11" d="M253,83.9l15.4,15.8-3.6,2.1c-17.9,9.4-90.3,25.5-121.7,30.3-.6-2.2-1.3-4.6-1.9-7.2,20.5-1.9,64.6-16.9,79.2-22.2,1.2-.5,2.3-.8,3.4-1.3,1.3-.6,2.5-1.1,3.7-1.7l3-1.5c2.6-1.4,4.8-2.8,6.8-4.3,4.4-3.2,7.3-6.4,8.7-8.6l7.1-1.5h0Z"/>
    </g>
    <g class="cls-62">
      <path class="cls-6" d="M256.1,161c1.5.6,2.6,1.3,3.4,1.9-2,3.1-3.8,6-5.3,8.6-.8,1.4-1.6,2.8-2.3,4-1,1.9-1.9,3.5-2.7,4.9-1.7,3.2-2.5,5-2.5,5l-16.3-8.4c8.8-3.8,25.2-15.6,25.6-16,0,0,.1,0,.1,0ZM255.3,201l-11.1-.2-5.3,3.4s5.5-9.8,7.9-11.4c2.5-1.6,8.5,8.1,8.5,8.1h0Z"/>
    </g>
    <g class="cls-91">
      <path class="cls-12" d="M249,158.4c2.8.8,5.2,1.7,7.1,2.6-.5.4-16.8,12.2-25.6,16-1.7.7-3.1,1.1-4,1.1h-2.9l-6.8-6.4c4.6-.3,23.6-8.2,32.1-13.3,0,0,.1,0,.1,0Z"/>
    </g>
    <g class="cls-16">
      <path class="cls-6" d="M245.6,77.8l.3,7.5-2.6-5-9.8,3.3-4.8-20.6,16.9,14.7h0Z"/>
    </g>
    <g class="cls-56">
      <path class="cls-6" d="M243.3,80.3l2.6,5c-1.4,2.2-4.3,5.4-8.7,8.6l-.2-.3c-2.7-1-5.5-4.8-7.7-8.6l4.3-1.5,9.7-3.2h0Z"/>
    </g>
    <g class="cls-31">
      <path class="cls-12" d="M244.5,157.1c1.6.5,3.1.8,4.5,1.3-8.5,5-27.5,13-32.1,13.2l-4.6-1h0c15.4-3.6,32.1-13.4,32.1-13.4h.1Z"/>
    </g>
    <g class="cls-84">
      <path class="cls-12" d="M206,169.3l-2.2-.5v-.4c16-4,30.9-7.6,35.1-12.8,1.9.5,3.8.9,5.6,1.5,0,0-16.8,9.8-32.1,13.4h0l-6.2-1.3h-.2Z"/>
    </g>
    <g class="cls-36">
      <path class="cls-11" d="M237,93.6l.2.3c-1.9,1.4-4.2,2.9-6.8,4.3l-14.3-21.6c1.5-2.7,2.4-4.4,2.5-4.5l4.4-.6,1.7,5.2s1.9,4.3,4.4,8.5c2.3,3.7,5.1,7.5,7.8,8.5h.1Z"/>
    </g>
    <g class="cls-17">
      <path class="cls-12" d="M234.5,154.6c1.5.4,3,.6,4.4,1-4.2,5.2-19.1,8.8-35,12.8v.4l-1.7-.4-3.7-1.9c6.8-1.1,28.5-6.4,35.9-11.8h.1Z"/>
    </g>
    <g class="cls-85">
      <path class="cls-6" d="M228.6,63.1l4.8,20.6-4.3,1.5c-2.6-4.3-4.4-8.5-4.4-8.5l3.9-13.5h0Z"/>
    </g>
    <g class="cls-82">
      <path class="cls-12" d="M216.1,76.6l14.3,21.6c-.9.6-1.9,1-3,1.5l-13.6-18.9c.8-1.6,1.7-3,2.3-4.2ZM213.8,80.7l13.6,19c-1.2.6-2.4,1.1-3.7,1.7l-11.8-16.3-.6-.4c.8-1.3,1.7-2.7,2.4-4h.1Z"/>
    </g>
    <g class="cls-70">
      <path class="cls-4" d="M212,85.1l11.8,16.2c-1.1.5-2.2.9-3.4,1.3-14.6,5.3-58.8,20.3-79.2,22.2-.2-.9-.5-1.9-.6-3-.6-2.6-1.2-4.9-2-6.9,33.1-3.3,64.4-17,64.4-17,2.9-4,5.9-8.9,8.6-13.3l.6.5h-.2Z"/>
    </g>
    <g class="cls-15">
      <path class="cls-6" d="M213.8,80.7c-.7,1.3-1.6,2.7-2.4,4.1-2.7,4.5-5.7,9.4-8.6,13.3-2-.6-6.1-11.9-7.7-17.9,0-.3-.2-.6-.2-.9l11.9-4.6,4.3-1.7,7.6-1c0,.2-1,1.9-2.5,4.5-.7,1.2-1.6,2.6-2.4,4.2h0ZM204.3,50.1l13,14-13.6-.5c-.7-5.1-.5-9.7.6-13.5Z"/>
    </g>
    <g class="cls-46">
      <path class="cls-6" d="M217.2,64.1l-6.1,9-4.3,1.7c-1.7-3.8-2.7-7.5-3.2-11.1l13.6.5h0Z"/>
    </g>
    <g class="cls-61">
      <path class="cls-4" d="M234.5,154.6c-7.4,5.5-29.1,10.7-35.9,11.9l-4.8-2.5-.6-1.1c-.6-1-1.1-2-1.8-3.1-2.1-3.5-4.6-7.2-7.3-10.2,6.5-1.1,13.1-2.3,19.3-3.5l.5,2.5s15.6,2.6,30.5,6c0,0,.1,0,.1,0Z"/>
    </g>
    <g class="cls-92">
      <path class="cls-12" d="M212.3,170.7l4.6,1s-10.3,14.4-21.8,16.1l-18.3-1.6c.6,0,1.3-.2,1.8-.4,2.5-.6,6.4-2.9,9.9-5.5,17.9-.7,23.3-8.7,23.9-9.7h0Z"/>
    </g>
    <g class="cls-58">
      <path class="cls-12" d="M206,169.3l6.3,1.4c-.6,1-6,9-23.9,9.7,2.5-1.9,4.8-3.9,6.4-5.6,7.4-.2,10.8-5,11.2-5.6h0Z"/>
    </g>
    <g class="cls-35">
      <path class="cls-11" d="M193.8,63.7v-6.7l10.5-6.9c-1.1,3.8-1.4,8.4-.6,13.4.6,3.6,1.6,7.3,3.2,11.1l-11.9,4.6c-.5-2.5-.7-6.3-.9-10,0-1.9-.2-3.8-.2-5.6h-.1Z"/>
    </g>
    <g class="cls-42">
      <path class="cls-12" d="M202.2,168.5l1.6.4,2.2.5c-.4.6-3.7,5.4-11.2,5.6,1-1.2,1.8-2.2,1.9-3,0-.9-.6-2.7-1.5-4.8-.4-.9-.9-1.9-1.5-3.1l4.8,2.5,3.7,1.9h0Z"/>
    </g>
    <g class="cls-53">
      <path class="cls-4" d="M195.1,80.3c1.6,6,5.6,17.2,7.7,17.9,0,0-31.3,13.6-64.4,17-.8-2.2-1.8-4.1-2.8-5.6,17.2-6,53.5-36.2,58.2-40.2h.2c.2,3.7.4,7.5.9,10,0,.3,0,.6.2.9h0Z"/>
    </g>
    <g class="cls-100">
      <path class="cls-12" d="M195.1,167.1c.9,2.1,1.5,3.8,1.5,4.8-9.5,1.2-19.6,3.8-27.7,6.2-3.2,1-6.2,1.9-8.7,2.8-3.6,1.2-6.5,2.1-9,2.8-3.4.8-6.4,1.1-10.1.6-4.3-.6-8.3.3-13.2-3-.7-.5-1.5-1.1-2.3-1.8,10.2.6,31.1.6,48.8-5.7,17.8-6.5,20.7-6.8,20.7-6.8h0Z"/>
    </g>
    <g class="cls-81">
      <path class="cls-6" d="M196.7,171.9c0,.7-.8,1.8-1.9,3-1.6,1.8-3.9,3.7-6.4,5.6-3.5,2.6-7.4,4.8-9.9,5.5-.5,0-1.1.3-1.8.4-2.8.4-6.8.4-11,0,2.5-.6,3-8.2,3.1-8.2,8.1-2.4,18.2-5,27.8-6.2h0Z"/>
    </g>
    <g class="cls-59">
      <path class="cls-12" d="M193.6,164.1c.6,1,1,2,1.5,3.1,0,0-3,.3-20.7,6.7-17.7,6.4-38.6,6.3-48.8,5.7-1.1-.9-2.2-2.1-3.4-3.5,6.5,0,17.9,1.2,27.7,0s40.2-10.9,43.2-13.1l.6,1.1h-.1ZM193.9,69.3h-.2c-4.7,4-41,34.2-58.2,40.2-.6-1.1-1.4-2-2-3,14-6.7,55.4-37.3,60.3-42.9,0,1.9.2,3.8.2,5.6h-.1Z"/>
    </g>
    <g class="cls-71">
      <path class="cls-12" d="M193,57.7l.9-.6v6.7c-4.8,5.6-46.3,36.1-60.3,42.9-1.2-1.6-2.3-2.8-3.2-3.9,19.3-6.3,43.5-28.9,50.6-35.1l11.9-10s.1,0,.1,0ZM191.3,159.8c.6,1.1,1.2,2.1,1.8,3.1-3.1,2.1-33.4,11.8-43.2,13.1s-21.1,0-27.7,0c-.9-1.1-1.9-2.5-3-4v-1.1c6.8.7,14.6,1,23.9.9,13.2-.4,31.2-2.5,48.2-12h0Z"/>
    </g>
    <g class="cls-27">
      <path class="cls-4" d="M100.7,127.7c2.6-2.2,6.2-4.4,11.3-6.4l-3.7-5.1c-2,1.9-5.1,6.8-7.6,11.5ZM96,165.7s-8.9,5.4-18.2,8.1h-.2v-1.9s-4-6.6-5.2-12.2c-.5-2.4-.5-4.7.6-6.2.4-.6.8-1.1,1.4-1.7.9-1,1.9-2,3.2-3,2.1-1.7,4.9-3.2,8.1-4.4l-.7-2.4-3.3-6.6,7.5,2.1.6-4.8-8.1,2.7-1.4-.7,4.5-.9,1.2-6.1c9.5-9.6,32.1-24.1,43.5-26.1.3.4.6.7.9,1.1.9,1.1,2,2.3,3.2,3.9.6.8,1.4,1.9,2,3,.9,1.6,1.9,3.4,2.8,5.6.7,1.9,1.4,4.2,2,6.9.2,1,.5,1.9.6,3,.6,2.5,1.3,5,1.9,7.2,1.1,3.7,2.2,6.9,3.1,9.3,1.4,3.7,2.3,5.8,2.3,5.8,7.1-2.5,23.8-7.6,31.7-1.4,1.3,1,2.6,2.2,3.9,3.7,2.7,3,5.2,6.6,7.3,10.2-17,9.6-35,11.7-48.1,12.1-9.3,0-17.2-.2-23.8-.9-5.8-.6-10.6-1.5-14.7-2.5-1.8-.5-3.3-.9-4.8-1.4-1.5-.6-2.8-1-3.9-1.5h0Z"/>
    </g>
    <g class="cls-22">
      <path class="cls-11" d="M176.4,57.9l4.4,9.7c-7.1,6.2-31.4,28.8-50.6,35.1-.3-.4-.6-.7-.9-1.1-.3-.5-.6-.8-.8-1.3-.5-.7-.8-1.7-1.3-2.8,8-2.2,34.2-26.3,42.3-32.7l6.9-6.9h0Z"/>
    </g>
    <g class="cls-47">
      <path class="cls-6" d="M169,178.1c-.2,0-.6,7.7-3.1,8.2-2,0-4.2-.4-6.1-.6-3.5-.5-6.6-1.2-8.4-2.1,2.6-.6,5.4-1.6,9-2.8,2.5-.7,5.4-1.7,8.7-2.7h0Z"/>
    </g>
    <g class="cls-104">
      <path class="cls-4" d="M159.7,185.8l-14.1,9.1h-.7l-16.9-13.6c5,3.2,9.1,2.5,13.2,3,3.7.5,6.7.2,10.1-.6,1.9,1,5,1.7,8.4,2.2h0Z"/>
    </g>
    <g class="cls-52">
      <path class="cls-6" d="M169.6,64.7c-8.1,6.4-34.2,30.5-42.3,32.7-.2-.5-.4-.9-.6-1.5-1.6-4.6-2.8-10.7-2.8-13.9,4.7-1.9,6.7-5.6,8.4-9.9,6-1.6,17.6-5.6,37.2-7.4,0,0,.1,0,.1,0ZM144.9,195l-5.2.9-18.1-15.6-14.3-2.6c4.3-1.9,8.5-4,11.9-5.7,1,1.5,2,2.8,3,4,1.2,1.4,2.3,2.6,3.4,3.5.8.7,1.6,1.3,2.3,1.8l16.9,13.7h0Z"/>
    </g>
    <g class="cls-33">
      <path class="cls-10" d="M78.1,92.3c-2.1,1.9-4,3.6-5.4,5.1l-3.3-8.2-1.9-4.7,14.8-10.7s29-18.2,35.2-21.1c6.3-2.9,7.4-3.3,7.4-3.3,0,0,6.7-4,11-1.1,7.1,4.7,3.7,11.1,2.6,14-2.8-3.7-4-4.5-5-5.6s-5.5-1.8-11.1,1.2c-3.2,1.7-15.6,11-27.7,20.8-2.2,1.8-4.4,3.6-6.6,5.4-3.7,2.9-7.1,5.7-10,8.3h0Z"/>
    </g>
    <g class="cls-51">
      <path class="cls-6" d="M139.7,196l-6.1,3-15.3-14.3-13.1.6-16.1.6s9.1-3.9,18.3-8.1l14.3,2.6,18.1,15.7h-.1Z"/>
    </g>
    <g class="cls-69">
      <path class="cls-5" d="M113.1,82.5l-15.9,9.5-1.1-16.4c12-9.7,24.4-19.1,27.7-20.8,5.6-2.9,10.1-2.2,11.1-1.2s2.2,1.9,5,5.6c-2.8,5.4-5.2,6.9-5.8,8.9-.6,1.3-1,2.7-1.6,3.9-1.8,4.4-3.7,8.1-8.4,9.9-.5.2-1,.4-1.7.6-1,.3-2,.4-3.1.5-2,.3-4.2,0-6.1-.4h-.1ZM136.6,61.9c.2-.4-.4-1-1.1-1.4s-1.6-.4-1.8,0,.4,1,1.1,1.4c.8.4,1.6.4,1.8,0ZM129.8,57.9c0-.4-.6-.9-1.4-1.1s-1.7,0-1.8.4c0,.4.6.9,1.4,1.1.9.2,1.7,0,1.8-.4Z"/>
    </g>
    <g class="cls-41">
      <path class="cls-10" d="M135.5,60.6c.8.4,1.3,1,1.1,1.4s-.9.4-1.8,0-1.3-1-1.1-1.4c0-.5.9-.5,1.8,0Z"/>
    </g>
    <g class="cls-26">
      <path class="cls-6" d="M133.6,199l-9.2,4.1-12.3-11.2c-2.3-1.6-6.7-5.4-7-6.7l13.1-.6,15.4,14.3h0Z"/>
    </g>
    <g class="cls-89">
      <path class="cls-10" d="M128.4,56.9c.8.2,1.5.6,1.4,1.1,0,.4-.8.6-1.8.4-.8-.2-1.5-.6-1.4-1.1,0-.5.8-.6,1.8-.4h0Z"/>
    </g>
    <g class="cls-76">
      <path class="cls-11" d="M128.6,100.3c.3.5.6.8.8,1.3-11.4,2-34,16.6-43.5,26.1l-1.2,6.1-4.5.9,1.6-7c-3.4-7.1-5.4-22.8-7.7-33,1.5-1.5,3.3-3.1,5.4-5.1.3,7.6.2,14,1.4,19.9.4,1.9.9,3.7,1.6,5.6.9,2.3,2.1,4.6,3.7,6.9,9-8.1,30.3-24.7,40.5-25.9.2.5.4,1,.6,1.5.6,1,1,2,1.5,2.8h-.2Z"/>
    </g>
    <g class="cls-55">
      <path class="cls-4" d="M124,82.1c0,3.1,1.2,9.3,2.8,13.9-10.2,1.3-31.6,18-40.5,25.9-1.6-2.3-2.8-4.5-3.7-6.9l8.4-7.6s25.4-20.3,26.5-21.8c1.1-1.4,1.8-2.7,1.8-2.7,1.1,0,2.1-.2,3.1-.5.5,0,1-.2,1.6-.4h0Z"/>
    </g>
    <g class="cls-13">
      <path class="cls-12" d="M119.3,171v1.1c-3.5,1.8-7.8,3.8-12,5.7-9.3,4.3-18.3,8.1-18.3,8.1-2.7-2.6-4.8-4.4-6.4-5.5,16.6-4.7,22-12,22-12,4.1,1,8.9,1.9,14.7,2.5h0Z"/>
    </g>
    <g class="cls-34">
      <path class="cls-11" d="M119.2,83.1s-.6,1.3-1.8,2.7-26.5,21.8-26.5,21.8l-8.4,7.6c-.7-1.9-1.2-3.7-1.6-5.6l9.5-10.5,6.7-7,15.9-9.6c1.9.5,4.1.7,6.1.6h.1Z"/>
    </g>
    <g class="cls-24">
      <path class="cls-4" d="M108.3,116.2l3.7,5.1c-5,1.9-8.6,4.1-11.3,6.4,2.5-4.7,5.6-9.5,7.6-11.5Z"/>
    </g>
    <g class="cls-67">
      <path class="cls-6" d="M105.1,185.3c.3,1.4,4.7,5.1,7,6.7,0,0-18-.3-25-1.8l-2.3-.2-10.3-9.2,2.6-2c.6,0,1.3-.3,1.9-.5.7.3,1.9.8,3.6,2,1.6,1.1,3.7,2.9,6.4,5.5l16-.6h.1Z"/>
    </g>
    <g class="cls-97">
      <path class="cls-12" d="M99.7,167.1c1.5.5,3.1.9,4.8,1.4,0,0-5.5,7.4-21.9,11.9-1.8-1.3-2.9-1.9-3.6-2,9-2.7,20.4-11,20.7-11.3h0Z"/>
    </g>
    <g class="cls-66">
      <path class="cls-11" d="M96,75.7l1.2,16.3-6.7,7-1-18c2-1.8,4.3-3.6,6.5-5.4h0Z"/>
    </g>
    <g class="cls-99">
      <path class="cls-12" d="M96,165.7c1.1.5,2.3.9,3.7,1.4-.4.3-11.8,8.6-20.7,11.2-.8-.3-1.1-.2-1.1-.2l-.2-3v-1.4h.2c9.3-2.7,18.1-8.1,18.1-8.1h0Z"/>
    </g>
    <g class="cls-64">
      <path class="cls-4" d="M89.4,81.1l1.1,18-9.5,10.5c-1.2-5.9-1.2-12.4-1.4-19.9,2.9-2.6,6.2-5.6,9.8-8.5h0Z"/>
    </g>
    <g class="cls-96">
      <path class="cls-11" d="M89.7,132.8l-.6,4.8-7.5-2.1s8.1-2.7,8.1-2.7Z"/>
    </g>
    <g class="cls-73">
      <path class="cls-4" d="M54.5,106.6c-7.2-.6-21.8-11.1-21.8-11.1,0,0,7.8-13.7,17.2-15.6s12.2,1.9,20.3,7.1l.8,1.1,3.2,6.5c2.2,10.3,4.3,26,7.7,33l-1.6,7-8-4-.5,3.5,9.7,1.1-6.4,5.4,3.1,1,3.2-6.5.6,7.4,2.7-.8.7,2.4c-3.1,1.1-5.8,2.7-8.1,4.4-7.9-3.3-20.3-25.5-21.8-30.6l-.2-.2,3.5-3.6-4.7-6.9h-.2c0-.3,0-.6.2-.7h.4Z"/>
    </g>
    <g class="cls-79">
      <path class="cls-11" d="M81.6,135.5l3.3,6.6-2.7.8s-.6-7.4-.6-7.4Z"/>
    </g>
    <g class="cls-95">
      <path class="cls-6" d="M84.7,190l-19.7-1.7,9.4-7.5s10.3,9.2,10.3,9.2Z"/>
    </g>
    <g class="cls-48">
      <path class="cls-11" d="M81.6,135.5l-3.2,6.5-3.1-1.1,6.4-5.4h-.1ZM81.6,135.5l-9.8-1.1.5-3.6,8,4,1.4.7h0ZM77.7,175.2l.2,3-.8.6-2.6,2-9.5,7.4-9.8,7.7-5.8-4.4s18.6-10.8,24.9-16.7c1.1.3,2.3.4,3.5.4h0Z"/>
    </g>
    <g class="cls-87">
      <path class="cls-6" d="M77.7,173.8v1.4c-1.2,0-2.3-.2-3.4-.3-1.7-.2-3.2-.5-4.7-.8-1.6-.4-3.1-.8-4.5-1.4-1-.4-2-.8-3.1-1.3-1.3-.6-2.6-1.3-3.8-2-.7-.5-1.5-.9-2.1-1.5-11.8-8.5-17.4-22.7-21.3-33.7.3-1.4.6-2.7.8-3.8,10.8,18.1,14.8,30.6,42.2,41.5v1.9h-.1Z"/>
    </g>
    <g class="cls-18">
      <path class="cls-6" d="M72.5,159.7c1.2,5.6,5.2,12.2,5.2,12.2-27.4-10.9-31.4-23.5-42.2-41.5-1.2-4.1-6.8-15.7-11.9-24.7,4.8,2.1,11.2,5.2,17.7,7.2v.4c.8,4,1.9,9.3,3.9,14.8,3.8,11,11,23.5,27,31.6h.4,0Z"/>
    </g>
    <g class="cls-54">
      <path class="cls-12" d="M77.7,148.9c-1.2.9-2.3,1.9-3.2,3-11.8-13.6-19.2-25.4-21.6-30.7l2.9-3,.2.2c1.4,4.9,13.9,27.1,21.8,30.5h-.1Z"/>
    </g>
    <g class="cls-68">
      <path class="cls-12" d="M74.4,151.8c-.6.6-.9,1.1-1.4,1.7-6.3-3-20.8-24-22.4-30.2l2.2-2.3c2.4,5.4,9.7,17.1,21.6,30.8Z"/>
    </g>
    <g class="cls-3">
      <path class="cls-6" d="M72.5,159.7h-.4c-16-8.1-23.1-20.5-27-31.5l1.4-.5,4.2-4.4c1.7,6.2,16.1,27.1,22.4,30.2-1,1.4-1.1,3.7-.6,6.1h0Z"/>
    </g>
    <g class="cls-14">
      <path class="cls-11" d="M65,172.7c1.4.6,3,1,4.5,1.4,0,0-12.2,12.6-27.1,14.2-4.8-2.4-6-4.4-6-4.4,2-.3,4.4-.6,6.8-1,7.6-1.4,16.5-4.1,21.8-10.1h0Z"/>
    </g>
    <g class="cls-23">
      <path class="cls-11" d="M61.8,171.4c1,.5,2,.9,3.1,1.3-5.2,6-14.2,8.6-21.8,10l-3.2-3.5s5.1-.9,10.4-2.4c.6-.2,1-.3,1.5-.5,4.6-1.3,9-3.1,10.1-4.9,0,0,0,0-.1,0Z"/>
    </g>
    <g class="cls-90">
      <path class="cls-6" d="M54.5,107.5l4.7,6.9-3.5,3.6-2.9,3-2.2,2.3-4.2,4.4-1.4.5c-1.9-5.6-3.1-10.8-4-14.8v-.4c4.2,1.3,8.3,2.1,12.3,2,0,0,0-.9.3-2.1,0-.9.2-2,.4-3.1,0-.9.2-1.8.4-2.4h.1Z"/>
    </g>
    <g class="cls-105">
      <path class="cls-11" d="M58,169.3c1.2.7,2.5,1.5,3.8,2-1.1,1.9-5.5,3.5-10,4.9-.5.2-1,.3-1.5.5-5.2,1.4-13,2.4-13,2.4,0,0-1.8-3-3.4-5.1,10.8.6,23.9-4.4,23.9-4.4l.2-.3h0Z"/>
    </g>
    <g class="cls-98">
      <path class="cls-4" d="M55.9,167.8l-1.6,1.3c-12.1,3.8-26-2.9-26-2.9,0,0,3.6-19.4,6.3-32.1,3.9,11,9.5,25.3,21.3,33.7h0Z"/>
    </g>
    <g class="cls-103">
      <path class="cls-12" d="M54.5,106.6c0,.2,0,.5-.2.9,0,.6-.2,1.5-.4,2.4-4.2.4-16.9-7.8-23.7-11.8l2.4-2.7s14.6,10.5,21.8,11.1h.1Z"/>
    </g>
    <g class="cls-80">
      <path class="cls-12" d="M30.3,98.1c6.8,4,19.5,12.1,23.8,11.8,0,1-.3,2.1-.4,3.1-4.2-.2-18.3-7.3-26.4-11.4l3-3.4h0Z"/>
    </g>
    <g class="cls-77">
      <path class="cls-12" d="M53.6,112.9c-.2,1.2-.3,2.1-.3,2.1-3.9,0-8.1-.7-12.2-2-6.5-2-12.8-5.2-17.7-7.2l3.7-4.2c8.1,4.1,22.3,11.2,26.5,11.3Z"/>
    </g>
    <g class="cls-101">
      <path class="cls-39" d="M218.7,71.9l-7.6,1,6.1-9-13-14-10.5,6.9-.9.6-12,9.9-4.4-9.7-6.8,6.8c-19.6,1.9-31.2,5.8-37.1,7.4"/>
    </g>
    <g class="cls-2">
      <path class="cls-39" d="M176.8,186.3l18.3,1.6,16.6,1.7,18.9,20.3,8.4-5.5,5.3-3.4,11.1.2,3.8,3.5,17.7-11.3v-50.2s-16.6-4.2-34.2-6c18-7,34.2-10.7,34.2-10.7v-16.9l-7,2.3-5.1-9.9,3.5-2.1-15.4-15.8-7.1,1.4-.3-7.6-16.8-14.6-3.8,13.4-1.7-5.2-4.4.6M65,188.3l19.8,1.7,2.3.2c7.1,1.4,25,1.8,25,1.8l12.3,11.2,9.2-4.1,6.1-3,5.2-.9h.7l14.1-9.2M96,75.7c-2.2,1.8-4.4,3.6-6.6,5.4-3.6,3-6.9,5.9-9.9,8.5-2.1,1.9-4,3.6-5.4,5.1,0,0-.4-2.3-3.2-6.5-1.6-2.2-3.5-3.8-3.5-3.8l15-10.8s28.7-18.1,35-20.9l6.3-2.9s7.3-3.5,12.1-1.7,5.2,8.4,4,11.2c-2.8-3.7-4-4.5-5-5.6s-5.5-1.8-11.1,1.2c-3.2,1.6-15.6,11-27.7,20.7M119.9,63.1l5,1.9M129.4,67.6l3.5,1.7M127.6,66.9s-.8,8.2-1.9,9.1l-1,.8-1.6-1.6M119.2,75.8s1.8,2.4,2.7,1.9"/>
    </g>
    <g class="cls-1">
      <path class="cls-39" d="M136.6,61.9c-.2.4-.9.4-1.8,0s-1.3-1-1.1-1.4.9-.4,1.8,0,1.3,1,1.1,1.4ZM129.8,57.9c0,.4-.8.6-1.8.4-.8-.2-1.5-.6-1.4-1.1,0-.4.8-.6,1.8-.4.8.3,1.5.7,1.4,1.1h0ZM124,82.1c-.5.2-1,.4-1.7.6-1,.3-2,.4-3.1.5-2,0-4.1-.2-6.1-.6-4.4-1.4-5.1-4.9-5.1-4.9M139.8,59.4c-2.8,5.4-5.2,6.9-5.8,8.9-.6,1.3-1,2.7-1.6,3.9h0c-1.8,4.4-3.7,8.1-8.4,9.9"/>
    </g>
    <g class="cls-94">
      <path class="cls-39" d="M96,75.7h0l1.2,16.3,15.9-9.5M89.4,81.1l1.1,18,6.7-7M54.3,169.2c-12.1,3.8-26-2.9-26-2.9,0,0,3.6-19.4,6.3-32.1.3-1.4.6-2.7.8-3.8-1.2-4.1-6.8-15.7-11.9-24.7l3.7-4.2,3.1-3.4,2.4-2.7s7.8-13.7,17.2-15.6c9.4-1.9,11.2.8,19.2,6M82.6,180.4c-1.8-1.3-2.9-1.9-3.6-2-.8-.3-1.1-.2-1.1-.2l-.8.6-2.6,2-9.5,7.4-9.8,7.7-5.8-4.4s18.6-10.8,24.9-16.7M127.9,181.4c-.7-.5-1.5-1.1-2.3-1.8-1.1-.9-2.2-2.1-3.4-3.5-.9-1.1-1.9-2.5-3-4-3.4,1.8-7.7,3.8-11.9,5.7-9.3,4.3-18.3,8.1-18.3,8.1-2.7-2.6-4.8-4.4-6.4-5.5M129.4,101.6c.3.4.6.7.9,1.1.9,1.1,2,2.3,3.2,3.9.6.8,1.4,1.9,2,3,.9,1.6,1.9,3.4,2.8,5.6.7,1.9,1.4,4.2,2,6.9.2,1,.5,1.9.6,3,.6,2.5,1.3,5,1.9,7.2,1.1,3.7,2.2,6.9,3.1,9.3,1.4,3.7,2.3,5.8,2.3,5.8,7.1-2.5,23.8-7.6,31.7-1.4,1.3,1,2.6,2.2,3.9,3.7,2.7,3,5.2,6.6,7.3,10.2.6,1.1,1.2,2.1,1.8,3.1l.6,1.1c.6,1,1,2,1.5,3.1.9,2.1,1.5,3.8,1.5,4.8-9.5,1.2-19.6,3.8-27.7,6.2-3.2,1-6.2,1.9-8.7,2.8-3.6,1.2-6.5,2.1-9,2.8-3.4.8-6.4,1.1-10.1.6-4.3-.6-8.3.3-13.2-3M124,82h0c0,3.1,1.2,9.3,2.8,13.9.2.5.4,1,.6,1.5.4,1.1.8,2,1.3,2.8.3.5.6.8.8,1.3"/>
    </g>
    <g class="cls-44">
      <path class="cls-39" d="M72.1,159.8c-16-8.1-23.1-20.6-27-31.6-1.9-5.6-3.1-10.8-4-14.8M55.4,83.1s-1.9,22.5-.9,23.4c0,.2,0,.5-.2.9,0,.6-.2,1.5-.4,2.4,0,1-.3,2.1-.4,3.1-.2,1.2-.3,2.1-.3,2.1-3.9,0-8.1-.7-12.2-2-6.5-2-12.8-5.2-17.7-7.2M77.8,178.2l-.2-3c-1.2,0-2.3-.2-3.4-.3-1.7-.2-3.2-.5-4.7-.8-1.6-.4-3.1-.8-4.5-1.4-1-.4-2-.8-3.1-1.3-1.3-.6-2.6-1.3-3.8-2-.7-.5-1.5-.9-2.1-1.5-11.8-8.5-17.4-22.7-21.3-33.7"/>
    </g>
    <g class="cls-40">
      <path class="cls-39" d="M77.7,175.2v-3.2c-27.4-10.9-31.4-23.5-42.2-41.5M77.7,171.9s-4-6.6-5.2-12.2c-.5-2.4-.5-4.7.6-6.2.4-.6.8-1.1,1.4-1.7.9-1,1.9-2,3.2-3,2.1-1.7,4.9-3.2,8.1-4.4,1.9-.6,3.8-1.2,5.9-1.5,2.2-.4,4.6-.5,7.1-.3,13.1.7,36.5,0,36.5,0"/>
    </g>
    <g class="cls-25">
      <path class="cls-39" d="M93.3,148.6c12.7,2.9,40.3,5.4,49.8,1.8M83.6,156.2s1.5,5.1,12.4,9.5c1.1.5,2.3.9,3.7,1.4,1.5.5,3.1.9,4.8,1.4,4.1,1,9,1.9,14.7,2.5,6.7.7,14.5,1,23.8.9,13.2-.5,31.2-2.5,48.1-12.1"/>
    </g>
    <g class="cls-19">
      <path class="cls-39" d="M96,165.7s-8.9,5.4-18.2,8.1M99.7,167.1h0c-.4.3-11.8,8.6-20.7,11.3-.6.2-1.3.4-1.9.5M104.6,168.5s-5.5,7.4-21.9,11.9h0M122.2,176c6.5,0,17.9,1.2,27.7,0s40.2-10.9,43.2-13.1"/>
    </g>
    <g class="cls-60">
      <path class="cls-39" d="M125.6,179.5c10.2.6,31.1.6,48.8-5.7,17.7-6.4,20.7-6.7,20.7-6.7M196.7,171.9c0,.7-.8,1.8-1.9,3-1.6,1.8-3.9,3.7-6.4,5.6-3.5,2.6-7.4,4.8-9.9,5.5-.5,0-1.1.3-1.8.4-2.8.4-6.8.4-11,0-2,0-4.2-.4-6.1-.6-3.5-.5-6.6-1.2-8.4-2.1M127.9,181.4h0l16.8,13.6h0M107.3,177.8l14.3,2.7,18.1,15.6M133.6,199l-15.4-14.3-13.1.6-16.2.6M84.7,190l-10.3-9.2M54.3,169.2l1.6-1.4M92.8,139.8c4.6-1.9,15.5-8.5,22.1-9.4"/>
    </g>
    <g class="cls-57">
      <path class="cls-39" d="M100.7,127.7c-4.6,4-6.3,8.3-7.8,12.1-.5,1.1-.8,2.1-1.3,3.1M108.3,116.2l3.7,5.1c-5,1.9-8.6,4.1-11.3,6.4,2.5-4.7,5.6-9.5,7.6-11.5ZM85.9,127.7c9.5-9.6,32.1-24.1,43.5-26.1h0M79.6,89.5h0c.3,7.6.2,14,1.4,19.9.4,1.9.9,3.7,1.6,5.6.9,2.3,2.1,4.6,3.7,6.9,9-8.1,30.3-24.7,40.5-25.9M74.1,94.6c2.2,10.3,4.3,26,7.7,33M32.6,95.5s14.6,10.5,21.8,11.1M30.3,98.1c6.8,4,19.5,12.1,23.8,11.8M27.2,101.6c8.1,4.1,22.2,11.2,26.4,11.4"/>
    </g>
    <g class="cls-43">
      <path class="cls-39" d="M54.5,107.5l4.7,6.9-3.5,3.6-2.9,3.1-2.2,2.2-4.2,4.4M55.9,118.2c1.4,5,13.9,27.2,21.8,30.6"/>
    </g>
    <g class="cls-63">
      <path class="cls-39" d="M50.6,123.3c1.7,6.2,16.1,27.1,22.4,30.2M52.8,121.1c2.4,5.4,9.7,17.1,21.6,30.7M80.2,134.7l-8-4-.5,3.6,9.8,1.1-1.4-.7h0ZM81.6,135.5l8.1-2.7-.6,4.8s-7.5-2.1-7.5-2.1ZM81.6,135.5l3.3,6.6-2.7.8s-.6-7.4-.6-7.4Z"/>
    </g>
    <g class="cls-29">
      <path class="cls-39" d="M81.6,135.5l-6.4,5.4,3.1,1.1,3.2-6.5h.1ZM169.6,64.7c-8.1,6.4-34.2,30.5-42.3,32.7M180.9,67.6c-7.1,6.2-31.4,28.8-50.6,35.1M133.6,106.6c14-6.7,55.4-37.3,60.3-42.9l.2-.2M193.8,69.3c-4.7,4-41,34.2-58.2,40.2"/>
    </g>
    <g class="cls-88">
      <path class="cls-39" d="M193.8,57v12.3c.2,3.7.4,7.5.9,10,0,.4,0,.6.2.9,1.6,6,5.6,17.2,7.7,17.9,2.9-4,5.9-8.9,8.6-13.3.8-1.4,1.7-2.8,2.4-4.1.8-1.5,1.7-3,2.3-4.2,1.5-2.7,2.4-4.4,2.5-4.5h0"/>
    </g>
    <g class="cls-102">
      <path class="cls-39" d="M194.8,79.4l12-4.6,4.3-1.7"/>
    </g>
    <g class="cls-72">
      <path class="cls-39" d="M203.6,63.6c.6,3.6,1.6,7.3,3.2,11.1M204.3,50.1c-1.1,3.8-1.4,8.4-.6,13.4M224.8,76.6s1.9,4.3,4.4,8.5c2.2,3.8,5.1,7.6,7.7,8.6"/>
    </g>
    <g class="cls-28">
      <path class="cls-39" d="M229.3,85.1l4.3-1.5,9.8-3.3,2.6,5c-1.4,2.2-4.3,5.4-8.7,8.6-1.9,1.4-4.2,2.9-6.8,4.3-.9.6-1.9,1-3,1.5-1.2.6-2.4,1.1-3.7,1.7-1.1.5-2.2.9-3.4,1.3-14.6,5.3-58.8,20.3-79.2,22.2M228.6,63.1l4.8,20.6M143,132.1h0c31.5-4.8,103.9-20.8,121.7-30.3M146.2,141.5c13.3-2.8,93.6-18.6,123.6-29.7M184,149.6c6.5-1.1,13.1-2.3,19.3-3.5,17.1-3.3,32.5-6.9,39.2-9M249,158.4c-1.4-.5-3-.8-4.5-1.3-1.8-.5-3.6-.9-5.6-1.5-1.5-.4-3-.7-4.4-1-14.9-3.4-30.5-6-30.5-6M256.1,161c-1.9-.8-4.4-1.7-7.1-2.6"/>
    </g>
    <g class="cls-32">
      <path class="cls-39" d="M230.5,177l16.3,8.4s.8-1.8,2.5-5c.7-1.4,1.7-3,2.7-4.9.6-1.2,1.5-2.5,2.3-4,1.5-2.6,3.2-5.5,5.3-8.6-.8-.6-1.9-1.3-3.4-1.9M246.8,185.4l3.1,2.8s19.3-.8,26.9-7.3"/>
    </g>
    <g class="cls-21">
      <path class="cls-39" d="M249.3,180.4s20.8-3.8,27.5-6.2M252,175.5s22.2-3,24.8-5.7M254.3,171.6s13-2.3,22.5-5.8M193.6,164.1l4.8,2.5,3.7,1.9-5.5,1.3M202.2,168.5l1.6.4,2.2.5,6.3,1.4,4.6,1s-10.3,14.4-21.8,16.1"/>
    </g>
    <g class="cls-83">
      <path class="cls-39" d="M206,169.2h0c-.4.6-3.8,5.4-11.3,5.6M203.8,168.5c15.9-4,30.8-7.6,35-12.8M244.5,157.1s-16.8,9.8-32.1,13.4h0c-.6,1.1-6,9.1-23.9,9.8M249,158.4h0c-8.5,5-27.5,13-32.1,13.2"/>
    </g>
    <g class="cls-75">
      <path class="cls-39" d="M256.1,161h0c-.5.4-16.8,12.2-25.6,16-1.7.7-3.1,1.1-4,1.1h-2.9l-6.8-6.4M276.8,126.4v16.8M212,85.1l11.8,16.2M213.8,80.7h0l13.6,19M216.1,76.6l14.3,21.6M202.8,98.1s-31.3,13.6-64.4,17h0M90.5,99.1l-9.5,10.5M82.6,115.1l8.4-7.6s25.4-20.3,26.5-21.8c1.1-1.4,1.8-2.7,1.8-2.7M169,178.1c-.2,0-.6,7.7-3.1,8.2M211.6,189.4s22.5,1.6,23.3.5M238.9,204.2s5.5-9.8,7.9-11.4,8.5,8.1,8.5,8.1M81.8,127.7l-1.6,7,4.4-.8,1.2-6.2M112.1,191.9c-2.3-1.6-6.7-5.4-7-6.7M198.5,166.6c6.8-1.2,28.5-6.5,35.9-11.9h0M203.6,63.6h0l13.6.5M69.4,174.1s-12.2,12.6-27.1,14.2c-4.8-2.4-6-4.4-6-4.4,2-.3,4.4-.6,6.8-1,7.6-1.4,16.6-4.1,21.8-10M51.8,176.4c4.5-1.4,8.9-3.1,10-4.9"/>
    </g>
    <g class="cls-93">
      <path class="cls-39" d="M43.1,182.8l-3.2-3.5s5.1-.9,10.4-2.4"/>
    </g>
    <g class="cls-20">
      <path class="cls-39" d="M57.8,169.7s-13.1,5-23.9,4.4c1.8,2.1,3.4,5.1,3.4,5.1,0,0,7.8-1,13-2.4.6-.2,1-.3,1.5-.5"/>
    </g>
  </g>
</svg>